{"glyphs":{"0":{"ha":783,"x_min":77,"x_max":705,"o":"m 705 376 q 622 86 705 187 q 392 -14 538 -14 q 161 87 246 -14 q 77 376 77 188 l 77 610 q 161 900 77 799 q 391 1002 245 1002 q 621 900 536 1002 q 705 610 705 799 l 705 376 m 572 639 q 525 832 572 767 q 391 897 479 897 q 256 832 302 897 q 210 639 210 767 l 210 349 q 257 156 210 221 q 392 90 304 90 q 526 155 480 90 q 572 349 572 220 l 572 639 z "},"1":{"ha":782,"x_min":126,"x_max":462,"o":"m 462 0 l 328 0 l 328 857 l 126 854 l 126 951 l 462 987 l 462 0 z "},"2":{"ha":782,"x_min":62,"x_max":720,"o":"m 720 0 l 80 0 l 80 92 l 404 451 q 521 605 490 548 q 552 722 552 662 q 509 846 552 795 q 395 897 466 897 q 244 844 292 897 q 195 696 195 791 l 67 696 l 66 701 q 151 915 62 828 q 395 1002 239 1002 q 607 924 528 1002 q 686 726 686 846 q 638 565 686 646 q 504 391 590 484 l 244 108 l 245 104 l 720 104 l 720 0 z "},"3":{"ha":782,"x_min":64,"x_max":691,"o":"m 263 555 l 380 555 q 506 600 469 555 q 543 724 543 644 q 500 852 543 808 q 376 897 458 897 q 251 851 298 897 q 204 729 204 805 l 76 729 l 75 733 q 156 923 71 845 q 376 1002 240 1002 q 595 929 513 1002 q 676 721 676 856 q 639 599 676 660 q 528 507 602 538 q 654 415 617 477 q 691 275 691 353 q 603 63 691 140 q 376 -14 514 -14 q 153 59 241 -14 q 68 256 64 132 l 70 260 l 197 260 q 245 136 197 182 q 376 90 293 90 q 509 136 461 90 q 557 273 557 182 q 515 408 557 364 q 380 451 472 451 l 263 451 l 263 555 z "},"4":{"ha":782,"x_min":37,"x_max":750,"o":"m 614 332 l 750 332 l 750 228 l 614 228 l 614 0 l 481 0 l 481 228 l 37 228 l 37 303 l 473 987 l 614 987 l 614 332 m 180 332 l 481 332 l 481 795 l 477 796 l 464 762 l 180 332 z "},"5":{"ha":782,"x_min":103,"x_max":707,"o":"m 119 446 l 176 987 l 670 987 l 670 869 l 289 869 l 256 591 q 326 630 288 614 q 414 646 364 645 q 629 557 551 648 q 707 315 707 467 q 628 76 707 166 q 395 -14 548 -14 q 186 54 270 -14 q 106 256 103 123 l 108 260 l 229 260 q 275 135 229 179 q 395 90 321 90 q 527 150 480 90 q 574 313 574 210 q 526 469 574 408 q 395 530 479 530 q 281 507 317 530 q 230 434 246 483 l 119 446 z "},"6":{"ha":782,"x_min":90,"x_max":732,"o":"m 458 1002 q 558 990 509 1002 q 641 961 608 979 l 612 859 q 543 886 579 876 q 458 897 507 897 q 287 812 352 897 q 222 591 222 727 l 222 575 q 322 634 266 613 q 442 656 378 656 q 653 564 574 656 q 732 332 732 473 q 648 82 732 179 q 425 -14 564 -14 q 184 91 279 -14 q 90 387 90 196 l 90 576 q 195 884 90 766 q 458 1002 301 1002 m 412 556 q 296 528 344 556 q 222 454 248 500 l 222 374 q 280 164 222 238 q 425 90 338 90 q 552 160 507 90 q 598 332 598 229 q 549 493 598 430 q 412 556 500 556 z "},"7":{"ha":782,"x_min":52,"x_max":720,"o":"m 720 882 q 478 505 541 669 q 388 106 416 340 l 377 0 l 243 0 l 254 106 q 365 524 283 340 q 589 882 447 707 l 52 882 l 52 987 l 720 987 l 720 882 z "},"8":{"ha":782,"x_min":69,"x_max":712,"o":"m 685 730 q 642 594 685 652 q 524 508 598 536 q 661 414 610 478 q 712 267 712 351 q 623 58 712 130 q 391 -14 534 -14 q 158 58 246 -14 q 69 267 69 130 q 119 414 69 351 q 255 508 170 478 q 139 594 181 536 q 97 730 97 652 q 177 931 97 860 q 390 1002 258 1002 q 603 931 520 1002 q 685 730 685 860 m 579 270 q 526 404 579 351 q 390 456 472 456 q 255 404 307 456 q 203 270 203 351 q 254 138 203 186 q 391 90 306 90 q 527 138 475 90 q 579 270 579 186 m 551 727 q 506 848 551 800 q 390 897 460 897 q 275 850 319 897 q 231 727 231 804 q 275 606 231 652 q 391 561 319 561 q 507 606 462 561 q 551 727 551 652 z "},"9":{"ha":782,"x_min":56,"x_max":695,"o":"m 347 90 q 503 164 444 90 q 562 384 562 238 l 562 429 q 478 356 528 380 q 368 331 429 331 q 140 419 224 331 q 56 663 56 508 q 145 907 56 812 q 362 1002 235 1002 q 606 905 517 1002 q 695 621 695 808 l 695 385 q 598 89 695 192 q 347 -14 502 -14 q 240 -4 294 -14 q 144 26 186 5 l 164 128 q 247 99 204 107 q 347 90 290 90 m 368 435 q 491 467 441 435 q 562 549 540 499 l 562 634 q 512 830 562 764 q 366 897 462 897 q 241 831 293 897 q 190 663 190 766 q 238 498 190 562 q 368 435 286 435 z "},"\r":{"ha":345,"x_min":0,"x_max":0,"o":""}," ":{"ha":345,"x_min":0,"x_max":0,"o":""},"!":{"ha":366,"x_min":116,"x_max":250,"o":"m 250 324 l 116 324 l 116 987 l 250 987 l 250 324 m 250 0 l 116 0 l 116 138 l 250 138 l 250 0 z "},"\"":{"ha":453,"x_min":54,"x_max":398,"o":"m 189 875 l 120 705 l 54 705 l 55 868 l 55 1058 l 189 1058 l 189 875 m 398 875 l 330 705 l 264 705 l 264 873 l 264 1058 l 398 1058 l 398 875 z "},"#":{"ha":865,"x_min":47,"x_max":804,"o":"m 483 278 l 310 278 l 256 0 l 153 0 l 208 278 l 47 278 l 47 373 l 227 373 l 273 609 l 99 609 l 99 705 l 292 705 l 347 987 l 450 987 l 394 705 l 567 705 l 623 987 l 725 987 l 669 705 l 804 705 l 804 609 l 651 609 l 605 373 l 753 373 l 753 278 l 586 278 l 532 0 l 429 0 l 483 278 m 329 373 l 502 373 l 548 609 l 375 609 l 329 373 z "},"$":{"ha":782,"x_min":75,"x_max":709,"o":"m 575 255 q 532 359 575 315 q 389 436 488 402 q 182 547 252 477 q 113 731 113 616 q 177 913 113 843 q 353 998 241 984 l 353 1148 l 460 1148 l 460 998 q 637 900 574 981 q 700 683 700 819 l 567 683 q 524 832 567 775 q 406 889 481 889 q 286 847 326 889 q 246 733 246 806 q 287 627 246 667 q 435 549 328 586 q 642 438 574 505 q 709 256 709 371 q 639 71 709 140 q 447 -11 569 2 l 447 -141 l 340 -141 l 340 -12 q 149 74 224 1 q 77 288 75 146 l 79 291 l 208 291 q 260 142 208 186 q 389 98 313 98 q 526 139 477 98 q 575 255 575 181 z "},"%":{"ha":1016,"x_min":71,"x_max":957,"o":"m 71 798 q 126 943 71 884 q 275 1002 182 1002 q 423 943 368 1002 q 479 798 479 884 l 479 745 q 424 601 479 659 q 276 543 368 543 q 126 601 182 543 q 71 745 71 659 l 71 798 m 170 745 q 197 660 170 695 q 276 625 224 625 q 353 660 326 625 q 380 745 380 694 l 380 798 q 352 883 380 848 q 275 919 325 919 q 197 883 224 919 q 170 798 170 848 l 170 745 m 549 242 q 604 387 549 328 q 753 446 660 446 q 901 387 845 446 q 957 242 957 328 l 957 189 q 901 44 957 102 q 754 -14 846 -14 q 605 44 661 -14 q 549 189 549 102 l 549 242 m 648 189 q 675 103 648 138 q 754 68 703 68 q 831 103 804 68 q 858 189 858 138 l 858 242 q 830 328 858 292 q 753 363 802 363 q 675 328 703 363 q 648 242 648 292 l 648 189 m 311 75 l 237 120 l 719 892 l 793 846 l 311 75 z "},"&":{"ha":865,"x_min":43,"x_max":836,"o":"m 43 266 q 91 411 43 349 q 234 535 139 473 q 155 655 181 602 q 130 763 130 707 q 196 940 130 878 q 378 1002 262 1002 q 552 940 485 1002 q 619 791 619 878 q 584 676 619 725 q 478 577 548 628 l 404 523 l 635 245 q 678 343 663 290 q 694 456 694 397 l 813 456 q 787 291 813 367 q 710 155 760 215 l 836 3 l 834 0 l 679 0 l 621 69 q 501 7 567 28 q 365 -14 435 -14 q 131 64 218 -14 q 43 266 43 142 m 365 90 q 461 107 414 90 q 551 155 509 123 l 306 450 l 279 430 q 197 342 217 384 q 177 266 177 300 q 225 140 177 189 q 365 90 273 90 m 263 764 q 281 689 263 728 q 336 604 300 650 l 430 669 q 483 725 469 694 q 496 791 496 755 q 464 865 496 833 q 378 897 431 897 q 293 858 323 897 q 263 764 263 820 z "},"'":{"ha":243,"x_min":54,"x_max":189,"o":"m 189 907 l 120 715 l 54 715 l 55 895 l 55 1058 l 189 1058 l 189 907 z "},"(":{"ha":460,"x_min":90,"x_max":454,"o":"m 90 401 q 197 857 90 668 q 424 1109 305 1046 l 428 1109 l 454 1030 q 292 798 361 958 q 223 402 223 637 l 223 393 q 292 -2 223 158 q 454 -241 360 -162 l 428 -314 l 424 -314 q 197 -62 305 -251 q 90 395 90 127 l 90 401 z "},")":{"ha":466,"x_min":4,"x_max":368,"o":"m 368 395 q 260 -62 368 127 q 34 -314 152 -251 l 30 -314 l 4 -241 q 165 -6 96 -170 q 235 393 235 157 l 235 402 q 163 798 235 634 q 4 1036 92 962 l 30 1109 l 34 1109 q 260 857 152 1046 q 368 401 368 668 l 368 395 z "},"*":{"ha":600,"x_min":19,"x_max":580,"o":"m 220 666 l 19 726 l 52 831 l 253 755 l 246 987 l 355 987 l 349 751 l 547 826 l 580 720 l 375 660 l 506 477 l 417 412 l 294 606 l 175 417 l 85 480 l 220 666 z "},"+":{"ha":788,"x_min":53,"x_max":730,"o":"m 459 531 l 730 531 l 730 410 l 459 410 l 459 99 l 326 99 l 326 410 l 53 410 l 53 531 l 326 531 l 326 818 l 459 818 l 459 531 z "},",":{"ha":274,"x_min":33,"x_max":214,"o":"m 214 33 l 112 -175 l 33 -175 l 80 39 l 80 150 l 214 150 l 214 33 z "},"-":{"ha":380,"x_min":24,"x_max":356,"o":"m 356 365 l 24 365 l 24 469 l 356 469 l 356 365 z "},".":{"ha":372,"x_min":109,"x_max":243,"o":"m 243 0 l 109 0 l 109 137 l 243 137 l 243 0 z "},"/":{"ha":576,"x_min":11,"x_max":536,"o":"m 125 -85 l 11 -85 l 423 987 l 536 987 l 125 -85 z "},":":{"ha":351,"x_min":109,"x_max":243,"o":"m 243 0 l 109 0 l 109 137 l 243 137 l 243 0 m 243 594 l 109 594 l 109 731 l 243 731 l 243 594 z "},";":{"ha":356,"x_min":67,"x_max":248,"o":"m 243 594 l 110 594 l 110 731 l 243 731 l 243 594 m 248 33 l 146 -175 l 67 -175 l 115 39 l 115 150 l 248 150 l 248 33 z "},"<":{"ha":705,"x_min":48,"x_max":602,"o":"m 222 379 l 165 367 l 165 363 l 222 350 l 602 195 l 602 59 l 48 316 l 48 417 l 602 673 l 602 537 l 222 379 z "},"=":{"ha":782,"x_min":103,"x_max":669,"o":"m 669 558 l 103 558 l 103 669 l 669 669 l 669 558 m 669 276 l 103 276 l 103 387 l 669 387 l 669 276 z "},">":{"ha":727,"x_min":92,"x_max":673,"o":"m 92 541 l 92 673 l 673 417 l 673 316 l 92 59 l 92 192 l 498 353 l 555 365 l 555 369 l 498 382 l 92 541 z "},"?":{"ha":661,"x_min":39,"x_max":601,"o":"m 241 278 q 258 414 241 376 q 343 515 274 452 q 439 637 410 594 q 467 740 467 680 q 429 850 467 812 q 319 889 391 889 q 214 856 258 889 q 171 757 171 822 l 43 757 l 41 761 q 118 936 39 870 q 319 1002 197 1002 q 527 933 453 1002 q 601 743 601 865 q 553 583 601 656 q 427 435 505 511 q 382 369 390 398 q 374 278 374 340 l 241 278 m 379 0 l 239 0 l 239 141 l 379 141 l 379 0 z "},"@":{"ha":1243,"x_min":65,"x_max":1186,"o":"m 1175 340 q 1093 91 1168 195 q 868 -14 1018 -14 q 783 14 819 -14 q 731 94 747 42 q 648 13 697 39 q 534 -14 600 -14 q 403 67 450 -14 q 368 282 356 149 q 461 564 384 458 q 651 670 539 670 q 766 652 722 670 q 860 598 809 635 l 857 595 l 861 595 l 827 199 q 841 96 821 124 q 897 68 862 68 q 1030 145 980 68 q 1086 340 1080 222 q 988 744 1097 600 q 652 889 880 889 q 316 732 443 889 q 178 324 189 576 q 280 -79 166 69 q 607 -227 394 -227 q 728 -213 667 -227 q 831 -174 789 -198 l 857 -247 q 742 -291 812 -275 q 604 -307 671 -307 q 206 -138 347 -307 q 77 324 65 31 q 246 791 90 611 q 654 970 402 970 q 1049 801 911 970 q 1175 340 1186 631 m 488 282 q 503 136 481 186 q 575 85 525 85 q 654 102 618 85 q 720 161 690 119 q 720 179 720 170 q 722 199 720 188 l 753 564 q 716 576 736 572 q 676 581 697 581 q 547 507 591 581 q 488 282 502 433 z "},"A":{"ha":899,"x_min":14,"x_max":886,"o":"m 657 254 l 243 254 l 150 0 l 14 0 l 395 987 l 510 987 l 886 0 l 749 0 l 657 254 m 285 366 l 617 366 l 454 816 l 450 816 l 285 366 z "},"B":{"ha":888,"x_min":122,"x_max":813,"o":"m 122 0 l 122 987 l 444 987 q 686 921 599 987 q 774 720 774 854 q 732 603 774 654 q 621 526 690 551 q 762 438 711 507 q 813 279 813 370 q 725 72 813 143 q 487 0 637 0 l 122 0 m 256 463 l 256 104 l 487 104 q 629 150 578 104 q 680 277 680 195 q 637 414 680 364 q 507 463 595 463 l 256 463 m 256 568 l 472 568 q 593 609 547 568 q 640 723 640 650 q 590 843 640 803 q 444 882 539 882 l 256 882 l 256 568 z "},"C":{"ha":880,"x_min":80,"x_max":824,"o":"m 820 316 l 821 312 q 724 79 824 173 q 458 -14 623 -14 q 185 104 291 -14 q 80 406 80 223 l 80 581 q 185 883 80 764 q 458 1002 291 1002 q 725 912 626 1002 q 821 676 824 823 l 820 672 l 692 672 q 631 836 692 776 q 458 897 570 897 q 280 806 347 897 q 214 583 214 716 l 214 406 q 280 180 214 271 q 458 90 347 90 q 631 150 570 90 q 692 316 692 210 l 820 316 z "},"D":{"ha":915,"x_min":122,"x_max":854,"o":"m 122 0 l 122 987 l 425 987 q 736 868 619 987 q 854 561 854 749 l 854 426 q 736 118 854 237 q 425 0 619 0 l 122 0 m 256 882 l 256 104 l 425 104 q 641 195 562 104 q 720 426 720 285 l 720 562 q 641 792 720 702 q 425 882 562 882 l 256 882 z "},"E":{"ha":812,"x_min":122,"x_max":777,"o":"m 708 458 l 256 458 l 256 104 l 777 104 l 777 0 l 122 0 l 122 987 l 770 987 l 770 882 l 256 882 l 256 563 l 708 563 l 708 458 z "},"F":{"ha":809,"x_min":122,"x_max":775,"o":"m 706 437 l 256 437 l 256 0 l 122 0 l 122 987 l 775 987 l 775 882 l 256 882 l 256 542 l 706 542 l 706 437 z "},"G":{"ha":947,"x_min":81,"x_max":838,"o":"m 838 131 q 715 31 802 77 q 490 -14 628 -14 q 197 99 313 -14 q 81 392 81 212 l 81 595 q 189 888 81 775 q 467 1002 297 1002 q 734 918 637 1002 q 833 703 831 835 l 831 699 l 704 699 q 638 841 698 785 q 467 897 579 897 q 285 812 354 897 q 216 597 216 727 l 216 392 q 293 175 216 260 q 490 90 370 90 q 627 113 574 90 q 704 163 681 135 l 704 388 l 488 388 l 488 493 l 838 493 l 838 131 z "},"H":{"ha":991,"x_min":122,"x_max":869,"o":"m 869 0 l 735 0 l 735 436 l 256 436 l 256 0 l 122 0 l 122 987 l 256 987 l 256 541 l 735 541 l 735 987 l 869 987 l 869 0 z "},"I":{"ha":393,"x_min":129,"x_max":263,"o":"m 263 0 l 129 0 l 129 987 l 263 987 l 263 0 z "},"J":{"ha":766,"x_min":41,"x_max":653,"o":"m 519 987 l 653 987 l 653 273 q 569 63 653 141 q 352 -14 486 -14 q 125 58 210 -14 q 45 268 41 130 l 46 272 l 174 272 q 221 135 174 180 q 352 90 267 90 q 473 140 426 90 q 519 273 519 190 l 519 987 z "},"K":{"ha":893,"x_min":122,"x_max":890,"o":"m 371 446 l 256 446 l 256 0 l 122 0 l 122 987 l 256 987 l 256 551 l 359 551 l 712 987 l 860 987 l 862 984 l 479 510 l 890 3 l 888 0 l 728 0 l 371 446 z "},"L":{"ha":750,"x_min":122,"x_max":723,"o":"m 256 104 l 723 104 l 723 0 l 122 0 l 122 987 l 256 987 l 256 104 z "},"M":{"ha":1220,"x_min":122,"x_max":1097,"o":"m 293 987 l 608 185 l 612 185 l 926 987 l 1097 987 l 1097 0 l 964 0 l 964 391 l 977 792 l 974 793 l 654 0 l 565 0 l 246 791 l 243 790 l 256 391 l 256 0 l 122 0 l 122 987 l 293 987 z "},"N":{"ha":991,"x_min":122,"x_max":869,"o":"m 869 0 l 735 0 l 260 764 l 256 762 l 256 0 l 122 0 l 122 987 l 256 987 l 731 225 l 735 227 l 735 987 l 869 987 l 869 0 z "},"O":{"ha":947,"x_min":77,"x_max":869,"o":"m 869 406 q 757 105 869 224 q 466 -14 645 -14 q 185 105 293 -14 q 77 406 77 224 l 77 581 q 185 882 77 762 q 466 1002 293 1002 q 757 882 645 1002 q 869 581 869 762 l 869 406 m 736 583 q 663 805 736 718 q 466 892 589 892 q 280 805 349 892 q 210 583 210 718 l 210 406 q 280 182 210 269 q 466 95 349 95 q 663 181 590 95 q 736 406 736 268 l 736 583 z "},"P":{"ha":890,"x_min":122,"x_max":833,"o":"m 256 396 l 256 0 l 122 0 l 122 987 l 500 987 q 745 906 658 987 q 833 692 833 825 q 745 476 833 557 q 500 396 658 396 l 256 396 m 256 500 l 500 500 q 650 554 600 500 q 699 690 699 608 q 649 827 699 772 q 500 882 600 882 l 256 882 l 256 500 z "},"Q":{"ha":947,"x_min":77,"x_max":908,"o":"m 869 406 q 836 227 869 309 q 741 88 802 145 l 908 -70 l 817 -157 l 629 17 q 550 -6 591 1 q 466 -14 509 -14 q 185 105 293 -14 q 77 406 77 224 l 77 581 q 185 882 77 762 q 466 1002 293 1002 q 757 882 645 1002 q 869 581 869 762 l 869 406 m 736 583 q 663 805 736 718 q 466 892 589 892 q 280 805 349 892 q 210 583 210 718 l 210 406 q 280 182 210 269 q 466 95 349 95 q 663 181 590 95 q 736 406 736 268 l 736 583 z "},"R":{"ha":920,"x_min":122,"x_max":855,"o":"m 256 428 l 256 0 l 122 0 l 122 987 l 479 987 q 727 915 642 987 q 812 706 812 843 q 773 574 812 630 q 657 484 733 517 q 774 398 739 458 q 810 252 810 339 l 810 159 q 820 76 810 113 q 855 16 830 39 l 855 0 l 718 0 q 684 68 691 23 q 676 160 676 113 l 676 250 q 629 379 676 330 q 504 428 583 428 l 256 428 m 256 533 l 466 533 q 629 576 579 533 q 679 707 679 619 q 630 837 679 791 q 479 882 582 882 l 256 882 l 256 533 z "},"S":{"ha":866,"x_min":66,"x_max":793,"o":"m 660 249 q 609 362 660 317 q 429 439 558 408 q 184 549 272 477 q 96 732 96 622 q 191 924 96 847 q 436 1002 286 1002 q 694 913 598 1002 q 787 707 790 824 l 785 703 l 658 703 q 601 843 658 789 q 436 897 543 897 q 283 851 336 897 q 230 734 230 806 q 288 626 230 669 q 475 551 345 583 q 712 437 631 512 q 793 250 793 361 q 696 58 793 131 q 441 -14 598 -14 q 179 66 293 -14 q 69 280 66 146 l 71 284 l 198 284 q 268 140 198 189 q 441 90 338 90 q 601 133 542 90 q 660 249 660 176 z "},"T":{"ha":814,"x_min":23,"x_max":791,"o":"m 791 882 l 473 882 l 473 0 l 340 0 l 340 882 l 23 882 l 23 987 l 791 987 l 791 882 z "},"U":{"ha":940,"x_min":100,"x_max":844,"o":"m 844 987 l 844 318 q 739 71 844 157 q 465 -14 634 -14 q 201 72 302 -14 q 100 318 100 157 l 100 987 l 233 987 l 233 318 q 297 148 233 206 q 465 90 361 90 q 643 148 575 90 q 710 318 710 206 l 710 987 l 844 987 z "},"V":{"ha":878,"x_min":15,"x_max":863,"o":"m 415 245 l 437 168 l 441 168 l 464 245 l 719 987 l 863 987 l 496 0 l 382 0 l 15 987 l 160 987 l 415 245 z "},"W":{"ha":1227,"x_min":37,"x_max":1182,"o":"m 320 342 l 338 218 l 342 218 l 369 342 l 550 987 l 668 987 l 850 342 l 878 215 l 882 215 l 901 342 l 1048 987 l 1182 987 l 944 0 l 825 0 l 630 685 l 612 774 l 608 774 l 591 685 l 393 0 l 274 0 l 37 987 l 170 987 l 320 342 z "},"X":{"ha":878,"x_min":45,"x_max":840,"o":"m 441 602 l 671 987 l 833 987 l 519 498 l 840 0 l 680 0 l 444 392 l 206 0 l 45 0 l 365 498 l 52 987 l 212 987 l 441 602 z "},"Y":{"ha":848,"x_min":14,"x_max":834,"o":"m 424 486 l 682 987 l 834 987 l 488 347 l 488 0 l 355 0 l 355 356 l 14 987 l 166 987 l 424 486 z "},"Z":{"ha":831,"x_min":66,"x_max":768,"o":"m 216 104 l 768 104 l 768 0 l 66 0 l 66 99 l 593 882 l 73 882 l 73 987 l 746 987 l 746 892 l 216 104 z "},"[":{"ha":374,"x_min":97,"x_max":358,"o":"m 358 1023 l 231 1023 l 231 -106 l 358 -106 l 358 -212 l 97 -212 l 97 1128 l 358 1128 l 358 1023 z "},"\\":{"ha":574,"x_min":26,"x_max":565,"o":"m 26 987 l 153 987 l 565 -85 l 439 -85 l 26 987 z "},"]":{"ha":374,"x_min":7,"x_max":269,"o":"m 7 1128 l 269 1128 l 269 -212 l 7 -212 l 7 -106 l 136 -106 l 136 1023 l 7 1023 l 7 1128 z "},"^":{"ha":581,"x_min":41,"x_max":537,"o":"m 165 494 l 41 494 l 244 987 l 335 987 l 537 494 l 414 494 l 302 779 l 291 826 l 287 826 l 276 779 l 165 494 z "},"_":{"ha":631,"x_min":3,"x_max":629,"o":"m 629 -104 l 3 -104 l 3 0 l 629 0 l 629 -104 z "},"`":{"ha":435,"x_min":56,"x_max":332,"o":"m 332 821 l 225 821 l 56 998 l 58 1002 l 214 1002 l 332 821 z "},"a":{"ha":764,"x_min":72,"x_max":686,"o":"m 548 0 q 537 59 541 33 q 533 110 534 84 q 436 21 496 57 q 307 -14 376 -14 q 132 44 192 -14 q 72 206 72 103 q 157 371 72 311 q 388 430 242 430 l 533 430 l 533 503 q 494 605 533 567 q 382 642 454 642 q 278 609 318 642 q 237 530 237 576 l 110 530 l 109 534 q 184 681 104 614 q 390 747 264 747 q 591 684 515 747 q 667 501 667 621 l 667 148 q 671 72 667 109 q 686 0 675 35 l 548 0 m 326 98 q 457 135 399 98 q 533 220 515 172 l 533 340 l 383 340 q 254 299 302 340 q 205 203 205 258 q 236 126 205 155 q 326 98 267 98 z "},"b":{"ha":789,"x_min":97,"x_max":724,"o":"m 724 339 q 647 83 724 180 q 437 -14 571 -14 q 311 14 365 -14 q 222 97 258 42 l 206 0 l 97 0 l 97 1058 l 231 1058 l 231 647 q 316 722 265 696 q 436 747 368 747 q 648 639 572 747 q 724 353 724 530 l 724 339 m 590 353 q 544 559 590 479 q 402 639 497 639 q 298 609 340 639 q 231 528 256 578 l 231 210 q 298 125 256 155 q 404 94 340 94 q 544 161 498 94 q 590 339 590 229 l 590 353 z "},"c":{"ha":737,"x_min":66,"x_max":688,"o":"m 395 90 q 512 131 462 90 q 563 232 563 172 l 683 232 l 684 228 q 600 59 688 133 q 395 -14 512 -14 q 151 90 235 -14 q 66 353 66 195 l 66 381 q 151 643 66 538 q 395 747 236 747 q 606 671 524 747 q 685 485 688 595 l 684 481 l 563 481 q 515 595 563 548 q 395 642 468 642 q 245 567 290 642 q 200 381 200 491 l 200 353 q 245 165 200 240 q 395 90 290 90 z "},"d":{"ha":789,"x_min":66,"x_max":687,"o":"m 66 353 q 142 639 66 530 q 354 747 218 747 q 468 724 418 747 q 553 654 518 700 l 553 1058 l 687 1058 l 687 0 l 578 0 l 562 90 q 474 12 526 39 q 353 -14 422 -14 q 142 83 218 -14 q 66 339 66 180 l 66 353 m 200 339 q 245 161 200 228 q 387 94 291 94 q 487 121 446 94 q 553 197 528 149 l 553 540 q 487 612 528 585 q 388 639 446 639 q 246 559 292 639 q 200 353 200 480 l 200 339 z "},"e":{"ha":734,"x_min":67,"x_max":682,"o":"m 401 -14 q 158 88 248 -14 q 67 353 67 190 l 67 382 q 160 643 67 539 q 381 747 254 747 q 606 658 530 747 q 682 419 682 568 l 682 336 l 205 336 l 203 332 q 257 158 205 227 q 401 90 309 90 q 520 110 469 90 q 609 163 572 129 l 661 76 q 557 12 622 37 q 401 -14 493 -14 m 381 642 q 267 586 314 642 q 208 444 219 529 l 210 440 l 548 440 l 548 458 q 506 589 548 536 q 381 642 464 642 z "},"f":{"ha":479,"x_min":38,"x_max":484,"o":"m 153 0 l 153 635 l 38 635 l 38 734 l 153 734 l 153 827 q 214 1008 153 944 q 385 1072 275 1072 q 432 1068 408 1072 q 484 1058 455 1065 l 467 956 q 438 961 455 959 q 401 963 420 963 q 315 928 343 963 q 286 827 286 893 l 286 734 l 439 734 l 439 635 l 286 635 l 286 0 l 153 0 z "},"g":{"ha":789,"x_min":68,"x_max":692,"o":"m 68 353 q 145 639 68 530 q 359 747 222 747 q 481 719 429 747 q 570 638 534 691 l 586 734 l 692 734 l 692 -4 q 610 -221 692 -145 q 374 -296 528 -296 q 259 -282 321 -296 q 151 -242 198 -267 l 185 -138 q 272 -171 221 -159 q 372 -184 323 -184 q 514 -139 470 -184 q 559 -4 559 -95 l 559 79 q 473 9 523 33 q 357 -14 422 -14 q 145 83 222 -14 q 68 339 68 181 l 68 353 m 201 339 q 248 161 201 229 q 391 94 295 94 q 492 122 451 94 q 559 199 532 149 l 559 537 q 492 611 533 584 q 392 639 450 639 q 249 559 296 639 q 201 353 201 479 l 201 339 z "},"h":{"ha":789,"x_min":97,"x_max":694,"o":"m 231 635 q 324 718 269 688 q 446 747 379 747 q 629 677 564 747 q 694 460 694 606 l 694 0 l 561 0 l 561 461 q 522 595 561 552 q 406 639 483 639 q 305 613 350 639 q 231 542 260 587 l 231 0 l 97 0 l 97 1058 l 231 1058 l 231 635 z "},"i":{"ha":350,"x_min":108,"x_max":241,"o":"m 241 0 l 108 0 l 108 734 l 241 734 l 241 0 m 241 922 l 108 922 l 108 1058 l 241 1058 l 241 922 z "},"j":{"ha":359,"x_min":-45,"x_max":251,"o":"m 251 734 l 251 -60 q 193 -235 251 -174 q 31 -296 134 -296 q -8 -293 9 -296 q -45 -284 -25 -290 l -35 -179 q -8 -185 -26 -182 q 21 -187 9 -187 q 91 -157 65 -187 q 117 -60 117 -127 l 117 734 l 251 734 m 247 924 l 113 924 l 113 1058 l 247 1058 l 247 924 z "},"k":{"ha":712,"x_min":98,"x_max":713,"o":"m 318 338 l 231 338 l 231 0 l 98 0 l 98 1058 l 231 1058 l 231 445 l 317 445 l 517 734 l 677 734 l 427 400 l 713 0 l 556 0 l 318 338 z "},"l":{"ha":350,"x_min":108,"x_max":241,"o":"m 241 0 l 108 0 l 108 1058 l 241 1058 l 241 0 z "},"m":{"ha":1214,"x_min":97,"x_max":1117,"o":"m 216 734 l 226 637 q 317 719 262 690 q 446 747 372 747 q 571 713 519 747 q 650 612 624 680 q 742 711 685 674 q 875 747 799 747 q 1052 670 987 747 q 1117 439 1117 593 l 1117 0 l 983 0 l 983 440 q 946 594 983 549 q 835 639 909 639 q 724 591 766 639 q 674 471 682 544 l 674 466 l 674 0 l 540 0 l 540 440 q 502 591 540 543 q 391 639 463 639 q 291 614 330 639 q 231 543 252 589 l 231 0 l 97 0 l 97 734 l 216 734 z "},"n":{"ha":789,"x_min":97,"x_max":692,"o":"m 216 734 l 226 625 q 318 715 262 683 q 444 747 373 747 q 627 678 562 747 q 692 463 692 608 l 692 0 l 559 0 l 559 460 q 520 598 559 557 q 404 639 482 639 q 301 611 346 639 q 231 535 257 583 l 231 0 l 97 0 l 97 734 l 216 734 z "},"o":{"ha":789,"x_min":66,"x_max":723,"o":"m 66 374 q 154 642 66 536 q 393 747 242 747 q 634 642 546 747 q 723 374 723 537 l 723 359 q 635 90 723 195 q 395 -14 547 -14 q 154 91 243 -14 q 66 359 66 195 l 66 374 m 199 359 q 249 166 199 242 q 395 90 298 90 q 540 166 490 90 q 589 359 589 242 l 589 374 q 539 566 589 489 q 393 642 490 642 q 249 566 298 642 q 199 374 199 489 l 199 359 z "},"p":{"ha":789,"x_min":97,"x_max":722,"o":"m 722 339 q 646 83 722 180 q 437 -14 570 -14 q 318 8 369 -14 q 231 77 267 31 l 231 -282 l 97 -282 l 97 734 l 199 734 l 220 639 q 310 720 256 692 q 435 747 363 747 q 647 639 571 747 q 722 353 722 531 l 722 339 m 589 353 q 539 558 589 478 q 395 639 490 639 q 296 613 337 639 q 231 541 256 587 l 231 186 q 296 116 256 141 q 396 90 337 90 q 540 160 491 90 q 589 339 589 229 l 589 353 z "},"q":{"ha":789,"x_min":66,"x_max":680,"o":"m 66 353 q 142 639 66 530 q 354 747 218 747 q 472 722 421 747 q 558 648 523 696 l 578 734 l 680 734 l 680 -282 l 546 -282 l 546 69 q 463 7 511 28 q 353 -14 414 -14 q 142 83 218 -14 q 66 339 66 180 l 66 353 m 200 339 q 246 159 200 228 q 387 90 292 90 q 480 115 441 90 q 546 183 519 139 l 546 553 q 480 618 519 595 q 388 642 441 642 q 246 561 292 642 q 200 353 200 480 l 200 339 z "},"r":{"ha":476,"x_min":97,"x_max":463,"o":"m 444 616 l 376 620 q 287 595 323 620 q 231 524 250 570 l 231 0 l 97 0 l 97 734 l 216 734 l 229 627 q 306 715 260 684 q 412 747 352 747 q 440 745 427 747 q 463 740 454 743 l 444 616 z "},"s":{"ha":726,"x_min":70,"x_max":657,"o":"m 524 195 q 490 267 524 239 q 363 317 456 296 q 162 396 229 346 q 94 532 94 446 q 170 684 94 621 q 368 747 246 747 q 572 682 496 747 q 644 522 648 616 l 643 517 l 515 517 q 475 604 515 566 q 368 642 435 642 q 262 611 297 642 q 228 536 228 580 q 258 467 228 492 q 382 422 289 442 q 589 341 522 393 q 657 204 657 290 q 578 46 657 106 q 372 -14 499 -14 q 151 57 231 -14 q 74 223 70 128 l 75 227 l 203 227 q 256 123 206 156 q 372 90 305 90 q 483 119 443 90 q 524 195 524 148 z "},"t":{"ha":480,"x_min":23,"x_max":419,"o":"m 273 911 l 273 734 l 412 734 l 412 635 l 273 635 l 273 189 q 295 117 273 138 q 351 96 316 96 q 377 98 363 96 q 401 105 391 101 l 419 14 q 375 -6 404 1 q 317 -14 347 -14 q 188 35 236 -14 q 140 189 140 84 l 140 635 l 23 635 l 23 734 l 140 734 l 140 911 l 273 911 z "},"u":{"ha":789,"x_min":94,"x_max":692,"o":"m 563 109 q 474 18 528 50 q 349 -14 420 -14 q 161 62 229 -14 q 94 301 94 139 l 94 734 l 228 734 l 228 300 q 262 138 228 182 q 370 94 297 94 q 488 123 441 94 q 558 205 534 152 l 558 734 l 692 734 l 692 0 l 572 0 l 563 109 z "},"v":{"ha":699,"x_min":31,"x_max":675,"o":"m 342 216 l 353 165 l 357 165 l 370 216 l 539 734 l 675 734 l 406 0 l 304 0 l 31 734 l 168 734 l 342 216 z "},"w":{"ha":1051,"x_min":31,"x_max":1017,"o":"m 285 267 l 300 178 l 304 178 l 323 267 l 470 734 l 577 734 l 724 267 l 745 168 l 749 168 l 769 267 l 884 734 l 1017 734 l 804 0 l 696 0 l 555 447 l 524 572 l 520 571 l 491 447 l 351 0 l 243 0 l 31 734 l 163 734 l 285 267 z "},"x":{"ha":699,"x_min":31,"x_max":665,"o":"m 346 463 l 502 734 l 658 734 l 420 371 l 665 0 l 511 0 l 349 277 l 186 0 l 31 0 l 276 371 l 38 734 l 192 734 l 346 463 z "},"y":{"ha":699,"x_min":18,"x_max":678,"o":"m 321 272 l 345 180 l 349 180 l 530 734 l 678 734 l 370 -113 q 290 -241 342 -186 q 150 -296 238 -296 q 109 -293 134 -296 q 70 -286 83 -289 l 83 -180 q 107 -182 79 -180 q 143 -184 136 -184 q 213 -146 186 -184 q 258 -62 240 -108 l 290 15 l 18 734 l 167 734 l 321 272 z "},"z":{"ha":699,"x_min":64,"x_max":647,"o":"m 223 104 l 647 104 l 647 0 l 64 0 l 64 94 l 460 628 l 68 628 l 68 734 l 624 734 l 624 643 l 223 104 z "},"{":{"ha":472,"x_min":43,"x_max":455,"o":"m 428 -247 q 240 -128 296 -210 q 184 68 184 -47 l 184 208 q 150 326 184 283 q 43 368 115 368 l 43 468 q 150 510 115 468 q 184 628 184 551 l 184 768 q 240 965 184 884 q 428 1083 296 1046 l 455 1004 q 349 919 380 980 q 318 768 318 857 l 318 628 q 289 503 318 557 q 203 418 260 448 q 289 332 260 387 q 318 208 318 277 l 318 68 q 349 -82 318 -21 q 455 -167 380 -142 l 428 -247 z "},"|":{"ha":344,"x_min":119,"x_max":226,"o":"m 226 -183 l 119 -183 l 119 987 l 226 987 l 226 -183 z "},"}":{"ha":472,"x_min":14,"x_max":427,"o":"m 14 -167 q 120 -82 88 -142 q 152 68 152 -21 l 152 208 q 182 334 152 280 q 277 418 213 389 q 182 500 213 446 q 152 628 152 554 l 152 768 q 120 919 152 857 q 14 1004 88 980 l 42 1083 q 230 965 174 1046 q 286 768 286 884 l 286 628 q 320 510 286 551 q 427 468 354 468 l 427 368 q 320 326 354 368 q 286 208 286 283 l 286 68 q 230 -128 286 -47 q 42 -247 174 -210 l 14 -167 z "},"~":{"ha":943,"x_min":87,"x_max":857,"o":"m 857 502 q 798 340 857 409 q 651 272 739 272 q 540 294 590 272 q 433 367 490 317 q 359 416 393 399 q 292 432 326 432 q 215 396 247 432 q 182 309 182 360 l 87 321 q 145 479 87 414 q 292 545 203 545 q 403 521 352 545 q 511 450 454 498 q 583 400 551 416 q 651 385 616 385 q 729 423 696 385 q 762 514 762 462 l 857 502 z "}," ":{"ha":345,"x_min":0,"x_max":0,"o":""},"¡":{"ha":344,"x_min":98,"x_max":231,"o":"m 231 -254 l 98 -254 l 98 410 l 231 410 l 231 -254 m 231 594 l 98 594 l 98 734 l 231 734 l 231 594 z "},"¢":{"ha":761,"x_min":73,"x_max":694,"o":"m 402 90 q 519 131 469 90 q 570 232 570 172 l 690 232 l 692 228 q 626 77 694 145 q 458 -9 557 8 l 458 -166 l 324 -166 l 324 -6 q 137 117 201 18 q 73 353 73 216 l 73 381 q 137 615 73 516 q 324 739 201 713 l 324 894 l 458 894 l 458 743 q 630 654 565 726 q 692 484 694 582 l 691 481 l 570 481 q 522 595 570 548 q 402 642 475 642 q 252 567 297 642 q 207 381 207 491 l 207 353 q 252 165 207 240 q 402 90 296 90 z "},"£":{"ha":810,"x_min":47,"x_max":753,"o":"m 292 417 l 296 316 q 285 200 296 255 q 255 104 275 144 l 753 104 l 753 0 l 91 0 l 91 104 l 98 104 q 146 180 130 113 q 163 316 163 246 l 159 417 l 47 417 l 47 522 l 155 522 l 148 705 q 224 923 148 844 q 427 1002 300 1002 q 637 931 563 1002 q 709 743 712 860 l 708 739 l 579 739 q 536 858 579 819 q 427 897 494 897 q 321 846 360 897 q 281 705 281 795 l 288 522 l 572 522 l 572 417 l 292 417 z "},"¤":{"ha":987,"x_min":71,"x_max":929,"o":"m 744 73 q 629 9 692 31 q 498 -14 566 -14 q 367 8 429 -14 q 253 72 304 31 l 165 -18 l 71 76 l 164 171 q 112 284 130 222 q 94 412 94 345 q 114 545 94 481 q 170 662 133 609 l 71 763 l 165 857 l 262 758 q 372 816 312 795 q 498 837 433 837 q 624 816 564 837 q 735 757 684 795 l 834 858 l 929 763 l 827 659 q 882 544 863 606 q 901 412 901 481 q 883 285 901 346 q 833 173 865 224 l 929 76 l 834 -18 l 744 73 m 218 412 q 299 195 218 285 q 498 105 381 105 q 695 195 613 105 q 777 412 777 285 q 695 628 777 538 q 498 718 613 718 q 299 628 381 718 q 218 412 218 538 z "},"¥":{"ha":843,"x_min":20,"x_max":813,"o":"m 417 538 l 661 987 l 813 987 l 530 500 l 741 500 l 741 395 l 481 395 l 481 304 l 741 304 l 741 199 l 481 199 l 481 0 l 348 0 l 348 199 l 94 199 l 94 304 l 348 304 l 348 395 l 94 395 l 94 500 l 304 500 l 20 987 l 174 987 l 417 538 z "},"¦":{"ha":338,"x_min":98,"x_max":232,"o":"m 98 -183 l 98 354 l 232 354 l 232 -183 l 98 -183 m 232 473 l 98 473 l 98 987 l 232 987 l 232 473 z "},"§":{"ha":854,"x_min":61,"x_max":779,"o":"m 779 292 q 746 181 779 229 q 654 106 713 134 q 725 26 701 72 q 749 -87 749 -20 q 659 -270 749 -203 q 416 -336 568 -336 q 163 -266 266 -336 q 64 -47 61 -197 l 66 -43 l 193 -42 q 259 -185 193 -139 q 416 -231 324 -231 q 562 -190 509 -231 q 615 -88 615 -150 q 566 8 615 -26 q 379 85 517 42 q 140 191 217 127 q 64 374 64 254 q 96 483 64 435 q 186 559 127 531 q 117 640 140 593 q 94 753 94 687 q 185 933 94 865 q 428 1002 276 1002 q 674 926 586 1002 q 760 713 762 850 l 758 709 l 630 709 q 576 843 630 789 q 428 897 523 897 q 279 856 330 897 q 228 754 228 816 q 273 653 228 687 q 462 581 319 620 q 703 472 627 534 q 779 292 779 411 m 409 467 q 349 484 377 475 q 296 503 321 492 q 222 456 247 490 q 197 375 197 422 q 243 272 197 307 q 432 197 290 237 q 495 178 470 186 q 543 163 520 171 q 618 210 591 176 q 646 290 646 243 q 596 388 646 352 q 409 467 546 425 z "},"¨":{"ha":692,"x_min":115,"x_max":583,"o":"m 583 852 l 434 852 l 434 987 l 583 987 l 583 852 m 264 852 l 115 852 l 115 987 l 264 987 l 264 852 z "},"©":{"ha":1088,"x_min":60,"x_max":1022,"o":"m 753 404 l 755 400 q 698 244 758 298 q 532 191 638 191 q 359 263 423 191 q 296 454 296 336 l 296 534 q 359 724 296 652 q 532 797 423 797 q 698 743 638 797 q 755 589 758 690 l 754 585 l 655 585 q 624 679 655 649 q 532 708 593 708 q 433 660 468 708 q 399 535 399 612 l 399 454 q 433 327 399 374 q 532 279 468 279 q 624 309 593 279 q 654 404 654 338 l 753 404 m 142 494 q 258 191 142 315 q 541 68 374 68 q 824 191 707 68 q 941 494 941 315 q 824 795 941 673 q 541 918 707 918 q 258 795 374 918 q 142 494 142 673 m 60 494 q 200 854 60 708 q 541 1001 340 1001 q 882 854 741 1001 q 1022 494 1022 708 q 881 133 1022 280 q 541 -14 741 -14 q 200 133 340 -14 q 60 494 60 280 z "},"ª":{"ha":622,"x_min":81,"x_max":534,"o":"m 416 479 q 407 509 410 493 q 401 543 404 526 q 341 490 379 511 q 250 469 302 469 q 125 511 170 469 q 81 624 81 552 q 139 739 81 699 q 305 780 196 780 l 399 780 l 399 815 q 379 881 399 858 q 319 904 359 904 q 249 886 274 904 q 224 834 224 867 l 115 843 l 114 847 q 167 958 110 913 q 319 1002 224 1002 q 463 954 410 1002 q 516 814 516 905 l 516 602 q 520 538 516 568 q 534 479 524 508 l 416 479 m 279 564 q 350 584 313 564 q 399 628 387 604 l 399 703 l 306 703 q 227 680 255 703 q 199 627 199 658 q 218 580 199 596 q 279 564 238 564 z "},"«":{"ha":655,"x_min":66,"x_max":593,"o":"m 194 350 l 367 80 l 267 80 l 66 344 l 66 357 l 267 621 l 367 621 l 194 350 m 420 350 l 593 80 l 493 80 l 293 344 l 293 357 l 493 621 l 593 621 l 420 350 z "},"¬":{"ha":771,"x_min":86,"x_max":652,"o":"m 652 254 l 518 254 l 518 432 l 86 432 l 86 544 l 652 544 l 652 254 z "},"­":{"ha":380,"x_min":24,"x_max":356,"o":"m 356 365 l 24 365 l 24 469 l 356 469 l 356 365 z "},"®":{"ha":1088,"x_min":60,"x_max":1022,"o":"m 60 494 q 200 854 60 708 q 541 1001 340 1001 q 882 854 741 1001 q 1022 494 1022 708 q 881 133 1022 280 q 541 -14 741 -14 q 200 133 340 -14 q 60 494 60 280 m 142 494 q 258 191 142 314 q 541 68 374 68 q 823 191 707 68 q 940 494 940 315 q 824 796 940 673 q 541 918 707 918 q 258 796 374 918 q 142 494 142 673 m 443 444 l 443 214 l 342 214 l 342 791 l 532 791 q 693 746 635 791 q 752 616 752 702 q 730 543 752 574 q 665 490 707 511 q 729 436 709 472 q 749 349 749 400 l 749 311 q 752 261 749 283 q 761 225 754 239 l 761 214 l 657 214 q 650 256 651 229 q 648 312 648 283 l 648 349 q 626 420 648 397 q 551 444 603 444 l 443 444 m 443 532 l 546 532 q 621 554 590 532 q 652 613 652 575 q 625 683 652 663 q 532 703 598 703 l 443 703 l 443 532 z "},"¯":{"ha":644,"x_min":83,"x_max":572,"o":"m 572 888 l 83 888 l 83 987 l 572 987 l 572 888 z "},"°":{"ha":517,"x_min":87,"x_max":432,"o":"m 87 825 q 138 949 87 897 q 261 1002 190 1002 q 381 949 331 1002 q 432 825 432 897 q 382 701 432 751 q 261 650 332 650 q 138 701 189 650 q 87 825 87 751 m 176 825 q 200 763 176 787 q 261 739 225 739 q 320 763 296 739 q 345 825 345 787 q 320 887 345 862 q 261 913 296 913 q 200 887 225 913 q 176 825 176 862 z "},"±":{"ha":744,"x_min":67,"x_max":688,"o":"m 446 581 l 688 581 l 688 476 l 446 476 l 446 196 l 326 196 l 326 476 l 67 476 l 67 581 l 326 581 l 326 859 l 446 859 l 446 581 m 659 3 l 92 3 l 92 108 l 659 108 l 659 3 z "},"²":{"ha":589,"x_min":77,"x_max":484,"o":"m 484 452 l 83 452 l 83 541 l 288 718 q 349 784 334 759 q 364 838 364 810 q 345 893 364 872 q 286 914 326 914 q 216 892 241 914 q 191 837 191 871 l 82 837 l 81 841 q 134 956 77 908 q 286 1003 191 1003 q 429 960 378 1003 q 481 838 481 916 q 451 745 481 783 q 342 636 420 707 l 238 545 l 239 541 l 484 541 l 484 452 z "},"³":{"ha":594,"x_min":72,"x_max":502,"o":"m 288 771 q 355 790 333 771 q 377 845 377 810 q 352 894 377 874 q 281 913 328 913 q 219 897 243 913 q 196 854 196 881 l 86 854 l 85 858 q 138 962 81 922 q 281 1002 195 1002 q 436 962 379 1002 q 493 847 493 922 q 469 779 493 810 q 403 730 445 748 q 476 682 450 715 q 502 604 502 650 q 441 486 502 528 q 281 444 380 444 q 133 484 195 444 q 76 598 72 523 l 77 602 l 187 602 q 213 552 187 571 q 281 532 238 532 q 358 552 330 532 q 387 605 387 572 q 362 666 387 647 q 288 686 337 686 l 198 686 l 198 771 l 288 771 z "},"´":{"ha":444,"x_min":89,"x_max":372,"o":"m 214 1002 l 370 1002 l 372 998 l 189 821 l 89 821 l 214 1002 z "},"µ":{"ha":789,"x_min":104,"x_max":685,"o":"m 237 734 l 237 298 q 276 134 238 178 q 381 90 313 90 q 489 115 448 90 q 551 186 530 139 l 551 734 l 685 734 l 685 0 l 565 0 l 559 73 q 486 8 529 31 q 387 -14 443 -14 q 301 -3 338 -14 q 237 32 264 8 l 237 -282 l 104 -282 l 104 734 l 237 734 z "},"¶":{"ha":682,"x_min":43,"x_max":567,"o":"m 433 0 l 433 353 l 376 353 q 131 440 218 353 q 43 670 43 528 q 131 899 43 810 q 376 987 218 987 l 567 987 l 567 0 l 433 0 z "},"·":{"ha":366,"x_min":109,"x_max":243,"o":"m 243 423 l 109 423 l 109 567 l 243 567 l 243 423 z "},"¸":{"ha":345,"x_min":81,"x_max":292,"o":"m 198 0 l 190 -35 q 263 -71 234 -43 q 292 -153 292 -98 q 239 -256 292 -218 q 85 -295 185 -295 l 81 -221 q 159 -204 130 -221 q 189 -155 189 -188 q 165 -109 189 -122 q 81 -92 140 -96 l 103 0 l 198 0 z "},"¹":{"ha":378,"x_min":64,"x_max":269,"o":"m 269 451 l 151 451 l 151 895 l 64 895 l 64 986 l 269 1002 l 269 451 z "},"º":{"ha":633,"x_min":81,"x_max":550,"o":"m 81 774 q 145 938 81 875 q 315 1002 209 1002 q 486 938 422 1002 q 550 774 550 875 l 550 695 q 487 531 550 594 q 317 469 423 469 q 145 531 210 469 q 81 695 81 594 l 81 774 m 199 695 q 229 600 199 635 q 317 564 258 564 q 403 600 373 564 q 433 695 433 636 l 433 774 q 403 868 433 831 q 315 904 372 904 q 229 868 258 904 q 199 774 199 831 l 199 695 z "},"»":{"ha":655,"x_min":75,"x_max":610,"o":"m 175 644 l 375 380 l 375 367 l 175 103 l 75 103 l 248 373 l 75 644 l 175 644 m 410 644 l 610 380 l 610 367 l 410 103 l 309 103 l 482 373 l 309 644 l 410 644 z "},"¼":{"ha":1082,"x_min":125,"x_max":1021,"o":"m 329 450 l 211 450 l 211 895 l 125 895 l 125 985 l 329 1001 l 329 450 m 304 80 l 230 125 l 712 897 l 786 852 l 304 80 m 936 191 l 1021 191 l 1021 103 l 936 103 l 936 0 l 821 0 l 821 103 l 538 103 l 532 172 l 819 543 l 936 543 l 936 191 m 656 191 l 821 191 l 821 401 l 817 402 l 808 387 l 656 191 z "},"½":{"ha":1158,"x_min":125,"x_max":1034,"o":"m 313 80 l 239 125 l 721 897 l 795 852 l 313 80 m 329 450 l 211 450 l 211 895 l 125 895 l 125 985 l 329 1001 l 329 450 m 1034 0 l 633 0 l 633 88 l 838 266 q 899 332 884 307 q 914 386 914 357 q 895 441 914 420 q 836 462 876 462 q 766 440 791 462 q 741 385 741 418 l 632 385 l 631 389 q 684 503 627 456 q 836 551 741 551 q 979 507 928 551 q 1031 385 1031 464 q 1001 293 1031 331 q 892 184 970 255 l 788 92 l 789 88 l 1034 88 l 1034 0 z "},"¾":{"ha":1208,"x_min":83,"x_max":1149,"o":"m 428 80 l 354 125 l 836 897 l 910 852 l 428 80 m 1064 191 l 1149 191 l 1149 103 l 1064 103 l 1064 0 l 949 0 l 949 103 l 666 103 l 661 172 l 947 543 l 1064 543 l 1064 191 m 784 191 l 949 191 l 949 401 l 945 402 l 936 387 l 784 191 m 298 772 q 366 791 344 772 q 388 846 388 810 q 363 895 388 875 q 292 914 338 914 q 230 898 254 914 q 207 854 207 882 l 97 854 l 96 859 q 149 963 92 922 q 292 1003 206 1003 q 447 963 390 1003 q 504 848 504 922 q 480 780 504 810 q 414 731 456 749 q 487 683 461 715 q 513 604 513 650 q 452 487 513 529 q 292 445 391 445 q 144 484 205 445 q 87 599 83 524 l 87 603 l 198 603 q 223 552 198 572 q 292 533 249 533 q 369 553 340 533 q 397 606 397 573 q 373 667 397 648 q 298 686 348 686 l 209 686 l 209 772 l 298 772 z "},"¿":{"ha":687,"x_min":77,"x_max":638,"o":"m 437 456 q 420 319 436 357 q 335 219 404 281 q 239 96 267 139 q 211 -5 211 54 q 249 -116 211 -77 q 359 -155 287 -155 q 464 -121 420 -155 q 507 -22 507 -87 l 635 -22 l 637 -26 q 559 -201 638 -136 q 359 -267 480 -267 q 151 -199 224 -267 q 77 -9 77 -131 q 125 150 77 77 q 252 299 172 222 q 296 364 288 335 q 304 456 304 393 l 437 456 m 299 734 l 439 734 l 439 593 l 299 593 l 299 734 z "},"À":{"ha":899,"x_min":14,"x_max":886,"o":"m 657 254 l 243 254 l 150 0 l 14 0 l 395 987 l 510 987 l 886 0 l 749 0 l 657 254 m 285 366 l 617 366 l 454 816 l 450 816 l 285 366 m 533 1058 l 426 1058 l 256 1234 l 258 1238 l 414 1238 l 533 1058 z "},"Á":{"ha":899,"x_min":14,"x_max":886,"o":"m 657 254 l 243 254 l 150 0 l 14 0 l 395 987 l 510 987 l 886 0 l 749 0 l 657 254 m 285 366 l 617 366 l 454 816 l 450 816 l 285 366 m 541 1236 l 697 1236 l 699 1232 l 515 1055 l 416 1055 l 541 1236 z "},"Â":{"ha":899,"x_min":14,"x_max":886,"o":"m 657 254 l 243 254 l 150 0 l 14 0 l 395 987 l 510 987 l 886 0 l 749 0 l 657 254 m 285 366 l 617 366 l 454 816 l 450 816 l 285 366 m 658 1103 l 658 1086 l 549 1086 l 449 1186 l 350 1086 l 241 1086 l 241 1103 l 408 1264 l 490 1264 l 658 1103 z "},"Ã":{"ha":899,"x_min":14,"x_max":886,"o":"m 657 254 l 243 254 l 150 0 l 14 0 l 395 987 l 510 987 l 886 0 l 749 0 l 657 254 m 285 366 l 617 366 l 454 816 l 450 816 l 285 366 m 685 1251 q 645 1143 685 1187 q 543 1099 604 1099 q 443 1130 495 1099 q 356 1162 391 1162 q 307 1140 327 1162 q 288 1086 288 1118 l 214 1104 q 254 1214 214 1167 q 356 1260 294 1260 q 451 1228 394 1260 q 543 1196 508 1196 q 591 1218 571 1196 q 612 1272 612 1240 l 685 1251 z "},"Ä":{"ha":899,"x_min":14,"x_max":886,"o":"m 657 254 l 243 254 l 150 0 l 14 0 l 395 987 l 510 987 l 886 0 l 749 0 l 657 254 m 285 366 l 617 366 l 454 816 l 450 816 l 285 366 m 684 1088 l 535 1088 l 535 1224 l 684 1224 l 684 1088 m 365 1088 l 216 1088 l 216 1224 l 365 1224 l 365 1088 z "},"Å":{"ha":899,"x_min":14,"x_max":886,"o":"m 657 254 l 243 254 l 150 0 l 14 0 l 395 987 l 510 987 l 886 0 l 749 0 l 657 254 m 285 366 l 617 366 l 454 816 l 450 816 l 285 366 m 310 1176 q 351 1272 310 1233 q 451 1310 392 1310 q 549 1272 509 1310 q 590 1176 590 1234 q 550 1081 590 1118 q 451 1044 509 1044 q 351 1081 392 1044 q 310 1176 310 1118 m 380 1176 q 401 1126 380 1147 q 451 1105 422 1105 q 500 1125 479 1105 q 520 1176 520 1145 q 500 1227 520 1206 q 451 1249 479 1249 q 401 1227 422 1249 q 380 1176 380 1206 z "},"Æ":{"ha":1303,"x_min":-14,"x_max":1281,"o":"m 1281 0 l 674 0 l 664 237 l 286 237 l 149 0 l -14 0 l 583 987 l 1239 987 l 1239 882 l 770 882 l 784 566 l 1184 566 l 1184 461 l 788 461 l 803 104 l 1281 104 l 1281 0 m 356 359 l 659 359 l 638 840 l 635 842 l 356 359 z "},"Ç":{"ha":880,"x_min":80,"x_max":824,"o":"m 820 316 l 821 312 q 724 79 824 173 q 458 -14 623 -14 q 185 104 291 -14 q 80 406 80 223 l 80 581 q 185 883 80 764 q 458 1002 291 1002 q 725 912 626 1002 q 821 676 824 823 l 820 672 l 692 672 q 631 836 692 776 q 458 897 570 897 q 280 806 347 897 q 214 583 214 716 l 214 406 q 280 180 214 271 q 458 90 347 90 q 631 150 570 90 q 692 316 692 210 l 820 316 m 511 -5 l 503 -41 q 576 -76 547 -48 q 606 -158 606 -104 q 552 -262 606 -223 q 399 -300 498 -300 l 394 -227 q 473 -210 443 -227 q 503 -160 503 -193 q 478 -115 503 -127 q 395 -97 454 -102 l 416 -5 l 511 -5 z "},"È":{"ha":812,"x_min":122,"x_max":777,"o":"m 708 458 l 256 458 l 256 104 l 777 104 l 777 0 l 122 0 l 122 987 l 770 987 l 770 882 l 256 882 l 256 563 l 708 563 l 708 458 m 482 1058 l 375 1058 l 205 1234 l 208 1238 l 363 1238 l 482 1058 z "},"É":{"ha":812,"x_min":122,"x_max":777,"o":"m 708 458 l 256 458 l 256 104 l 777 104 l 777 0 l 122 0 l 122 987 l 770 987 l 770 882 l 256 882 l 256 563 l 708 563 l 708 458 m 490 1236 l 646 1236 l 648 1232 l 465 1055 l 365 1055 l 490 1236 z "},"Ê":{"ha":812,"x_min":122,"x_max":777,"o":"m 708 458 l 256 458 l 256 104 l 777 104 l 777 0 l 122 0 l 122 987 l 770 987 l 770 882 l 256 882 l 256 563 l 708 563 l 708 458 m 635 1103 l 635 1086 l 526 1086 l 426 1186 l 327 1086 l 218 1086 l 218 1103 l 385 1264 l 467 1264 l 635 1103 z "},"Ë":{"ha":812,"x_min":122,"x_max":777,"o":"m 708 458 l 256 458 l 256 104 l 777 104 l 777 0 l 122 0 l 122 987 l 770 987 l 770 882 l 256 882 l 256 563 l 708 563 l 708 458 m 660 1088 l 511 1088 l 511 1224 l 660 1224 l 660 1088 m 341 1088 l 193 1088 l 193 1224 l 341 1224 l 341 1088 z "},"Ì":{"ha":393,"x_min":-23,"x_max":263,"o":"m 263 0 l 129 0 l 129 987 l 263 987 l 263 0 m 254 1058 l 146 1058 l -23 1234 l -21 1238 l 135 1238 l 254 1058 z "},"Í":{"ha":393,"x_min":129,"x_max":418,"o":"m 263 0 l 129 0 l 129 987 l 263 987 l 263 0 m 260 1236 l 416 1236 l 418 1232 l 235 1055 l 135 1055 l 260 1236 z "},"Î":{"ha":393,"x_min":-10,"x_max":406,"o":"m 263 0 l 129 0 l 129 987 l 263 987 l 263 0 m 406 1103 l 406 1086 l 297 1086 l 197 1186 l 98 1086 l -10 1086 l -10 1103 l 157 1264 l 238 1264 l 406 1103 z "},"Ï":{"ha":393,"x_min":-36,"x_max":431,"o":"m 263 0 l 129 0 l 129 987 l 263 987 l 263 0 m 431 1088 l 283 1088 l 283 1224 l 431 1224 l 431 1088 m 113 1088 l -36 1088 l -36 1224 l 113 1224 l 113 1088 z "},"Ð":{"ha":935,"x_min":28,"x_max":874,"o":"m 142 0 l 142 450 l 28 450 l 28 555 l 142 555 l 142 987 l 446 987 q 757 868 640 987 q 874 561 874 749 l 874 426 q 757 118 874 237 q 446 0 640 0 l 142 0 m 463 450 l 276 450 l 276 104 l 446 104 q 662 195 583 104 q 741 426 741 285 l 741 562 q 662 792 741 702 q 446 882 583 882 l 276 882 l 276 555 l 463 555 l 463 450 z "},"Ñ":{"ha":991,"x_min":122,"x_max":869,"o":"m 869 0 l 735 0 l 260 764 l 256 762 l 256 0 l 122 0 l 122 987 l 256 987 l 731 225 l 735 227 l 735 987 l 869 987 l 869 0 m 729 1251 q 689 1143 729 1187 q 587 1099 648 1099 q 487 1130 539 1099 q 400 1162 435 1162 q 351 1140 371 1162 q 332 1086 332 1118 l 258 1104 q 298 1214 258 1167 q 400 1260 338 1260 q 495 1228 438 1260 q 587 1196 552 1196 q 635 1218 615 1196 q 656 1272 656 1240 l 729 1251 z "},"Ò":{"ha":947,"x_min":77,"x_max":869,"o":"m 869 406 q 757 105 869 224 q 466 -14 645 -14 q 185 105 293 -14 q 77 406 77 224 l 77 581 q 185 882 77 762 q 466 1002 293 1002 q 757 882 645 1002 q 869 581 869 762 l 869 406 m 736 583 q 663 805 736 718 q 466 892 589 892 q 280 805 349 892 q 210 583 210 718 l 210 406 q 280 182 210 269 q 466 95 349 95 q 663 181 590 95 q 736 406 736 268 l 736 583 m 530 1072 l 422 1072 l 253 1249 l 255 1253 l 411 1253 l 530 1072 z "},"Ó":{"ha":947,"x_min":77,"x_max":869,"o":"m 869 406 q 757 105 869 224 q 466 -14 645 -14 q 185 105 293 -14 q 77 406 77 224 l 77 581 q 185 882 77 762 q 466 1002 293 1002 q 757 882 645 1002 q 869 581 869 762 l 869 406 m 736 583 q 663 805 736 718 q 466 892 589 892 q 280 805 349 892 q 210 583 210 718 l 210 406 q 280 182 210 269 q 466 95 349 95 q 663 181 590 95 q 736 406 736 268 l 736 583 m 538 1250 l 694 1250 l 695 1246 l 512 1069 l 412 1069 l 538 1250 z "},"Ô":{"ha":947,"x_min":77,"x_max":869,"o":"m 869 406 q 757 105 869 224 q 466 -14 645 -14 q 185 105 293 -14 q 77 406 77 224 l 77 581 q 185 882 77 762 q 466 1002 293 1002 q 757 882 645 1002 q 869 581 869 762 l 869 406 m 736 583 q 663 805 736 718 q 466 892 589 892 q 280 805 349 892 q 210 583 210 718 l 210 406 q 280 182 210 269 q 466 95 349 95 q 663 181 590 95 q 736 406 736 268 l 736 583 m 682 1117 l 682 1100 l 573 1100 l 473 1200 l 374 1100 l 266 1100 l 266 1118 l 433 1278 l 514 1278 l 682 1117 z "},"Õ":{"ha":947,"x_min":77,"x_max":869,"o":"m 869 406 q 757 105 869 224 q 466 -14 645 -14 q 185 105 293 -14 q 77 406 77 224 l 77 581 q 185 882 77 762 q 466 1002 293 1002 q 757 882 645 1002 q 869 581 869 762 l 869 406 m 736 583 q 663 805 736 718 q 466 892 589 892 q 280 805 349 892 q 210 583 210 718 l 210 406 q 280 182 210 269 q 466 95 349 95 q 663 181 590 95 q 736 406 736 268 l 736 583 m 709 1265 q 668 1157 709 1201 q 567 1113 628 1113 q 467 1144 519 1113 q 380 1176 414 1176 q 331 1154 351 1176 q 311 1101 311 1132 l 238 1118 q 278 1228 238 1181 q 380 1274 318 1274 q 475 1242 418 1274 q 567 1211 532 1211 q 615 1233 595 1211 q 635 1286 635 1255 l 709 1265 z "},"Ö":{"ha":947,"x_min":77,"x_max":869,"o":"m 869 406 q 757 105 869 224 q 466 -14 645 -14 q 185 105 293 -14 q 77 406 77 224 l 77 581 q 185 882 77 762 q 466 1002 293 1002 q 757 882 645 1002 q 869 581 869 762 l 869 406 m 736 583 q 663 805 736 718 q 466 892 589 892 q 280 805 349 892 q 210 583 210 718 l 210 406 q 280 182 210 269 q 466 95 349 95 q 663 181 590 95 q 736 406 736 268 l 736 583 m 707 1103 l 559 1103 l 559 1238 l 707 1238 l 707 1103 m 389 1103 l 240 1103 l 240 1238 l 389 1238 l 389 1103 z "},"×":{"ha":743,"x_min":60,"x_max":673,"o":"m 60 238 l 281 465 l 60 691 l 145 777 l 366 551 l 588 777 l 673 691 l 451 465 l 673 238 l 588 153 l 366 378 l 145 153 l 60 238 z "},"Ø":{"ha":947,"x_min":77,"x_max":869,"o":"m 869 406 q 757 105 869 224 q 466 -14 645 -14 q 357 0 408 -14 q 262 41 306 14 l 201 -64 l 100 -64 l 194 95 q 107 232 137 152 q 77 406 77 312 l 77 581 q 185 882 77 762 q 466 1002 293 1002 q 587 984 530 1002 q 693 936 644 967 l 748 1029 l 849 1029 l 760 879 q 841 745 812 822 q 869 581 869 669 l 869 406 m 210 406 q 223 298 210 348 q 260 214 236 249 l 264 213 l 633 834 q 557 877 599 862 q 466 892 515 892 q 280 805 349 892 q 210 583 210 718 l 210 406 m 736 583 q 725 679 736 633 q 693 758 713 724 l 689 759 l 322 141 q 388 106 352 118 q 466 95 424 95 q 663 181 590 95 q 736 406 736 268 l 736 583 z "},"Ù":{"ha":940,"x_min":100,"x_max":844,"o":"m 844 987 l 844 318 q 739 71 844 157 q 465 -14 634 -14 q 201 72 302 -14 q 100 318 100 157 l 100 987 l 233 987 l 233 318 q 297 148 233 206 q 465 90 361 90 q 643 148 575 90 q 710 318 710 206 l 710 987 l 844 987 m 529 1058 l 422 1058 l 252 1234 l 254 1238 l 410 1238 l 529 1058 z "},"Ú":{"ha":940,"x_min":100,"x_max":844,"o":"m 844 987 l 844 318 q 739 71 844 157 q 465 -14 634 -14 q 201 72 302 -14 q 100 318 100 157 l 100 987 l 233 987 l 233 318 q 297 148 233 206 q 465 90 361 90 q 643 148 575 90 q 710 318 710 206 l 710 987 l 844 987 m 537 1236 l 693 1236 l 694 1232 l 511 1055 l 412 1055 l 537 1236 z "},"Û":{"ha":940,"x_min":100,"x_max":844,"o":"m 844 987 l 844 318 q 739 71 844 157 q 465 -14 634 -14 q 201 72 302 -14 q 100 318 100 157 l 100 987 l 233 987 l 233 318 q 297 148 233 206 q 465 90 361 90 q 643 148 575 90 q 710 318 710 206 l 710 987 l 844 987 m 682 1103 l 682 1086 l 572 1086 l 473 1186 l 374 1086 l 265 1086 l 265 1103 l 432 1264 l 513 1264 l 682 1103 z "},"Ü":{"ha":940,"x_min":100,"x_max":844,"o":"m 844 987 l 844 318 q 739 71 844 157 q 465 -14 634 -14 q 201 72 302 -14 q 100 318 100 157 l 100 987 l 233 987 l 233 318 q 297 148 233 206 q 465 90 361 90 q 643 148 575 90 q 710 318 710 206 l 710 987 l 844 987 m 707 1088 l 558 1088 l 558 1224 l 707 1224 l 707 1088 m 388 1088 l 239 1088 l 239 1224 l 388 1224 l 388 1088 z "},"Ý":{"ha":848,"x_min":14,"x_max":834,"o":"m 424 486 l 682 987 l 834 987 l 488 347 l 488 0 l 355 0 l 355 356 l 14 987 l 166 987 l 424 486 m 488 1235 l 644 1235 l 646 1231 l 463 1055 l 363 1055 l 488 1235 z "},"Þ":{"ha":820,"x_min":111,"x_max":760,"o":"m 244 987 l 244 789 l 427 789 q 672 709 584 789 q 760 500 760 629 q 672 292 760 372 q 427 212 584 212 l 244 212 l 244 0 l 111 0 l 111 987 l 244 987 m 244 684 l 244 317 l 427 317 q 576 370 526 317 q 626 499 626 422 q 576 630 626 576 q 427 684 526 684 l 244 684 z "},"ß":{"ha":828,"x_min":93,"x_max":770,"o":"m 226 0 l 93 0 l 93 734 q 173 970 93 885 q 376 1055 252 1055 q 554 996 486 1055 q 623 825 623 938 q 579 670 623 745 q 535 557 535 595 q 653 405 535 501 q 770 214 770 309 q 700 43 770 101 q 508 -14 629 -14 q 391 0 451 -14 q 306 34 331 14 l 336 142 q 409 106 365 123 q 494 90 453 90 q 602 122 568 90 q 637 208 637 155 q 519 362 637 264 q 401 558 401 459 q 449 687 401 612 q 497 814 497 762 q 463 913 497 877 q 383 950 428 950 q 269 893 313 950 q 226 734 226 837 l 226 0 z "},"à":{"ha":764,"x_min":72,"x_max":686,"o":"m 548 0 q 537 59 541 33 q 533 110 534 84 q 436 21 496 57 q 307 -14 376 -14 q 132 44 192 -14 q 72 206 72 103 q 157 371 72 311 q 388 430 242 430 l 533 430 l 533 503 q 494 605 533 567 q 382 642 454 642 q 278 609 318 642 q 237 530 237 576 l 110 530 l 109 534 q 184 681 104 614 q 390 747 264 747 q 591 684 515 747 q 667 501 667 621 l 667 148 q 671 72 667 109 q 686 0 675 35 l 548 0 m 326 98 q 457 135 399 98 q 533 220 515 172 l 533 340 l 383 340 q 254 299 302 340 q 205 203 205 258 q 236 126 205 155 q 326 98 267 98 m 433 840 l 326 840 l 156 1016 l 158 1020 l 314 1020 l 433 840 z "},"á":{"ha":764,"x_min":72,"x_max":686,"o":"m 548 0 q 537 59 541 33 q 533 110 534 84 q 436 21 496 57 q 307 -14 376 -14 q 132 44 192 -14 q 72 206 72 103 q 157 371 72 311 q 388 430 242 430 l 533 430 l 533 503 q 494 605 533 567 q 382 642 454 642 q 278 609 318 642 q 237 530 237 576 l 110 530 l 109 534 q 184 681 104 614 q 390 747 264 747 q 591 684 515 747 q 667 501 667 621 l 667 148 q 671 72 667 109 q 686 0 675 35 l 548 0 m 326 98 q 457 135 399 98 q 533 220 515 172 l 533 340 l 383 340 q 254 299 302 340 q 205 203 205 258 q 236 126 205 155 q 326 98 267 98 m 441 1017 l 597 1017 l 598 1013 l 415 837 l 315 837 l 441 1017 z "},"â":{"ha":764,"x_min":72,"x_max":686,"o":"m 548 0 q 537 59 541 33 q 533 110 534 84 q 436 21 496 57 q 307 -14 376 -14 q 132 44 192 -14 q 72 206 72 103 q 157 371 72 311 q 388 430 242 430 l 533 430 l 533 503 q 494 605 533 567 q 382 642 454 642 q 278 609 318 642 q 237 530 237 576 l 110 530 l 109 534 q 184 681 104 614 q 390 747 264 747 q 591 684 515 747 q 667 501 667 621 l 667 148 q 671 72 667 109 q 686 0 675 35 l 548 0 m 326 98 q 457 135 399 98 q 533 220 515 172 l 533 340 l 383 340 q 254 299 302 340 q 205 203 205 258 q 236 126 205 155 q 326 98 267 98 m 585 884 l 585 867 l 476 867 l 376 968 l 277 867 l 169 867 l 169 885 l 336 1046 l 417 1046 l 585 884 z "},"ã":{"ha":764,"x_min":72,"x_max":686,"o":"m 548 0 q 537 59 541 33 q 533 110 534 84 q 436 21 496 57 q 307 -14 376 -14 q 132 44 192 -14 q 72 206 72 103 q 157 371 72 311 q 388 430 242 430 l 533 430 l 533 503 q 494 605 533 567 q 382 642 454 642 q 278 609 318 642 q 237 530 237 576 l 110 530 l 109 534 q 184 681 104 614 q 390 747 264 747 q 591 684 515 747 q 667 501 667 621 l 667 148 q 671 72 667 109 q 686 0 675 35 l 548 0 m 326 98 q 457 135 399 98 q 533 220 515 172 l 533 340 l 383 340 q 254 299 302 340 q 205 203 205 258 q 236 126 205 155 q 326 98 267 98 m 612 1032 q 571 924 612 968 q 470 880 531 880 q 370 912 422 880 q 283 943 317 943 q 234 921 254 943 q 214 868 214 899 l 141 886 q 181 995 141 949 q 283 1042 221 1042 q 378 1010 321 1042 q 470 978 435 978 q 518 1000 498 978 q 538 1054 538 1022 l 612 1032 z "},"ä":{"ha":764,"x_min":72,"x_max":686,"o":"m 548 0 q 537 59 541 33 q 533 110 534 84 q 436 21 496 57 q 307 -14 376 -14 q 132 44 192 -14 q 72 206 72 103 q 157 371 72 311 q 388 430 242 430 l 533 430 l 533 503 q 494 605 533 567 q 382 642 454 642 q 278 609 318 642 q 237 530 237 576 l 110 530 l 109 534 q 184 681 104 614 q 390 747 264 747 q 591 684 515 747 q 667 501 667 621 l 667 148 q 671 72 667 109 q 686 0 675 35 l 548 0 m 326 98 q 457 135 399 98 q 533 220 515 172 l 533 340 l 383 340 q 254 299 302 340 q 205 203 205 258 q 236 126 205 155 q 326 98 267 98 m 610 870 l 462 870 l 462 1006 l 610 1006 l 610 870 m 292 870 l 143 870 l 143 1006 l 292 1006 l 292 870 z "},"å":{"ha":764,"x_min":72,"x_max":686,"o":"m 548 0 q 537 59 541 33 q 533 110 534 84 q 436 21 496 57 q 307 -14 376 -14 q 132 44 192 -14 q 72 206 72 103 q 157 371 72 311 q 388 430 242 430 l 533 430 l 533 503 q 494 605 533 567 q 382 642 454 642 q 278 609 318 642 q 237 530 237 576 l 110 530 l 109 534 q 184 681 104 614 q 390 747 264 747 q 591 684 515 747 q 667 501 667 621 l 667 148 q 671 72 667 109 q 686 0 675 35 l 548 0 m 326 98 q 457 135 399 98 q 533 220 515 172 l 533 340 l 383 340 q 254 299 302 340 q 205 203 205 258 q 236 126 205 155 q 326 98 267 98 m 235 958 q 276 1053 235 1015 q 376 1092 317 1092 q 474 1054 433 1092 q 515 958 515 1015 q 474 863 515 899 q 376 826 434 826 q 276 863 317 826 q 235 958 235 899 m 304 958 q 326 908 304 928 q 376 887 347 887 q 425 907 404 887 q 445 958 445 927 q 425 1009 445 988 q 376 1030 404 1030 q 326 1009 347 1030 q 304 958 304 988 z "},"æ":{"ha":1173,"x_min":39,"x_max":1126,"o":"m 856 -14 q 693 19 764 -14 q 578 113 623 52 q 464 22 540 59 q 280 -14 389 -14 q 102 45 165 -14 q 39 206 39 104 q 117 372 39 313 q 345 431 195 431 l 500 431 l 500 488 q 465 601 500 560 q 363 642 430 642 q 252 605 294 642 q 211 515 211 568 l 83 527 l 82 531 q 156 686 79 625 q 363 747 234 747 q 500 720 441 747 q 593 640 559 692 q 696 719 637 691 q 824 747 755 747 q 1047 659 969 747 q 1126 416 1126 571 l 1126 336 l 645 336 l 644 332 q 697 157 644 224 q 856 90 751 90 q 971 109 926 90 q 1069 162 1016 127 l 1114 68 q 1015 12 1078 39 q 856 -14 951 -14 m 307 90 q 414 120 358 90 q 500 188 471 149 l 500 334 l 346 334 q 219 296 264 334 q 173 203 173 258 q 207 122 173 153 q 307 90 241 90 m 824 642 q 701 585 747 642 q 646 437 654 528 l 648 434 l 992 434 l 992 455 q 951 590 992 538 q 824 642 911 642 z "},"ç":{"ha":737,"x_min":66,"x_max":688,"o":"m 395 90 q 512 131 462 90 q 563 232 563 172 l 683 232 l 684 228 q 600 59 688 133 q 395 -14 512 -14 q 151 90 235 -14 q 66 353 66 195 l 66 381 q 151 643 66 538 q 395 747 236 747 q 606 671 524 747 q 685 485 688 595 l 684 481 l 563 481 q 515 595 563 548 q 395 642 468 642 q 245 567 290 642 q 200 381 200 491 l 200 353 q 245 165 200 240 q 395 90 290 90 m 416 -5 l 408 -41 q 481 -76 452 -48 q 510 -158 510 -104 q 456 -262 510 -223 q 303 -300 403 -300 l 298 -227 q 377 -210 347 -227 q 407 -160 407 -193 q 382 -115 407 -127 q 299 -97 358 -102 l 321 -5 l 416 -5 z "},"è":{"ha":734,"x_min":67,"x_max":682,"o":"m 401 -14 q 158 88 248 -14 q 67 353 67 190 l 67 382 q 160 643 67 539 q 381 747 254 747 q 606 658 530 747 q 682 419 682 568 l 682 336 l 205 336 l 203 332 q 257 158 205 227 q 401 90 309 90 q 520 110 469 90 q 609 163 572 129 l 661 76 q 557 12 622 37 q 401 -14 493 -14 m 381 642 q 267 586 314 642 q 208 444 219 529 l 210 440 l 548 440 l 548 458 q 506 589 548 536 q 381 642 464 642 m 435 840 l 328 840 l 158 1017 l 160 1021 l 316 1021 l 435 840 z "},"é":{"ha":734,"x_min":67,"x_max":682,"o":"m 401 -14 q 158 88 248 -14 q 67 353 67 190 l 67 382 q 160 643 67 539 q 381 747 254 747 q 606 658 530 747 q 682 419 682 568 l 682 336 l 205 336 l 203 332 q 257 158 205 227 q 401 90 309 90 q 520 110 469 90 q 609 163 572 129 l 661 76 q 557 12 622 37 q 401 -14 493 -14 m 381 642 q 267 586 314 642 q 208 444 219 529 l 210 440 l 548 440 l 548 458 q 506 589 548 536 q 381 642 464 642 m 443 1018 l 599 1018 l 600 1014 l 417 838 l 317 838 l 443 1018 z "},"ê":{"ha":734,"x_min":67,"x_max":682,"o":"m 401 -14 q 158 88 248 -14 q 67 353 67 190 l 67 382 q 160 643 67 539 q 381 747 254 747 q 606 658 530 747 q 682 419 682 568 l 682 336 l 205 336 l 203 332 q 257 158 205 227 q 401 90 309 90 q 520 110 469 90 q 609 163 572 129 l 661 76 q 557 12 622 37 q 401 -14 493 -14 m 381 642 q 267 586 314 642 q 208 444 219 529 l 210 440 l 548 440 l 548 458 q 506 589 548 536 q 381 642 464 642 m 587 885 l 587 868 l 478 868 l 378 968 l 279 868 l 171 868 l 171 886 l 338 1046 l 419 1046 l 587 885 z "},"ë":{"ha":734,"x_min":67,"x_max":682,"o":"m 401 -14 q 158 88 248 -14 q 67 353 67 190 l 67 382 q 160 643 67 539 q 381 747 254 747 q 606 658 530 747 q 682 419 682 568 l 682 336 l 205 336 l 203 332 q 257 158 205 227 q 401 90 309 90 q 520 110 469 90 q 609 163 572 129 l 661 76 q 557 12 622 37 q 401 -14 493 -14 m 381 642 q 267 586 314 642 q 208 444 219 529 l 210 440 l 548 440 l 548 458 q 506 589 548 536 q 381 642 464 642 m 612 871 l 464 871 l 464 1006 l 612 1006 l 612 871 m 294 871 l 145 871 l 145 1006 l 294 1006 l 294 871 z "},"ì":{"ha":349,"x_min":-48,"x_max":237,"o":"m 237 0 l 104 0 l 104 734 l 237 734 l 237 0 m 229 825 l 121 825 l -48 1002 l -46 1006 l 110 1006 l 229 825 z "},"í":{"ha":349,"x_min":104,"x_max":393,"o":"m 237 0 l 104 0 l 104 734 l 237 734 l 237 0 m 235 1003 l 391 1003 l 393 999 l 210 823 l 110 823 l 235 1003 z "},"î":{"ha":349,"x_min":-35,"x_max":381,"o":"m 237 0 l 104 0 l 104 734 l 237 734 l 237 0 m 381 870 l 381 853 l 272 853 l 172 954 l 73 853 l -35 853 l -35 871 l 132 1031 l 213 1031 l 381 870 z "},"ï":{"ha":349,"x_min":-61,"x_max":406,"o":"m 237 0 l 104 0 l 104 734 l 237 734 l 237 0 m 406 856 l 258 856 l 258 991 l 406 991 l 406 856 m 87 856 l -61 856 l -61 991 l 87 991 l 87 856 z "},"ð":{"ha":815,"x_min":49,"x_max":727,"o":"m 592 880 q 692 716 656 809 q 727 512 727 623 l 727 363 q 629 91 727 197 q 386 -14 532 -14 q 143 81 238 -14 q 49 316 49 176 q 142 567 49 471 q 380 663 236 663 q 495 638 441 663 q 585 572 549 613 l 587 576 q 552 709 581 650 q 477 814 524 769 l 281 702 l 229 771 l 402 870 q 348 897 376 885 q 290 918 319 908 l 330 1029 q 433 994 384 1016 q 524 940 481 971 l 672 1025 l 724 956 l 592 880 m 389 90 q 536 168 479 90 q 593 363 593 245 l 593 463 q 515 531 570 503 q 380 558 460 558 q 237 488 292 558 q 182 316 182 417 q 238 158 182 227 q 389 90 294 90 z "},"ñ":{"ha":789,"x_min":97,"x_max":692,"o":"m 216 734 l 226 625 q 318 715 262 683 q 444 747 373 747 q 627 678 562 747 q 692 463 692 608 l 692 0 l 559 0 l 559 460 q 520 598 559 557 q 404 639 482 639 q 301 611 346 639 q 231 535 257 583 l 231 0 l 97 0 l 97 734 l 216 734 m 627 1032 q 587 924 627 968 q 486 880 547 880 q 385 912 437 880 q 298 943 333 943 q 250 921 269 943 q 230 868 230 899 l 157 886 q 197 995 157 949 q 298 1042 237 1042 q 393 1010 336 1042 q 486 978 450 978 q 534 1000 513 978 q 554 1054 554 1022 l 627 1032 z "},"ò":{"ha":789,"x_min":66,"x_max":723,"o":"m 66 374 q 154 642 66 536 q 393 747 242 747 q 634 642 546 747 q 723 374 723 537 l 723 359 q 635 90 723 195 q 395 -14 547 -14 q 154 91 243 -14 q 66 359 66 195 l 66 374 m 199 359 q 249 166 199 242 q 395 90 298 90 q 540 166 490 90 q 589 359 589 242 l 589 374 q 539 566 589 489 q 393 642 490 642 q 249 566 298 642 q 199 374 199 489 l 199 359 m 451 840 l 344 840 l 174 1016 l 176 1020 l 332 1020 l 451 840 z "},"ó":{"ha":789,"x_min":66,"x_max":723,"o":"m 66 374 q 154 642 66 536 q 393 747 242 747 q 634 642 546 747 q 723 374 723 537 l 723 359 q 635 90 723 195 q 395 -14 547 -14 q 154 91 243 -14 q 66 359 66 195 l 66 374 m 199 359 q 249 166 199 242 q 395 90 298 90 q 540 166 490 90 q 589 359 589 242 l 589 374 q 539 566 589 489 q 393 642 490 642 q 249 566 298 642 q 199 374 199 489 l 199 359 m 459 1017 l 615 1017 l 616 1013 l 433 837 l 334 837 l 459 1017 z "},"ô":{"ha":789,"x_min":66,"x_max":723,"o":"m 66 374 q 154 642 66 536 q 393 747 242 747 q 634 642 546 747 q 723 374 723 537 l 723 359 q 635 90 723 195 q 395 -14 547 -14 q 154 91 243 -14 q 66 359 66 195 l 66 374 m 199 359 q 249 166 199 242 q 395 90 298 90 q 540 166 490 90 q 589 359 589 242 l 589 374 q 539 566 589 489 q 393 642 490 642 q 249 566 298 642 q 199 374 199 489 l 199 359 m 604 884 l 604 867 l 494 867 l 395 968 l 296 867 l 187 867 l 187 885 l 354 1046 l 435 1046 l 604 884 z "},"õ":{"ha":789,"x_min":66,"x_max":723,"o":"m 66 374 q 154 642 66 536 q 393 747 242 747 q 634 642 546 747 q 723 374 723 537 l 723 359 q 635 90 723 195 q 395 -14 547 -14 q 154 91 243 -14 q 66 359 66 195 l 66 374 m 199 359 q 249 166 199 242 q 395 90 298 90 q 540 166 490 90 q 589 359 589 242 l 589 374 q 539 566 589 489 q 393 642 490 642 q 249 566 298 642 q 199 374 199 489 l 199 359 m 630 1032 q 590 924 630 968 q 488 880 549 880 q 388 912 440 880 q 301 943 336 943 q 252 921 272 943 q 233 868 233 899 l 159 886 q 199 995 159 949 q 301 1042 239 1042 q 396 1010 339 1042 q 488 978 453 978 q 536 1000 516 978 q 557 1054 557 1022 l 630 1032 z "},"ö":{"ha":789,"x_min":66,"x_max":723,"o":"m 66 374 q 154 642 66 536 q 393 747 242 747 q 634 642 546 747 q 723 374 723 537 l 723 359 q 635 90 723 195 q 395 -14 547 -14 q 154 91 243 -14 q 66 359 66 195 l 66 374 m 199 359 q 249 166 199 242 q 395 90 298 90 q 540 166 490 90 q 589 359 589 242 l 589 374 q 539 566 589 489 q 393 642 490 642 q 249 566 298 642 q 199 374 199 489 l 199 359 m 629 870 l 480 870 l 480 1006 l 629 1006 l 629 870 m 310 870 l 161 870 l 161 1006 l 310 1006 l 310 870 z "},"÷":{"ha":793,"x_min":48,"x_max":725,"o":"m 725 405 l 48 405 l 48 532 l 725 532 l 725 405 m 454 677 l 320 677 l 320 815 l 454 815 l 454 677 m 454 122 l 320 122 l 320 260 l 454 260 l 454 122 z "},"ø":{"ha":789,"x_min":66,"x_max":723,"o":"m 66 374 q 154 642 66 536 q 393 747 242 747 q 466 740 431 747 q 532 719 501 732 l 583 820 l 670 820 l 600 677 q 691 548 659 627 q 723 374 723 469 l 723 359 q 635 90 723 195 q 395 -14 547 -14 q 329 -8 360 -14 q 269 8 298 -3 l 220 -92 l 133 -92 l 201 47 q 101 176 136 95 q 66 359 66 258 l 66 374 m 199 359 q 213 246 199 297 q 254 162 227 195 l 258 162 l 484 619 q 441 636 464 630 q 393 642 418 642 q 249 566 298 642 q 199 374 199 489 l 199 359 m 589 374 q 577 476 589 428 q 544 555 566 524 l 540 555 l 318 106 q 353 94 334 98 q 395 90 372 90 q 540 166 490 90 q 589 359 589 242 l 589 374 z "},"ù":{"ha":789,"x_min":94,"x_max":692,"o":"m 563 109 q 474 18 528 50 q 349 -14 420 -14 q 161 62 229 -14 q 94 301 94 139 l 94 734 l 228 734 l 228 300 q 262 138 228 182 q 370 94 297 94 q 488 123 441 94 q 558 205 534 152 l 558 734 l 692 734 l 692 0 l 572 0 l 563 109 m 450 825 l 342 825 l 173 1002 l 175 1006 l 331 1006 l 450 825 z "},"ú":{"ha":789,"x_min":94,"x_max":692,"o":"m 563 109 q 474 18 528 50 q 349 -14 420 -14 q 161 62 229 -14 q 94 301 94 139 l 94 734 l 228 734 l 228 300 q 262 138 228 182 q 370 94 297 94 q 488 123 441 94 q 558 205 534 152 l 558 734 l 692 734 l 692 0 l 572 0 l 563 109 m 458 1003 l 614 1003 l 615 999 l 432 823 l 332 823 l 458 1003 z "},"û":{"ha":789,"x_min":94,"x_max":692,"o":"m 563 109 q 474 18 528 50 q 349 -14 420 -14 q 161 62 229 -14 q 94 301 94 139 l 94 734 l 228 734 l 228 300 q 262 138 228 182 q 370 94 297 94 q 488 123 441 94 q 558 205 534 152 l 558 734 l 692 734 l 692 0 l 572 0 l 563 109 m 602 870 l 602 853 l 493 853 l 393 954 l 294 853 l 186 853 l 186 871 l 353 1031 l 434 1031 l 602 870 z "},"ü":{"ha":789,"x_min":94,"x_max":692,"o":"m 563 109 q 474 18 528 50 q 349 -14 420 -14 q 161 62 229 -14 q 94 301 94 139 l 94 734 l 228 734 l 228 300 q 262 138 228 182 q 370 94 297 94 q 488 123 441 94 q 558 205 534 152 l 558 734 l 692 734 l 692 0 l 572 0 l 563 109 m 627 856 l 479 856 l 479 991 l 627 991 l 627 856 m 309 856 l 160 856 l 160 991 l 309 991 l 309 856 z "},"ý":{"ha":699,"x_min":18,"x_max":678,"o":"m 321 272 l 345 180 l 349 180 l 530 734 l 678 734 l 370 -113 q 290 -241 342 -186 q 150 -296 238 -296 q 109 -293 134 -296 q 70 -286 83 -289 l 83 -180 q 107 -182 79 -180 q 143 -184 136 -184 q 213 -146 186 -184 q 258 -62 240 -108 l 290 15 l 18 734 l 167 734 l 321 272 m 413 1003 l 569 1003 l 570 999 l 387 823 l 288 823 l 413 1003 z "},"þ":{"ha":804,"x_min":104,"x_max":729,"o":"m 729 339 q 653 83 729 180 q 444 -14 577 -14 q 325 8 376 -14 q 237 77 273 31 l 237 -282 l 104 -282 l 104 1058 l 237 1058 l 237 652 q 324 723 273 699 q 441 747 375 747 q 653 639 578 747 q 729 353 729 531 l 729 339 m 595 353 q 546 558 595 478 q 401 639 497 639 q 303 613 344 639 q 237 541 262 587 l 237 186 q 303 116 262 141 q 403 90 344 90 q 547 160 498 90 q 595 339 595 229 l 595 353 z "},"ÿ":{"ha":699,"x_min":18,"x_max":678,"o":"m 321 272 l 345 180 l 349 180 l 530 734 l 678 734 l 370 -113 q 290 -241 342 -186 q 150 -296 238 -296 q 109 -293 134 -296 q 70 -286 83 -289 l 83 -180 q 107 -182 79 -180 q 143 -184 136 -184 q 213 -146 186 -184 q 258 -62 240 -108 l 290 15 l 18 734 l 167 734 l 321 272 m 583 856 l 434 856 l 434 991 l 583 991 l 583 856 m 264 856 l 115 856 l 115 991 l 264 991 l 264 856 z "},"Ā":{"ha":899,"x_min":14,"x_max":886,"o":"m 657 254 l 243 254 l 150 0 l 14 0 l 395 987 l 510 987 l 886 0 l 749 0 l 657 254 m 285 366 l 617 366 l 454 816 l 450 816 l 285 366 m 694 1112 l 205 1112 l 205 1211 l 694 1211 l 694 1112 z "},"ā":{"ha":764,"x_min":72,"x_max":686,"o":"m 548 0 q 537 59 541 33 q 533 110 534 84 q 436 21 496 57 q 307 -14 376 -14 q 132 44 192 -14 q 72 206 72 103 q 157 371 72 311 q 388 430 242 430 l 533 430 l 533 503 q 494 605 533 567 q 382 642 454 642 q 278 609 318 642 q 237 530 237 576 l 110 530 l 109 534 q 184 681 104 614 q 390 747 264 747 q 591 684 515 747 q 667 501 667 621 l 667 148 q 671 72 667 109 q 686 0 675 35 l 548 0 m 326 98 q 457 135 399 98 q 533 220 515 172 l 533 340 l 383 340 q 254 299 302 340 q 205 203 205 258 q 236 126 205 155 q 326 98 267 98 m 625 894 l 136 894 l 136 993 l 625 993 l 625 894 z "},"Ă":{"ha":899,"x_min":14,"x_max":886,"o":"m 657 254 l 243 254 l 150 0 l 14 0 l 395 987 l 510 987 l 886 0 l 749 0 l 657 254 m 285 366 l 617 366 l 454 816 l 450 816 l 285 366 m 649 1268 l 650 1264 q 598 1136 653 1185 q 450 1086 543 1086 q 302 1136 357 1086 q 250 1264 247 1185 l 252 1268 l 354 1268 q 377 1196 354 1223 q 450 1168 400 1168 q 523 1196 499 1168 q 547 1268 547 1224 l 649 1268 z "},"ă":{"ha":764,"x_min":72,"x_max":686,"o":"m 548 0 q 537 59 541 33 q 533 110 534 84 q 436 21 496 57 q 307 -14 376 -14 q 132 44 192 -14 q 72 206 72 103 q 157 371 72 311 q 388 430 242 430 l 533 430 l 533 503 q 494 605 533 567 q 382 642 454 642 q 278 609 318 642 q 237 530 237 576 l 110 530 l 109 534 q 184 681 104 614 q 390 747 264 747 q 591 684 515 747 q 667 501 667 621 l 667 148 q 671 72 667 109 q 686 0 675 35 l 548 0 m 326 98 q 457 135 399 98 q 533 220 515 172 l 533 340 l 383 340 q 254 299 302 340 q 205 203 205 258 q 236 126 205 155 q 326 98 267 98 m 576 1050 l 577 1046 q 525 918 580 967 q 377 868 470 868 q 229 918 283 868 q 177 1046 174 967 l 178 1050 l 281 1050 q 304 977 281 1005 q 377 949 327 949 q 450 978 426 949 q 473 1050 473 1006 l 576 1050 z "},"Ą":{"ha":899,"x_min":14,"x_max":923,"o":"m 657 254 l 243 254 l 150 0 l 14 0 l 395 987 l 510 987 l 886 0 l 749 0 l 657 254 m 285 366 l 617 366 l 454 816 l 450 816 l 285 366 m 869 0 q 795 -67 822 -35 q 768 -136 768 -100 q 784 -181 768 -165 q 833 -197 799 -197 q 867 -192 852 -197 q 901 -180 883 -187 l 923 -263 q 869 -284 899 -276 q 799 -293 840 -293 q 693 -256 734 -293 q 652 -151 652 -218 q 693 -48 652 -97 q 821 39 734 1 l 869 0 z "},"ą":{"ha":764,"x_min":72,"x_max":723,"o":"m 548 0 q 537 59 541 33 q 533 110 534 84 q 436 21 496 57 q 307 -14 376 -14 q 132 44 192 -14 q 72 206 72 103 q 157 371 72 311 q 388 430 242 430 l 533 430 l 533 503 q 494 605 533 567 q 382 642 454 642 q 278 609 318 642 q 237 530 237 576 l 110 530 l 109 534 q 184 681 104 614 q 390 747 264 747 q 591 684 515 747 q 667 501 667 621 l 667 148 q 671 72 667 109 q 686 0 675 35 l 548 0 m 326 98 q 457 135 399 98 q 533 220 515 172 l 533 340 l 383 340 q 254 299 302 340 q 205 203 205 258 q 236 126 205 155 q 326 98 267 98 m 669 0 q 595 -67 622 -35 q 568 -136 568 -100 q 584 -181 568 -165 q 633 -197 599 -197 q 667 -192 652 -197 q 701 -180 683 -187 l 723 -263 q 669 -284 699 -276 q 599 -293 640 -293 q 493 -256 534 -293 q 452 -151 452 -218 q 493 -48 452 -97 q 621 39 534 1 l 669 0 z "},"Ć":{"ha":880,"x_min":80,"x_max":824,"o":"m 820 316 l 821 312 q 724 79 824 173 q 458 -14 623 -14 q 185 104 291 -14 q 80 406 80 223 l 80 581 q 185 883 80 764 q 458 1002 291 1002 q 725 912 626 1002 q 821 676 824 823 l 820 672 l 692 672 q 631 836 692 776 q 458 897 570 897 q 280 806 347 897 q 214 583 214 716 l 214 406 q 280 180 214 271 q 458 90 347 90 q 631 150 570 90 q 692 316 692 210 l 820 316 m 524 1250 l 680 1250 l 682 1246 l 498 1069 l 399 1069 l 524 1250 z "},"ć":{"ha":737,"x_min":66,"x_max":688,"o":"m 395 90 q 512 131 462 90 q 563 232 563 172 l 683 232 l 684 228 q 600 59 688 133 q 395 -14 512 -14 q 151 90 235 -14 q 66 353 66 195 l 66 381 q 151 643 66 538 q 395 747 236 747 q 606 671 524 747 q 685 485 688 595 l 684 481 l 563 481 q 515 595 563 548 q 395 642 468 642 q 245 567 290 642 q 200 381 200 491 l 200 353 q 245 165 200 240 q 395 90 290 90 m 429 1017 l 585 1017 l 586 1013 l 403 837 l 303 837 l 429 1017 z "},"Ĉ":{"ha":880,"x_min":80,"x_max":824,"o":"m 820 316 l 821 312 q 724 79 824 173 q 458 -14 623 -14 q 185 104 291 -14 q 80 406 80 223 l 80 581 q 185 883 80 764 q 458 1002 291 1002 q 725 912 626 1002 q 821 676 824 823 l 820 672 l 692 672 q 631 836 692 776 q 458 897 570 897 q 280 806 347 897 q 214 583 214 716 l 214 406 q 280 180 214 271 q 458 90 347 90 q 631 150 570 90 q 692 316 692 210 l 820 316 m 669 1117 l 669 1100 l 559 1100 l 460 1200 l 361 1100 l 252 1100 l 252 1118 l 419 1278 l 500 1278 l 669 1117 z "},"ĉ":{"ha":737,"x_min":66,"x_max":688,"o":"m 395 90 q 512 131 462 90 q 563 232 563 172 l 683 232 l 684 228 q 600 59 688 133 q 395 -14 512 -14 q 151 90 235 -14 q 66 353 66 195 l 66 381 q 151 643 66 538 q 395 747 236 747 q 606 671 524 747 q 685 485 688 595 l 684 481 l 563 481 q 515 595 563 548 q 395 642 468 642 q 245 567 290 642 q 200 381 200 491 l 200 353 q 245 165 200 240 q 395 90 290 90 m 573 884 l 573 867 l 464 867 l 364 968 l 265 867 l 157 867 l 157 885 l 323 1046 l 405 1046 l 573 884 z "},"Ċ":{"ha":880,"x_min":80,"x_max":824,"o":"m 820 316 l 821 312 q 724 79 824 173 q 458 -14 623 -14 q 185 104 291 -14 q 80 406 80 223 l 80 581 q 185 883 80 764 q 458 1002 291 1002 q 725 912 626 1002 q 821 676 824 823 l 820 672 l 692 672 q 631 836 692 776 q 458 897 570 897 q 280 806 347 897 q 214 583 214 716 l 214 406 q 280 180 214 271 q 458 90 347 90 q 631 150 570 90 q 692 316 692 210 l 820 316 m 534 1102 l 386 1102 l 386 1238 l 534 1238 l 534 1102 z "},"ċ":{"ha":737,"x_min":66,"x_max":688,"o":"m 395 90 q 512 131 462 90 q 563 232 563 172 l 683 232 l 684 228 q 600 59 688 133 q 395 -14 512 -14 q 151 90 235 -14 q 66 353 66 195 l 66 381 q 151 643 66 538 q 395 747 236 747 q 606 671 524 747 q 685 485 688 595 l 684 481 l 563 481 q 515 595 563 548 q 395 642 468 642 q 245 567 290 642 q 200 381 200 491 l 200 353 q 245 165 200 240 q 395 90 290 90 m 438 869 l 290 869 l 290 1006 l 438 1006 l 438 869 z "},"Č":{"ha":880,"x_min":80,"x_max":824,"o":"m 820 316 l 821 312 q 724 79 824 173 q 458 -14 623 -14 q 185 104 291 -14 q 80 406 80 223 l 80 581 q 185 883 80 764 q 458 1002 291 1002 q 725 912 626 1002 q 821 676 824 823 l 820 672 l 692 672 q 631 836 692 776 q 458 897 570 897 q 280 806 347 897 q 214 583 214 716 l 214 406 q 280 180 214 271 q 458 90 347 90 q 631 150 570 90 q 692 316 692 210 l 820 316 m 459 1179 l 559 1279 l 674 1279 l 674 1267 l 500 1101 l 419 1101 l 247 1265 l 247 1279 l 359 1279 l 459 1179 z "},"č":{"ha":737,"x_min":66,"x_max":688,"o":"m 395 90 q 512 131 462 90 q 563 232 563 172 l 683 232 l 684 228 q 600 59 688 133 q 395 -14 512 -14 q 151 90 235 -14 q 66 353 66 195 l 66 381 q 151 643 66 538 q 395 747 236 747 q 606 671 524 747 q 685 485 688 595 l 684 481 l 563 481 q 515 595 563 548 q 395 642 468 642 q 245 567 290 642 q 200 381 200 491 l 200 353 q 245 165 200 240 q 395 90 290 90 m 363 946 l 463 1046 l 578 1046 l 578 1034 l 404 868 l 323 868 l 151 1033 l 151 1046 l 264 1046 l 363 946 z "},"Ď":{"ha":915,"x_min":122,"x_max":854,"o":"m 122 0 l 122 987 l 425 987 q 736 868 619 987 q 854 561 854 749 l 854 426 q 736 118 854 237 q 425 0 619 0 l 122 0 m 256 882 l 256 104 l 425 104 q 641 195 562 104 q 720 426 720 285 l 720 562 q 641 792 720 702 q 425 882 562 882 l 256 882 m 420 1164 l 519 1265 l 635 1265 l 635 1253 l 460 1086 l 380 1086 l 208 1251 l 208 1265 l 320 1265 l 420 1164 z "},"ď":{"ha":891,"x_min":66,"x_max":888,"o":"m 66 353 q 142 639 66 530 q 354 747 218 747 q 468 724 418 747 q 553 654 518 700 l 553 1058 l 687 1058 l 687 0 l 578 0 l 562 90 q 474 12 526 39 q 353 -14 422 -14 q 142 83 218 -14 q 66 339 66 180 l 66 353 m 200 339 q 245 161 200 228 q 387 94 291 94 q 487 121 446 94 q 553 197 528 149 l 553 540 q 487 612 528 585 q 388 639 446 639 q 246 559 292 639 q 200 353 200 480 l 200 339 m 888 963 l 805 802 l 739 802 l 781 969 l 781 1058 l 888 1058 l 888 963 z "},"Đ":{"ha":935,"x_min":28,"x_max":874,"o":"m 142 0 l 142 450 l 28 450 l 28 555 l 142 555 l 142 987 l 446 987 q 757 868 640 987 q 874 561 874 749 l 874 426 q 757 118 874 237 q 446 0 640 0 l 142 0 m 463 450 l 276 450 l 276 104 l 446 104 q 662 195 583 104 q 741 426 741 285 l 741 562 q 662 792 741 702 q 446 882 583 882 l 276 882 l 276 555 l 463 555 l 463 450 z "},"đ":{"ha":810,"x_min":66,"x_max":821,"o":"m 821 835 l 687 835 l 687 0 l 578 0 l 562 90 q 474 12 526 39 q 353 -14 422 -14 q 142 83 218 -14 q 66 339 66 180 l 66 353 q 142 639 66 530 q 354 747 218 747 q 468 724 418 747 q 553 654 518 700 l 553 835 l 386 835 l 386 940 l 553 940 l 553 1058 l 687 1058 l 687 940 l 821 940 l 821 835 m 200 339 q 245 161 200 228 q 387 94 291 94 q 487 121 446 94 q 553 197 528 149 l 553 540 q 487 612 528 585 q 388 639 446 639 q 246 559 292 639 q 200 353 200 480 l 200 339 z "},"Ē":{"ha":812,"x_min":122,"x_max":777,"o":"m 708 458 l 256 458 l 256 104 l 777 104 l 777 0 l 122 0 l 122 987 l 770 987 l 770 882 l 256 882 l 256 563 l 708 563 l 708 458 m 674 1112 l 185 1112 l 185 1211 l 674 1211 l 674 1112 z "},"ē":{"ha":734,"x_min":67,"x_max":682,"o":"m 401 -14 q 158 88 248 -14 q 67 353 67 190 l 67 382 q 160 643 67 539 q 381 747 254 747 q 606 658 530 747 q 682 419 682 568 l 682 336 l 205 336 l 203 332 q 257 158 205 227 q 401 90 309 90 q 520 110 469 90 q 609 163 572 129 l 661 76 q 557 12 622 37 q 401 -14 493 -14 m 381 642 q 267 586 314 642 q 208 444 219 529 l 210 440 l 548 440 l 548 458 q 506 589 548 536 q 381 642 464 642 m 627 895 l 138 895 l 138 994 l 627 994 l 627 895 z "},"Ĕ":{"ha":812,"x_min":122,"x_max":777,"o":"m 708 458 l 256 458 l 256 104 l 777 104 l 777 0 l 122 0 l 122 987 l 770 987 l 770 882 l 256 882 l 256 563 l 708 563 l 708 458 m 625 1268 l 627 1264 q 574 1136 629 1185 q 427 1086 519 1086 q 278 1136 333 1086 q 227 1264 223 1185 l 228 1268 l 330 1268 q 353 1196 330 1223 q 427 1168 376 1168 q 499 1196 475 1168 q 523 1268 523 1224 l 625 1268 z "},"ĕ":{"ha":734,"x_min":67,"x_max":682,"o":"m 401 -14 q 158 88 248 -14 q 67 353 67 190 l 67 382 q 160 643 67 539 q 381 747 254 747 q 606 658 530 747 q 682 419 682 568 l 682 336 l 205 336 l 203 332 q 257 158 205 227 q 401 90 309 90 q 520 110 469 90 q 609 163 572 129 l 661 76 q 557 12 622 37 q 401 -14 493 -14 m 381 642 q 267 586 314 642 q 208 444 219 529 l 210 440 l 548 440 l 548 458 q 506 589 548 536 q 381 642 464 642 m 578 1050 l 579 1046 q 527 918 582 968 q 379 869 472 869 q 231 918 286 869 q 179 1046 176 968 l 180 1050 l 283 1050 q 306 978 283 1006 q 379 950 329 950 q 452 978 428 950 q 475 1050 475 1006 l 578 1050 z "},"Ė":{"ha":812,"x_min":122,"x_max":777,"o":"m 708 458 l 256 458 l 256 104 l 777 104 l 777 0 l 122 0 l 122 987 l 770 987 l 770 882 l 256 882 l 256 563 l 708 563 l 708 458 m 500 1088 l 352 1088 l 352 1224 l 500 1224 l 500 1088 z "},"ė":{"ha":734,"x_min":67,"x_max":682,"o":"m 401 -14 q 158 88 248 -14 q 67 353 67 190 l 67 382 q 160 643 67 539 q 381 747 254 747 q 606 658 530 747 q 682 419 682 568 l 682 336 l 205 336 l 203 332 q 257 158 205 227 q 401 90 309 90 q 520 110 469 90 q 609 163 572 129 l 661 76 q 557 12 622 37 q 401 -14 493 -14 m 381 642 q 267 586 314 642 q 208 444 219 529 l 210 440 l 548 440 l 548 458 q 506 589 548 536 q 381 642 464 642 m 452 870 l 304 870 l 304 1006 l 452 1006 l 452 870 z "},"Ę":{"ha":812,"x_min":122,"x_max":777,"o":"m 708 458 l 256 458 l 256 104 l 777 104 l 777 0 l 122 0 l 122 987 l 770 987 l 770 882 l 256 882 l 256 563 l 708 563 l 708 458 m 488 0 q 413 -67 440 -35 q 387 -136 387 -100 q 402 -181 387 -165 q 452 -197 417 -197 q 486 -192 470 -197 q 519 -180 501 -187 l 541 -263 q 487 -284 517 -276 q 417 -293 458 -293 q 312 -256 353 -293 q 271 -151 271 -218 q 312 -48 271 -97 q 439 39 353 1 l 488 0 z "},"ę":{"ha":734,"x_min":67,"x_max":682,"o":"m 401 -14 q 158 88 248 -14 q 67 353 67 190 l 67 382 q 160 643 67 539 q 381 747 254 747 q 606 658 530 747 q 682 419 682 568 l 682 336 l 205 336 l 203 332 q 257 158 205 227 q 401 90 309 90 q 520 110 469 90 q 609 163 572 129 l 661 76 q 557 12 622 37 q 401 -14 493 -14 m 381 642 q 267 586 314 642 q 208 444 219 529 l 210 440 l 548 440 l 548 458 q 506 589 548 536 q 381 642 464 642 m 597 42 q 523 -25 549 7 q 496 -94 496 -58 q 511 -139 496 -123 q 561 -155 526 -155 q 595 -150 579 -155 q 628 -138 610 -145 l 650 -221 q 596 -242 626 -234 q 526 -251 567 -251 q 421 -214 462 -251 q 380 -109 380 -176 q 421 -6 380 -55 q 548 81 462 43 l 597 42 z "},"Ě":{"ha":812,"x_min":122,"x_max":777,"o":"m 708 458 l 256 458 l 256 104 l 777 104 l 777 0 l 122 0 l 122 987 l 770 987 l 770 882 l 256 882 l 256 563 l 708 563 l 708 458 m 425 1164 l 525 1265 l 640 1265 l 640 1253 l 466 1086 l 385 1086 l 213 1251 l 213 1265 l 326 1265 l 425 1164 z "},"ě":{"ha":734,"x_min":67,"x_max":682,"o":"m 401 -14 q 158 88 248 -14 q 67 353 67 190 l 67 382 q 160 643 67 539 q 381 747 254 747 q 606 658 530 747 q 682 419 682 568 l 682 336 l 205 336 l 203 332 q 257 158 205 227 q 401 90 309 90 q 520 110 469 90 q 609 163 572 129 l 661 76 q 557 12 622 37 q 401 -14 493 -14 m 381 642 q 267 586 314 642 q 208 444 219 529 l 210 440 l 548 440 l 548 458 q 506 589 548 536 q 381 642 464 642 m 378 947 l 477 1047 l 593 1047 l 593 1035 l 418 869 l 338 869 l 165 1034 l 165 1047 l 278 1047 l 378 947 z "},"Ĝ":{"ha":947,"x_min":81,"x_max":838,"o":"m 838 131 q 715 31 802 77 q 490 -14 628 -14 q 197 99 313 -14 q 81 392 81 212 l 81 595 q 189 888 81 775 q 467 1002 297 1002 q 734 918 637 1002 q 833 703 831 835 l 831 699 l 704 699 q 638 841 698 785 q 467 897 579 897 q 285 812 354 897 q 216 597 216 727 l 216 392 q 293 175 216 260 q 490 90 370 90 q 627 113 574 90 q 704 163 681 135 l 704 388 l 488 388 l 488 493 l 838 493 l 838 131 m 662 1117 l 662 1100 l 553 1100 l 453 1200 l 354 1100 l 245 1100 l 245 1118 l 412 1278 l 494 1278 l 662 1117 z "},"ĝ":{"ha":789,"x_min":68,"x_max":692,"o":"m 68 353 q 145 639 68 530 q 359 747 222 747 q 481 719 429 747 q 570 638 534 691 l 586 734 l 692 734 l 692 -4 q 610 -221 692 -145 q 374 -296 528 -296 q 259 -282 321 -296 q 151 -242 198 -267 l 185 -138 q 272 -171 221 -159 q 372 -184 323 -184 q 514 -139 470 -184 q 559 -4 559 -95 l 559 79 q 473 9 523 33 q 357 -14 422 -14 q 145 83 222 -14 q 68 339 68 181 l 68 353 m 201 339 q 248 161 201 229 q 391 94 295 94 q 492 122 451 94 q 559 199 532 149 l 559 537 q 492 611 533 584 q 392 639 450 639 q 249 559 296 639 q 201 353 201 479 l 201 339 m 591 884 l 591 867 l 482 867 l 382 968 l 283 867 l 175 867 l 175 885 l 342 1046 l 423 1046 l 591 884 z "},"Ğ":{"ha":947,"x_min":81,"x_max":838,"o":"m 838 131 q 715 31 802 77 q 490 -14 628 -14 q 197 99 313 -14 q 81 392 81 212 l 81 595 q 189 888 81 775 q 467 1002 297 1002 q 734 918 637 1002 q 833 703 831 835 l 831 699 l 704 699 q 638 841 698 785 q 467 897 579 897 q 285 812 354 897 q 216 597 216 727 l 216 392 q 293 175 216 260 q 490 90 370 90 q 627 113 574 90 q 704 163 681 135 l 704 388 l 488 388 l 488 493 l 838 493 l 838 131 m 652 1282 l 654 1278 q 602 1150 656 1200 q 454 1101 547 1101 q 305 1150 360 1101 q 254 1278 250 1200 l 255 1282 l 357 1282 q 380 1210 357 1238 q 454 1182 404 1182 q 526 1210 503 1182 q 550 1282 550 1238 l 652 1282 z "},"ğ":{"ha":789,"x_min":68,"x_max":692,"o":"m 68 353 q 145 639 68 530 q 359 747 222 747 q 481 719 429 747 q 570 638 534 691 l 586 734 l 692 734 l 692 -4 q 610 -221 692 -145 q 374 -296 528 -296 q 259 -282 321 -296 q 151 -242 198 -267 l 185 -138 q 272 -171 221 -159 q 372 -184 323 -184 q 514 -139 470 -184 q 559 -4 559 -95 l 559 79 q 473 9 523 33 q 357 -14 422 -14 q 145 83 222 -14 q 68 339 68 181 l 68 353 m 201 339 q 248 161 201 229 q 391 94 295 94 q 492 122 451 94 q 559 199 532 149 l 559 537 q 492 611 533 584 q 392 639 450 639 q 249 559 296 639 q 201 353 201 479 l 201 339 m 582 1050 l 583 1046 q 531 918 586 967 q 383 868 476 868 q 235 918 290 868 q 183 1046 180 967 l 184 1050 l 287 1050 q 310 977 287 1005 q 383 949 333 949 q 456 978 432 949 q 479 1050 479 1006 l 582 1050 z "},"Ġ":{"ha":947,"x_min":81,"x_max":838,"o":"m 838 131 q 715 31 802 77 q 490 -14 628 -14 q 197 99 313 -14 q 81 392 81 212 l 81 595 q 189 888 81 775 q 467 1002 297 1002 q 734 918 637 1002 q 833 703 831 835 l 831 699 l 704 699 q 638 841 698 785 q 467 897 579 897 q 285 812 354 897 q 216 597 216 727 l 216 392 q 293 175 216 260 q 490 90 370 90 q 627 113 574 90 q 704 163 681 135 l 704 388 l 488 388 l 488 493 l 838 493 l 838 131 m 527 1102 l 379 1102 l 379 1238 l 527 1238 l 527 1102 z "},"ġ":{"ha":789,"x_min":68,"x_max":692,"o":"m 68 353 q 145 639 68 530 q 359 747 222 747 q 481 719 429 747 q 570 638 534 691 l 586 734 l 692 734 l 692 -4 q 610 -221 692 -145 q 374 -296 528 -296 q 259 -282 321 -296 q 151 -242 198 -267 l 185 -138 q 272 -171 221 -159 q 372 -184 323 -184 q 514 -139 470 -184 q 559 -4 559 -95 l 559 79 q 473 9 523 33 q 357 -14 422 -14 q 145 83 222 -14 q 68 339 68 181 l 68 353 m 201 339 q 248 161 201 229 q 391 94 295 94 q 492 122 451 94 q 559 199 532 149 l 559 537 q 492 611 533 584 q 392 639 450 639 q 249 559 296 639 q 201 353 201 479 l 201 339 m 456 869 l 309 869 l 309 1006 l 456 1006 l 456 869 z "},"Ģ":{"ha":947,"x_min":81,"x_max":838,"o":"m 838 131 q 715 31 802 77 q 490 -14 628 -14 q 197 99 313 -14 q 81 392 81 212 l 81 595 q 189 888 81 775 q 467 1002 297 1002 q 734 918 637 1002 q 833 703 831 835 l 831 699 l 704 699 q 638 841 698 785 q 467 897 579 897 q 285 812 354 897 q 216 597 216 727 l 216 392 q 293 175 216 260 q 490 90 370 90 q 627 113 574 90 q 704 163 681 135 l 704 388 l 488 388 l 488 493 l 838 493 l 838 131 m 502 -174 l 419 -335 l 353 -335 l 395 -168 l 395 -79 l 502 -79 l 502 -174 z "},"ģ":{"ha":789,"x_min":68,"x_max":692,"o":"m 68 353 q 145 639 68 530 q 359 747 222 747 q 481 719 429 747 q 570 638 534 691 l 586 734 l 692 734 l 692 -4 q 610 -221 692 -145 q 374 -296 528 -296 q 259 -282 321 -296 q 151 -242 198 -267 l 185 -138 q 272 -171 221 -159 q 372 -184 323 -184 q 514 -139 470 -184 q 559 -4 559 -95 l 559 79 q 473 9 523 33 q 357 -14 422 -14 q 145 83 222 -14 q 68 339 68 181 l 68 353 m 201 339 q 248 161 201 229 q 391 94 295 94 q 492 122 451 94 q 559 199 532 149 l 559 537 q 492 611 533 584 q 392 639 450 639 q 249 559 296 639 q 201 353 201 479 l 201 339 m 311 950 l 393 1118 l 459 1118 l 445 943 l 445 850 l 311 850 l 311 950 z "},"Ĥ":{"ha":991,"x_min":122,"x_max":869,"o":"m 869 0 l 735 0 l 735 436 l 256 436 l 256 0 l 122 0 l 122 987 l 256 987 l 256 541 l 735 541 l 735 987 l 869 987 l 869 0 m 698 1103 l 698 1086 l 589 1086 l 489 1186 l 390 1086 l 281 1086 l 281 1103 l 448 1264 l 530 1264 l 698 1103 z "},"ĥ":{"ha":789,"x_min":97,"x_max":694,"o":"m 231 635 q 324 718 269 688 q 446 747 379 747 q 629 677 564 747 q 694 460 694 606 l 694 0 l 561 0 l 561 461 q 522 595 561 552 q 406 639 483 639 q 305 613 350 639 q 231 542 260 587 l 231 0 l 97 0 l 97 1058 l 231 1058 l 231 635 m 554 1102 l 554 1085 l 445 1085 l 345 1185 l 246 1085 l 138 1085 l 138 1103 l 304 1263 l 386 1263 l 554 1102 z "},"Ħ":{"ha":976,"x_min":21,"x_max":965,"o":"m 867 793 l 965 793 l 965 694 l 867 694 l 867 0 l 734 0 l 734 436 l 254 436 l 254 0 l 121 0 l 121 694 l 21 694 l 21 793 l 121 793 l 121 987 l 254 987 l 254 793 l 734 793 l 734 987 l 867 987 l 867 793 m 254 541 l 734 541 l 734 694 l 254 694 l 254 541 z "},"ħ":{"ha":810,"x_min":1,"x_max":715,"o":"m 435 835 l 251 835 l 251 635 q 344 718 289 688 q 467 747 399 747 q 649 677 584 747 q 715 460 715 606 l 715 0 l 581 0 l 581 461 q 542 595 581 552 q 426 639 503 639 q 325 613 370 639 q 251 542 280 587 l 251 0 l 117 0 l 117 835 l 1 835 l 1 940 l 117 940 l 117 1058 l 251 1058 l 251 940 l 435 940 l 435 835 z "},"Ĩ":{"ha":393,"x_min":-38,"x_max":433,"o":"m 263 0 l 129 0 l 129 987 l 263 987 l 263 0 m 433 1251 q 392 1143 433 1187 q 291 1099 352 1099 q 191 1130 243 1099 q 104 1162 138 1162 q 55 1140 75 1162 q 35 1086 35 1118 l -38 1104 q 2 1214 -38 1167 q 104 1260 42 1260 q 199 1228 142 1260 q 291 1196 256 1196 q 339 1218 319 1196 q 359 1272 359 1240 l 433 1251 z "},"ĩ":{"ha":349,"x_min":-63,"x_max":408,"o":"m 237 0 l 104 0 l 104 734 l 237 734 l 237 0 m 408 1018 q 367 910 408 954 q 266 866 327 866 q 165 898 218 866 q 79 929 113 929 q 30 907 50 929 q 10 854 10 885 l -63 871 q -23 981 -63 935 q 79 1027 17 1027 q 174 996 117 1027 q 266 964 231 964 q 314 986 294 964 q 334 1040 334 1008 l 408 1018 z "},"Ī":{"ha":393,"x_min":-43,"x_max":446,"o":"m 263 0 l 129 0 l 129 987 l 263 987 l 263 0 m 446 1112 l -43 1112 l -43 1211 l 446 1211 l 446 1112 z "},"ī":{"ha":349,"x_min":-68,"x_max":420,"o":"m 237 0 l 104 0 l 104 734 l 237 734 l 237 0 m 420 881 l -68 881 l -68 980 l 420 980 l 420 881 z "},"Ĭ":{"ha":393,"x_min":-5,"x_max":401,"o":"m 263 0 l 129 0 l 129 987 l 263 987 l 263 0 m 397 1268 l 398 1264 q 346 1136 401 1185 q 198 1086 291 1086 q 50 1136 104 1086 q -2 1264 -5 1185 l -1 1268 l 102 1268 q 125 1196 102 1223 q 198 1168 148 1168 q 271 1196 247 1168 q 294 1268 294 1224 l 397 1268 z "},"ĭ":{"ha":349,"x_min":-31,"x_max":376,"o":"m 237 0 l 104 0 l 104 734 l 237 734 l 237 0 m 372 1036 l 373 1031 q 321 903 376 953 q 173 854 266 854 q 24 903 79 854 q -27 1031 -31 953 l -26 1036 l 77 1036 q 100 963 77 991 q 173 935 123 935 q 245 963 222 935 q 269 1036 269 991 l 372 1036 z "},"Į":{"ha":393,"x_min":31,"x_max":302,"o":"m 263 0 l 129 0 l 129 987 l 263 987 l 263 0 m 248 0 q 174 -67 201 -35 q 147 -136 147 -100 q 162 -181 147 -165 q 212 -197 178 -197 q 246 -192 231 -197 q 279 -180 262 -187 l 302 -263 q 248 -284 277 -276 q 178 -293 218 -293 q 72 -256 113 -293 q 31 -151 31 -218 q 72 -48 31 -97 q 199 39 113 1 l 248 0 z "},"į":{"ha":350,"x_min":9,"x_max":280,"o":"m 241 0 l 108 0 l 108 734 l 241 734 l 241 0 m 241 922 l 108 922 l 108 1058 l 241 1058 l 241 922 m 227 0 q 152 -67 179 -35 q 125 -136 125 -100 q 141 -181 125 -165 q 191 -197 156 -197 q 224 -192 209 -197 q 258 -180 240 -187 l 280 -263 q 226 -284 256 -276 q 156 -293 197 -293 q 51 -256 92 -293 q 9 -151 9 -218 q 51 -48 9 -97 q 178 39 92 1 l 227 0 z "},"İ":{"ha":393,"x_min":122,"x_max":270,"o":"m 263 0 l 129 0 l 129 987 l 263 987 l 263 0 m 270 1088 l 122 1088 l 122 1224 l 270 1224 l 270 1088 z "},"ı":{"ha":349,"x_min":104,"x_max":237,"o":"m 237 0 l 104 0 l 104 734 l 237 734 l 237 0 z "},"Ĳ":{"ha":1159,"x_min":129,"x_max":1046,"o":"m 263 0 l 129 0 l 129 987 l 263 987 l 263 0 m 912 987 l 1046 987 l 1046 273 q 962 63 1046 141 q 745 -14 878 -14 q 518 58 602 -14 q 437 268 434 130 l 439 272 l 567 272 q 613 135 567 180 q 745 90 660 90 q 865 140 819 90 q 912 273 912 190 l 912 987 z "},"ĳ":{"ha":709,"x_min":108,"x_max":601,"o":"m 241 0 l 108 0 l 108 734 l 241 734 l 241 0 m 241 922 l 108 922 l 108 1058 l 241 1058 l 241 922 m 601 734 l 601 -60 q 543 -235 601 -174 q 380 -296 484 -296 q 342 -293 359 -296 q 305 -284 325 -290 l 315 -179 q 342 -185 324 -182 q 371 -187 359 -187 q 441 -157 415 -187 q 467 -60 467 -127 l 467 734 l 601 734 m 597 924 l 463 924 l 463 1058 l 597 1058 l 597 924 z "},"Ĵ":{"ha":766,"x_min":41,"x_max":789,"o":"m 519 987 l 653 987 l 653 273 q 569 63 653 141 q 352 -14 486 -14 q 125 58 210 -14 q 45 268 41 130 l 46 272 l 174 272 q 221 135 174 180 q 352 90 267 90 q 473 140 426 90 q 519 273 519 190 l 519 987 m 789 1095 l 789 1078 l 680 1078 l 581 1178 l 481 1078 l 373 1078 l 373 1095 l 540 1256 l 621 1256 l 789 1095 z "},"ĵ":{"ha":355,"x_min":-46,"x_max":393,"o":"m 250 734 l 250 -60 q 191 -235 250 -174 q 29 -296 133 -296 q -9 -293 8 -296 q -46 -284 -26 -290 l -37 -182 q -5 -189 -27 -186 q 29 -191 17 -191 q 93 -156 69 -191 q 116 -60 116 -121 l 116 734 l 250 734 m 393 858 l 393 841 l 284 841 l 184 941 l 85 841 l -23 841 l -23 859 l 144 1019 l 225 1019 l 393 858 z "},"Ķ":{"ha":893,"x_min":122,"x_max":890,"o":"m 371 446 l 256 446 l 256 0 l 122 0 l 122 987 l 256 987 l 256 551 l 359 551 l 712 987 l 860 987 l 862 984 l 479 510 l 890 3 l 888 0 l 728 0 l 371 446 m 479 -163 l 396 -323 l 330 -323 l 372 -157 l 372 -68 l 479 -68 l 479 -163 z "},"ķ":{"ha":712,"x_min":98,"x_max":713,"o":"m 318 338 l 231 338 l 231 0 l 98 0 l 98 1058 l 231 1058 l 231 445 l 317 445 l 517 734 l 677 734 l 427 400 l 713 0 l 556 0 l 318 338 m 412 -161 l 329 -322 l 263 -322 l 304 -155 l 304 -66 l 412 -66 l 412 -161 z "},"ĸ":{"ha":776,"x_min":104,"x_max":738,"o":"m 306 311 l 237 311 l 237 0 l 104 0 l 104 734 l 237 734 l 237 424 l 294 424 l 557 734 l 714 734 l 715 730 l 410 382 l 738 3 l 736 0 l 573 0 l 306 311 z "},"Ĺ":{"ha":750,"x_min":122,"x_max":723,"o":"m 256 104 l 723 104 l 723 0 l 122 0 l 122 987 l 256 987 l 256 104 m 252 1236 l 408 1236 l 409 1232 l 226 1055 l 126 1055 l 252 1236 z "},"ĺ":{"ha":350,"x_min":108,"x_max":397,"o":"m 241 0 l 108 0 l 108 1058 l 241 1058 l 241 0 m 239 1261 l 395 1261 l 397 1257 l 214 1081 l 114 1081 l 239 1261 z "},"Ļ":{"ha":750,"x_min":122,"x_max":723,"o":"m 256 104 l 723 104 l 723 0 l 122 0 l 122 987 l 256 987 l 256 104 m 474 -161 l 391 -322 l 326 -322 l 367 -155 l 367 -66 l 474 -66 l 474 -161 z "},"ļ":{"ha":350,"x_min":75,"x_max":241,"o":"m 241 0 l 108 0 l 108 1058 l 241 1058 l 241 0 m 223 -161 l 140 -322 l 75 -322 l 116 -155 l 116 -66 l 223 -66 l 223 -161 z "},"Ľ":{"ha":750,"x_min":122,"x_max":723,"o":"m 256 104 l 723 104 l 723 0 l 122 0 l 122 987 l 256 987 l 256 104 m 544 893 l 461 732 l 395 732 l 437 899 l 437 988 l 544 988 l 544 893 z "},"ľ":{"ha":452,"x_min":108,"x_max":456,"o":"m 241 0 l 108 0 l 108 1058 l 241 1058 l 241 0 m 456 963 l 373 802 l 307 802 l 349 969 l 349 1058 l 456 1058 l 456 963 z "},"Ŀ":{"ha":750,"x_min":122,"x_max":723,"o":"m 256 104 l 723 104 l 723 0 l 122 0 l 122 987 l 256 987 l 256 104 m 564 467 l 416 467 l 416 603 l 564 603 l 564 467 z "},"ŀ":{"ha":499,"x_min":108,"x_max":477,"o":"m 241 0 l 108 0 l 108 1058 l 241 1058 l 241 0 m 477 455 l 329 455 l 329 591 l 477 591 l 477 455 z "},"Ł":{"ha":730,"x_min":27,"x_max":711,"o":"m 244 572 l 427 630 l 427 517 l 244 459 l 244 104 l 711 104 l 711 0 l 111 0 l 111 417 l 27 391 l 27 503 l 111 530 l 111 987 l 244 987 l 244 572 z "},"ł":{"ha":378,"x_min":25,"x_max":357,"o":"m 255 591 l 357 631 l 357 519 l 255 479 l 255 0 l 121 0 l 121 429 l 25 392 l 25 504 l 121 541 l 121 1058 l 255 1058 l 255 591 z "},"Ń":{"ha":991,"x_min":122,"x_max":869,"o":"m 869 0 l 735 0 l 260 764 l 256 762 l 256 0 l 122 0 l 122 987 l 256 987 l 731 225 l 735 227 l 735 987 l 869 987 l 869 0 m 558 1236 l 714 1236 l 715 1232 l 532 1055 l 433 1055 l 558 1236 z "},"ń":{"ha":789,"x_min":97,"x_max":692,"o":"m 216 734 l 226 625 q 318 715 262 683 q 444 747 373 747 q 627 678 562 747 q 692 463 692 608 l 692 0 l 559 0 l 559 460 q 520 598 559 557 q 404 639 482 639 q 301 611 346 639 q 231 535 257 583 l 231 0 l 97 0 l 97 734 l 216 734 m 456 1017 l 612 1017 l 614 1013 l 431 837 l 331 837 l 456 1017 z "},"Ņ":{"ha":991,"x_min":122,"x_max":869,"o":"m 869 0 l 735 0 l 260 764 l 256 762 l 256 0 l 122 0 l 122 987 l 256 987 l 731 225 l 735 227 l 735 987 l 869 987 l 869 0 m 542 -161 l 459 -322 l 393 -322 l 435 -155 l 435 -66 l 542 -66 l 542 -161 z "},"ņ":{"ha":789,"x_min":97,"x_max":692,"o":"m 216 734 l 226 625 q 318 715 262 683 q 444 747 373 747 q 627 678 562 747 q 692 463 692 608 l 692 0 l 559 0 l 559 460 q 520 598 559 557 q 404 639 482 639 q 301 611 346 639 q 231 535 257 583 l 231 0 l 97 0 l 97 734 l 216 734 m 440 -161 l 357 -322 l 292 -322 l 333 -155 l 333 -66 l 440 -66 l 440 -161 z "},"Ň":{"ha":991,"x_min":122,"x_max":869,"o":"m 869 0 l 735 0 l 260 764 l 256 762 l 256 0 l 122 0 l 122 987 l 256 987 l 731 225 l 735 227 l 735 987 l 869 987 l 869 0 m 493 1164 l 593 1265 l 708 1265 l 708 1253 l 534 1086 l 453 1086 l 281 1251 l 281 1265 l 393 1265 l 493 1164 z "},"ň":{"ha":789,"x_min":97,"x_max":692,"o":"m 216 734 l 226 625 q 318 715 262 683 q 444 747 373 747 q 627 678 562 747 q 692 463 692 608 l 692 0 l 559 0 l 559 460 q 520 598 559 557 q 404 639 482 639 q 301 611 346 639 q 231 535 257 583 l 231 0 l 97 0 l 97 734 l 216 734 m 391 946 l 491 1046 l 606 1046 l 606 1034 l 432 868 l 351 868 l 179 1033 l 179 1046 l 292 1046 l 391 946 z "},"ŉ":{"ha":789,"x_min":-22,"x_max":692,"o":"m 216 734 l 226 625 q 318 715 262 683 q 444 747 373 747 q 627 678 562 747 q 692 463 692 608 l 692 0 l 559 0 l 559 460 q 520 598 559 557 q 404 639 482 639 q 301 611 346 639 q 231 535 257 583 l 231 0 l 97 0 l 97 734 l 216 734 m 127 963 l 44 802 l -22 802 l 20 969 l 20 1058 l 127 1058 l 127 963 z "},"Ŋ":{"ha":960,"x_min":109,"x_max":856,"o":"m 856 987 l 856 -60 q 798 -235 856 -174 q 635 -296 739 -296 q 596 -293 614 -296 q 559 -284 578 -290 l 568 -182 q 600 -189 577 -186 q 635 -191 623 -191 q 699 -156 675 -191 q 722 -60 722 -121 l 722 0 l 247 754 l 243 753 l 243 0 l 109 0 l 109 987 l 243 987 l 718 233 l 722 235 l 722 987 l 856 987 z "},"ŋ":{"ha":789,"x_min":97,"x_max":687,"o":"m 216 734 l 225 632 q 316 717 262 687 q 439 747 370 747 q 622 678 557 747 q 687 463 687 608 l 687 -60 q 629 -235 687 -174 q 466 -296 570 -296 q 427 -293 445 -296 q 390 -284 409 -290 l 399 -176 q 431 -181 408 -179 q 466 -184 454 -184 q 530 -152 507 -184 q 553 -60 553 -120 l 553 460 q 515 598 553 557 q 397 639 476 639 q 298 616 340 639 q 231 554 256 594 l 231 0 l 97 0 l 97 734 l 216 734 z "},"Ō":{"ha":947,"x_min":77,"x_max":869,"o":"m 869 406 q 757 105 869 224 q 466 -14 645 -14 q 185 105 293 -14 q 77 406 77 224 l 77 581 q 185 882 77 762 q 466 1002 293 1002 q 757 882 645 1002 q 869 581 869 762 l 869 406 m 736 583 q 663 805 736 718 q 466 892 589 892 q 280 805 349 892 q 210 583 210 718 l 210 406 q 280 182 210 269 q 466 95 349 95 q 663 181 590 95 q 736 406 736 268 l 736 583 m 722 1126 l 233 1126 l 233 1225 l 722 1225 l 722 1126 z "},"ō":{"ha":789,"x_min":66,"x_max":723,"o":"m 66 374 q 154 642 66 536 q 393 747 242 747 q 634 642 546 747 q 723 374 723 537 l 723 359 q 635 90 723 195 q 395 -14 547 -14 q 154 91 243 -14 q 66 359 66 195 l 66 374 m 199 359 q 249 166 199 242 q 395 90 298 90 q 540 166 490 90 q 589 359 589 242 l 589 374 q 539 566 589 489 q 393 642 490 642 q 249 566 298 642 q 199 374 199 489 l 199 359 m 643 894 l 154 894 l 154 993 l 643 993 l 643 894 z "},"Ŏ":{"ha":947,"x_min":77,"x_max":869,"o":"m 869 406 q 757 105 869 224 q 466 -14 645 -14 q 185 105 293 -14 q 77 406 77 224 l 77 581 q 185 882 77 762 q 466 1002 293 1002 q 757 882 645 1002 q 869 581 869 762 l 869 406 m 736 583 q 663 805 736 718 q 466 892 589 892 q 280 805 349 892 q 210 583 210 718 l 210 406 q 280 182 210 269 q 466 95 349 95 q 663 181 590 95 q 736 406 736 268 l 736 583 m 673 1282 l 674 1278 q 622 1150 677 1200 q 474 1101 567 1101 q 326 1150 380 1101 q 274 1278 271 1200 l 275 1282 l 378 1282 q 401 1210 378 1238 q 474 1182 424 1182 q 547 1210 523 1182 q 570 1282 570 1238 l 673 1282 z "},"ŏ":{"ha":789,"x_min":66,"x_max":723,"o":"m 66 374 q 154 642 66 536 q 393 747 242 747 q 634 642 546 747 q 723 374 723 537 l 723 359 q 635 90 723 195 q 395 -14 547 -14 q 154 91 243 -14 q 66 359 66 195 l 66 374 m 199 359 q 249 166 199 242 q 395 90 298 90 q 540 166 490 90 q 589 359 589 242 l 589 374 q 539 566 589 489 q 393 642 490 642 q 249 566 298 642 q 199 374 199 489 l 199 359 m 594 1050 l 595 1046 q 543 918 598 967 q 395 868 488 868 q 247 918 302 868 q 195 1046 192 967 l 197 1050 l 299 1050 q 322 977 299 1005 q 395 949 345 949 q 468 978 444 949 q 492 1050 492 1006 l 594 1050 z "},"Ő":{"ha":947,"x_min":77,"x_max":869,"o":"m 869 406 q 757 105 869 224 q 466 -14 645 -14 q 185 105 293 -14 q 77 406 77 224 l 77 581 q 185 882 77 762 q 466 1002 293 1002 q 757 882 645 1002 q 869 581 869 762 l 869 406 m 736 583 q 663 805 736 718 q 466 892 589 892 q 280 805 349 892 q 210 583 210 718 l 210 406 q 280 182 210 269 q 466 95 349 95 q 663 181 590 95 q 736 406 736 268 l 736 583 m 659 1280 l 814 1280 l 817 1276 l 613 1100 l 497 1100 l 496 1103 l 659 1280 m 438 1280 l 581 1280 l 583 1277 l 420 1100 l 313 1100 l 438 1280 z "},"ő":{"ha":789,"x_min":66,"x_max":738,"o":"m 66 374 q 154 642 66 536 q 393 747 242 747 q 634 642 546 747 q 723 374 723 537 l 723 359 q 635 90 723 195 q 395 -14 547 -14 q 154 91 243 -14 q 66 359 66 195 l 66 374 m 199 359 q 249 166 199 242 q 395 90 298 90 q 540 166 490 90 q 589 359 589 242 l 589 374 q 539 566 589 489 q 393 642 490 642 q 249 566 298 642 q 199 374 199 489 l 199 359 m 581 1048 l 736 1048 l 738 1044 l 534 867 l 418 867 l 417 871 l 581 1048 m 359 1048 l 503 1048 l 504 1044 l 341 867 l 235 867 l 359 1048 z "},"Œ":{"ha":1329,"x_min":71,"x_max":1269,"o":"m 1269 0 l 646 0 q 540 -11 584 -7 q 450 -14 496 -14 q 176 98 281 -14 q 71 391 71 211 l 71 597 q 175 889 71 777 q 449 1002 280 1002 q 544 998 496 1002 q 646 987 593 994 l 1261 987 l 1261 882 l 747 882 l 747 563 l 1200 563 l 1200 458 l 747 458 l 747 104 l 1269 104 l 1269 0 m 450 91 q 533 94 492 91 q 614 103 574 97 l 614 884 q 531 893 572 889 q 449 897 490 897 q 269 820 334 897 q 204 598 204 743 l 204 391 q 270 168 204 245 q 450 91 336 91 z "},"œ":{"ha":1257,"x_min":66,"x_max":1209,"o":"m 929 -14 q 771 21 840 -14 q 659 122 703 57 q 548 21 615 57 q 395 -14 481 -14 q 154 91 243 -14 q 66 359 66 195 l 66 374 q 154 642 66 536 q 393 747 242 747 q 549 710 481 747 q 661 607 617 673 q 770 710 705 673 q 909 747 836 747 q 1133 658 1057 747 q 1209 419 1209 568 l 1209 336 l 733 336 l 731 332 q 785 158 733 227 q 929 90 836 90 q 1048 110 997 90 q 1137 163 1099 129 l 1189 76 q 1085 12 1149 37 q 929 -14 1021 -14 m 199 359 q 249 166 199 242 q 395 90 298 90 q 540 166 490 90 q 589 359 589 242 l 589 374 q 539 566 589 489 q 393 642 490 642 q 249 566 298 642 q 199 374 199 489 l 199 359 m 909 642 q 794 586 842 642 q 736 444 747 529 l 737 440 l 1076 440 l 1076 458 q 1034 589 1076 536 q 909 642 991 642 z "},"Ŕ":{"ha":920,"x_min":122,"x_max":855,"o":"m 256 428 l 256 0 l 122 0 l 122 987 l 479 987 q 727 915 642 987 q 812 706 812 843 q 773 574 812 630 q 657 484 733 517 q 774 398 739 458 q 810 252 810 339 l 810 159 q 820 76 810 113 q 855 16 830 39 l 855 0 l 718 0 q 684 68 691 23 q 676 160 676 113 l 676 250 q 629 379 676 330 q 504 428 583 428 l 256 428 m 256 533 l 466 533 q 629 576 579 533 q 679 707 679 619 q 630 837 679 791 q 479 882 582 882 l 256 882 l 256 533 m 485 1236 l 641 1236 l 642 1232 l 459 1055 l 359 1055 l 485 1236 z "},"ŕ":{"ha":476,"x_min":97,"x_max":502,"o":"m 444 616 l 376 620 q 287 595 323 620 q 231 524 250 570 l 231 0 l 97 0 l 97 734 l 216 734 l 229 627 q 306 715 260 684 q 412 747 352 747 q 440 745 427 747 q 463 740 454 743 l 444 616 m 345 1017 l 500 1017 l 502 1013 l 319 837 l 219 837 l 345 1017 z "},"Ŗ":{"ha":920,"x_min":122,"x_max":855,"o":"m 256 428 l 256 0 l 122 0 l 122 987 l 479 987 q 727 915 642 987 q 812 706 812 843 q 773 574 812 630 q 657 484 733 517 q 774 398 739 458 q 810 252 810 339 l 810 159 q 820 76 810 113 q 855 16 830 39 l 855 0 l 718 0 q 684 68 691 23 q 676 160 676 113 l 676 250 q 629 379 676 330 q 504 428 583 428 l 256 428 m 256 533 l 466 533 q 629 576 579 533 q 679 707 679 619 q 630 837 679 791 q 479 882 582 882 l 256 882 l 256 533 m 469 -161 l 386 -322 l 320 -322 l 361 -155 l 361 -66 l 469 -66 l 469 -161 z "},"ŗ":{"ha":476,"x_min":73,"x_max":463,"o":"m 444 616 l 376 620 q 287 595 323 620 q 231 524 250 570 l 231 0 l 97 0 l 97 734 l 216 734 l 229 627 q 306 715 260 684 q 412 747 352 747 q 440 745 427 747 q 463 740 454 743 l 444 616 m 221 -161 l 138 -322 l 73 -322 l 114 -155 l 114 -66 l 221 -66 l 221 -161 z "},"Ř":{"ha":920,"x_min":122,"x_max":855,"o":"m 256 428 l 256 0 l 122 0 l 122 987 l 479 987 q 727 915 642 987 q 812 706 812 843 q 773 574 812 630 q 657 484 733 517 q 774 398 739 458 q 810 252 810 339 l 810 159 q 820 76 810 113 q 855 16 830 39 l 855 0 l 718 0 q 684 68 691 23 q 676 160 676 113 l 676 250 q 629 379 676 330 q 504 428 583 428 l 256 428 m 256 533 l 466 533 q 629 576 579 533 q 679 707 679 619 q 630 837 679 791 q 479 882 582 882 l 256 882 l 256 533 m 420 1164 l 519 1265 l 635 1265 l 635 1253 l 460 1086 l 380 1086 l 208 1251 l 208 1265 l 320 1265 l 420 1164 z "},"ř":{"ha":476,"x_min":68,"x_max":496,"o":"m 444 616 l 376 620 q 287 595 323 620 q 231 524 250 570 l 231 0 l 97 0 l 97 734 l 216 734 l 229 627 q 306 715 260 684 q 412 747 352 747 q 440 745 427 747 q 463 740 454 743 l 444 616 m 281 946 l 380 1046 l 496 1046 l 496 1034 l 321 868 l 241 868 l 68 1033 l 68 1046 l 181 1046 l 281 946 z "},"Ś":{"ha":866,"x_min":66,"x_max":793,"o":"m 660 249 q 609 362 660 317 q 429 439 558 408 q 184 549 272 477 q 96 732 96 622 q 191 924 96 847 q 436 1002 286 1002 q 694 913 598 1002 q 787 707 790 824 l 785 703 l 658 703 q 601 843 658 789 q 436 897 543 897 q 283 851 336 897 q 230 734 230 806 q 288 626 230 669 q 475 551 345 583 q 712 437 631 512 q 793 250 793 361 q 696 58 793 131 q 441 -14 598 -14 q 179 66 293 -14 q 69 280 66 146 l 71 284 l 198 284 q 268 140 198 189 q 441 90 338 90 q 601 133 542 90 q 660 249 660 176 m 480 1250 l 636 1250 l 637 1246 l 454 1069 l 355 1069 l 480 1250 z "},"ś":{"ha":726,"x_min":70,"x_max":657,"o":"m 524 195 q 490 267 524 239 q 363 317 456 296 q 162 396 229 346 q 94 532 94 446 q 170 684 94 621 q 368 747 246 747 q 572 682 496 747 q 644 522 648 616 l 643 517 l 515 517 q 475 604 515 566 q 368 642 435 642 q 262 611 297 642 q 228 536 228 580 q 258 467 228 492 q 382 422 289 442 q 589 341 522 393 q 657 204 657 290 q 578 46 657 106 q 372 -14 499 -14 q 151 57 231 -14 q 74 223 70 128 l 75 227 l 203 227 q 256 123 206 156 q 372 90 305 90 q 483 119 443 90 q 524 195 524 148 m 427 1017 l 583 1017 l 585 1013 l 401 837 l 302 837 l 427 1017 z "},"Ŝ":{"ha":866,"x_min":66,"x_max":793,"o":"m 660 249 q 609 362 660 317 q 429 439 558 408 q 184 549 272 477 q 96 732 96 622 q 191 924 96 847 q 436 1002 286 1002 q 694 913 598 1002 q 787 707 790 824 l 785 703 l 658 703 q 601 843 658 789 q 436 897 543 897 q 283 851 336 897 q 230 734 230 806 q 288 626 230 669 q 475 551 345 583 q 712 437 631 512 q 793 250 793 361 q 696 58 793 131 q 441 -14 598 -14 q 179 66 293 -14 q 69 280 66 146 l 71 284 l 198 284 q 268 140 198 189 q 441 90 338 90 q 601 133 542 90 q 660 249 660 176 m 625 1117 l 625 1100 l 515 1100 l 416 1200 l 317 1100 l 208 1100 l 208 1118 l 375 1278 l 456 1278 l 625 1117 z "},"ŝ":{"ha":726,"x_min":70,"x_max":657,"o":"m 524 195 q 490 267 524 239 q 363 317 456 296 q 162 396 229 346 q 94 532 94 446 q 170 684 94 621 q 368 747 246 747 q 572 682 496 747 q 644 522 648 616 l 643 517 l 515 517 q 475 604 515 566 q 368 642 435 642 q 262 611 297 642 q 228 536 228 580 q 258 467 228 492 q 382 422 289 442 q 589 341 522 393 q 657 204 657 290 q 578 46 657 106 q 372 -14 499 -14 q 151 57 231 -14 q 74 223 70 128 l 75 227 l 203 227 q 256 123 206 156 q 372 90 305 90 q 483 119 443 90 q 524 195 524 148 m 572 884 l 572 867 l 463 867 l 363 968 l 264 867 l 155 867 l 155 885 l 322 1046 l 404 1046 l 572 884 z "},"Ş":{"ha":866,"x_min":66,"x_max":793,"o":"m 660 249 q 609 362 660 317 q 429 439 558 408 q 184 549 272 477 q 96 732 96 622 q 191 924 96 847 q 436 1002 286 1002 q 694 913 598 1002 q 787 707 790 824 l 785 703 l 658 703 q 601 843 658 789 q 436 897 543 897 q 283 851 336 897 q 230 734 230 806 q 288 626 230 669 q 475 551 345 583 q 712 437 631 512 q 793 250 793 361 q 696 58 793 131 q 441 -14 598 -14 q 179 66 293 -14 q 69 280 66 146 l 71 284 l 198 284 q 268 140 198 189 q 441 90 338 90 q 601 133 542 90 q 660 249 660 176 m 467 -5 l 459 -41 q 532 -76 503 -48 q 562 -158 562 -104 q 508 -262 562 -223 q 355 -300 454 -300 l 350 -227 q 429 -210 399 -227 q 458 -160 458 -193 q 434 -115 458 -127 q 351 -97 410 -102 l 372 -5 l 467 -5 z "},"ş":{"ha":726,"x_min":70,"x_max":657,"o":"m 524 195 q 490 267 524 239 q 363 317 456 296 q 162 396 229 346 q 94 532 94 446 q 170 684 94 621 q 368 747 246 747 q 572 682 496 747 q 644 522 648 616 l 643 517 l 515 517 q 475 604 515 566 q 368 642 435 642 q 262 611 297 642 q 228 536 228 580 q 258 467 228 492 q 382 422 289 442 q 589 341 522 393 q 657 204 657 290 q 578 46 657 106 q 372 -14 499 -14 q 151 57 231 -14 q 74 223 70 128 l 75 227 l 203 227 q 256 123 206 156 q 372 90 305 90 q 483 119 443 90 q 524 195 524 148 m 414 -5 l 406 -40 q 479 -75 450 -47 q 509 -157 509 -103 q 455 -261 509 -222 q 302 -300 401 -300 l 297 -226 q 376 -209 346 -226 q 406 -159 406 -193 q 381 -114 406 -127 q 298 -96 357 -101 l 319 -5 l 414 -5 z "},"Š":{"ha":866,"x_min":66,"x_max":793,"o":"m 660 249 q 609 362 660 317 q 429 439 558 408 q 184 549 272 477 q 96 732 96 622 q 191 924 96 847 q 436 1002 286 1002 q 694 913 598 1002 q 787 707 790 824 l 785 703 l 658 703 q 601 843 658 789 q 436 897 543 897 q 283 851 336 897 q 230 734 230 806 q 288 626 230 669 q 475 551 345 583 q 712 437 631 512 q 793 250 793 361 q 696 58 793 131 q 441 -14 598 -14 q 179 66 293 -14 q 69 280 66 146 l 71 284 l 198 284 q 268 140 198 189 q 441 90 338 90 q 601 133 542 90 q 660 249 660 176 m 415 1179 l 515 1279 l 630 1279 l 630 1267 l 456 1101 l 375 1101 l 203 1265 l 203 1279 l 315 1279 l 415 1179 z "},"š":{"ha":726,"x_min":70,"x_max":657,"o":"m 524 195 q 490 267 524 239 q 363 317 456 296 q 162 396 229 346 q 94 532 94 446 q 170 684 94 621 q 368 747 246 747 q 572 682 496 747 q 644 522 648 616 l 643 517 l 515 517 q 475 604 515 566 q 368 642 435 642 q 262 611 297 642 q 228 536 228 580 q 258 467 228 492 q 382 422 289 442 q 589 341 522 393 q 657 204 657 290 q 578 46 657 106 q 372 -14 499 -14 q 151 57 231 -14 q 74 223 70 128 l 75 227 l 203 227 q 256 123 206 156 q 372 90 305 90 q 483 119 443 90 q 524 195 524 148 m 362 946 l 462 1046 l 577 1046 l 577 1034 l 403 868 l 322 868 l 150 1033 l 150 1046 l 262 1046 l 362 946 z "},"Ţ":{"ha":814,"x_min":23,"x_max":791,"o":"m 791 882 l 473 882 l 473 0 l 340 0 l 340 882 l 23 882 l 23 987 l 791 987 l 791 882 m 457 -161 l 374 -322 l 309 -322 l 350 -155 l 350 -66 l 457 -66 l 457 -161 z "},"ţ":{"ha":480,"x_min":23,"x_max":419,"o":"m 273 911 l 273 734 l 412 734 l 412 635 l 273 635 l 273 189 q 295 117 273 138 q 351 96 316 96 q 377 98 363 96 q 401 105 391 101 l 419 14 q 375 -6 404 1 q 317 -14 347 -14 q 188 35 236 -14 q 140 189 140 84 l 140 635 l 23 635 l 23 734 l 140 734 l 140 911 l 273 911 m 357 -168 l 275 -329 l 209 -329 l 250 -162 l 250 -73 l 357 -73 l 357 -168 z "},"Ť":{"ha":814,"x_min":23,"x_max":791,"o":"m 791 882 l 473 882 l 473 0 l 340 0 l 340 882 l 23 882 l 23 987 l 791 987 l 791 882 m 408 1164 l 508 1264 l 623 1264 l 623 1252 l 449 1086 l 368 1086 l 196 1251 l 196 1264 l 309 1264 l 408 1164 z "},"ť":{"ha":507,"x_min":23,"x_max":518,"o":"m 273 911 l 273 734 l 412 734 l 412 635 l 273 635 l 273 189 q 295 117 273 138 q 351 96 316 96 q 377 98 363 96 q 401 105 391 101 l 419 14 q 375 -6 404 1 q 317 -14 347 -14 q 188 35 236 -14 q 140 189 140 84 l 140 635 l 23 635 l 23 734 l 140 734 l 140 911 l 273 911 m 518 981 l 435 821 l 370 821 l 411 987 l 411 1076 l 518 1076 l 518 981 z "},"Ŧ":{"ha":814,"x_min":23,"x_max":791,"o":"m 623 556 l 473 556 l 473 0 l 340 0 l 340 556 l 188 556 l 188 661 l 340 661 l 340 882 l 23 882 l 23 987 l 791 987 l 791 882 l 473 882 l 473 661 l 623 661 l 623 556 z "},"ŧ":{"ha":480,"x_min":-5,"x_max":429,"o":"m 273 911 l 273 734 l 412 734 l 412 635 l 273 635 l 273 512 l 429 512 l 429 407 l 273 407 l 273 189 q 295 117 273 138 q 351 96 316 96 q 377 98 363 96 q 401 105 391 101 l 419 14 q 375 -6 404 1 q 317 -14 347 -14 q 188 35 236 -14 q 140 189 140 84 l 140 407 l -5 407 l -5 512 l 140 512 l 140 635 l 23 635 l 23 734 l 140 734 l 140 911 l 273 911 z "},"Ũ":{"ha":940,"x_min":100,"x_max":844,"o":"m 844 987 l 844 318 q 739 71 844 157 q 465 -14 634 -14 q 201 72 302 -14 q 100 318 100 157 l 100 987 l 233 987 l 233 318 q 297 148 233 206 q 465 90 361 90 q 643 148 575 90 q 710 318 710 206 l 710 987 l 844 987 m 708 1251 q 668 1143 708 1187 q 566 1099 627 1099 q 466 1130 518 1099 q 379 1162 414 1162 q 330 1140 350 1162 q 311 1086 311 1118 l 237 1104 q 277 1214 237 1167 q 379 1260 317 1260 q 474 1228 417 1260 q 566 1196 531 1196 q 614 1218 594 1196 q 635 1272 635 1240 l 708 1251 z "},"ũ":{"ha":789,"x_min":94,"x_max":692,"o":"m 563 109 q 474 18 528 50 q 349 -14 420 -14 q 161 62 229 -14 q 94 301 94 139 l 94 734 l 228 734 l 228 300 q 262 138 228 182 q 370 94 297 94 q 488 123 441 94 q 558 205 534 152 l 558 734 l 692 734 l 692 0 l 572 0 l 563 109 m 629 1018 q 588 910 629 954 q 487 866 548 866 q 387 898 439 866 q 300 929 334 929 q 251 907 271 929 q 231 854 231 885 l 158 871 q 198 981 158 935 q 300 1027 238 1027 q 395 996 338 1027 q 487 964 452 964 q 535 986 515 964 q 555 1040 555 1008 l 629 1018 z "},"Ū":{"ha":940,"x_min":100,"x_max":844,"o":"m 844 987 l 844 318 q 739 71 844 157 q 465 -14 634 -14 q 201 72 302 -14 q 100 318 100 157 l 100 987 l 233 987 l 233 318 q 297 148 233 206 q 465 90 361 90 q 643 148 575 90 q 710 318 710 206 l 710 987 l 844 987 m 721 1112 l 232 1112 l 232 1211 l 721 1211 l 721 1112 z "},"ū":{"ha":789,"x_min":94,"x_max":692,"o":"m 563 109 q 474 18 528 50 q 349 -14 420 -14 q 161 62 229 -14 q 94 301 94 139 l 94 734 l 228 734 l 228 300 q 262 138 228 182 q 370 94 297 94 q 488 123 441 94 q 558 205 534 152 l 558 734 l 692 734 l 692 0 l 572 0 l 563 109 m 642 881 l 153 881 l 153 980 l 642 980 l 642 881 z "},"Ŭ":{"ha":940,"x_min":100,"x_max":844,"o":"m 844 987 l 844 318 q 739 71 844 157 q 465 -14 634 -14 q 201 72 302 -14 q 100 318 100 157 l 100 987 l 233 987 l 233 318 q 297 148 233 206 q 465 90 361 90 q 643 148 575 90 q 710 318 710 206 l 710 987 l 844 987 m 672 1268 l 673 1264 q 621 1136 676 1185 q 473 1086 566 1086 q 325 1136 380 1086 q 273 1264 270 1185 l 275 1268 l 377 1268 q 400 1196 377 1223 q 473 1168 423 1168 q 546 1196 522 1168 q 570 1268 570 1224 l 672 1268 z "},"ŭ":{"ha":789,"x_min":94,"x_max":692,"o":"m 563 109 q 474 18 528 50 q 349 -14 420 -14 q 161 62 229 -14 q 94 301 94 139 l 94 734 l 228 734 l 228 300 q 262 138 228 182 q 370 94 297 94 q 488 123 441 94 q 558 205 534 152 l 558 734 l 692 734 l 692 0 l 572 0 l 563 109 m 593 1036 l 594 1031 q 542 903 597 953 q 394 854 487 854 q 245 903 300 854 q 194 1031 191 953 l 195 1036 l 298 1036 q 321 963 298 991 q 394 935 344 935 q 467 963 443 935 q 490 1036 490 991 l 593 1036 z "},"Ů":{"ha":940,"x_min":100,"x_max":844,"o":"m 844 987 l 844 318 q 739 71 844 157 q 465 -14 634 -14 q 201 72 302 -14 q 100 318 100 157 l 100 987 l 233 987 l 233 318 q 297 148 233 206 q 465 90 361 90 q 643 148 575 90 q 710 318 710 206 l 710 987 l 844 987 m 331 1176 q 372 1272 331 1233 q 472 1310 413 1310 q 570 1272 530 1310 q 611 1176 611 1234 q 571 1081 611 1118 q 472 1044 530 1044 q 372 1081 413 1044 q 331 1176 331 1118 m 401 1176 q 422 1126 401 1147 q 472 1105 443 1105 q 521 1125 500 1105 q 541 1176 541 1145 q 521 1227 541 1206 q 472 1249 500 1249 q 422 1227 443 1249 q 401 1176 401 1206 z "},"ů":{"ha":789,"x_min":94,"x_max":692,"o":"m 563 109 q 474 18 528 50 q 349 -14 420 -14 q 161 62 229 -14 q 94 301 94 139 l 94 734 l 228 734 l 228 300 q 262 138 228 182 q 370 94 297 94 q 488 123 441 94 q 558 205 534 152 l 558 734 l 692 734 l 692 0 l 572 0 l 563 109 m 252 943 q 293 1039 252 1000 q 393 1078 334 1078 q 491 1039 450 1078 q 532 943 532 1001 q 491 848 532 885 q 393 812 451 812 q 293 848 334 812 q 252 943 252 885 m 321 943 q 342 893 321 914 q 393 873 363 873 q 441 893 421 873 q 462 943 462 913 q 441 995 462 974 q 393 1016 421 1016 q 342 995 363 1016 q 321 943 321 974 z "},"Ű":{"ha":940,"x_min":100,"x_max":844,"o":"m 844 987 l 844 318 q 739 71 844 157 q 465 -14 634 -14 q 201 72 302 -14 q 100 318 100 157 l 100 987 l 233 987 l 233 318 q 297 148 233 206 q 465 90 361 90 q 643 148 575 90 q 710 318 710 206 l 710 987 l 844 987 m 659 1266 l 814 1266 l 816 1262 l 612 1086 l 496 1086 l 495 1089 l 659 1266 m 437 1266 l 581 1266 l 582 1263 l 419 1086 l 313 1086 l 437 1266 z "},"ű":{"ha":789,"x_min":94,"x_max":736,"o":"m 563 109 q 474 18 528 50 q 349 -14 420 -14 q 161 62 229 -14 q 94 301 94 139 l 94 734 l 228 734 l 228 300 q 262 138 228 182 q 370 94 297 94 q 488 123 441 94 q 558 205 534 152 l 558 734 l 692 734 l 692 0 l 572 0 l 563 109 m 579 1034 l 734 1034 l 736 1029 l 533 853 l 417 853 l 416 857 l 579 1034 m 358 1034 l 501 1034 l 503 1030 l 340 853 l 233 853 l 358 1034 z "},"Ų":{"ha":940,"x_min":100,"x_max":844,"o":"m 844 987 l 844 318 q 739 71 844 157 q 465 -14 634 -14 q 201 72 302 -14 q 100 318 100 157 l 100 987 l 233 987 l 233 318 q 297 148 233 206 q 465 90 361 90 q 643 148 575 90 q 710 318 710 206 l 710 987 l 844 987 m 551 0 q 477 -67 504 -35 q 450 -136 450 -100 q 466 -181 450 -165 q 515 -197 481 -197 q 549 -192 534 -197 q 583 -180 565 -187 l 605 -263 q 551 -284 581 -276 q 481 -293 522 -293 q 375 -256 416 -293 q 334 -151 334 -218 q 375 -48 334 -97 q 503 39 416 1 l 551 0 z "},"ų":{"ha":789,"x_min":94,"x_max":728,"o":"m 563 109 q 474 18 528 50 q 349 -14 420 -14 q 161 62 229 -14 q 94 301 94 139 l 94 734 l 228 734 l 228 300 q 262 138 228 182 q 370 94 297 94 q 488 123 441 94 q 558 205 534 152 l 558 734 l 692 734 l 692 0 l 572 0 l 563 109 m 675 0 q 601 -67 627 -35 q 574 -136 574 -100 q 589 -181 574 -165 q 639 -197 604 -197 q 673 -192 657 -197 q 706 -180 688 -187 l 728 -263 q 674 -284 704 -276 q 604 -293 645 -293 q 499 -256 540 -293 q 458 -151 458 -218 q 499 -48 458 -97 q 626 39 540 1 l 675 0 z "},"Ŵ":{"ha":1227,"x_min":37,"x_max":1182,"o":"m 320 342 l 338 218 l 342 218 l 369 342 l 550 987 l 668 987 l 850 342 l 878 215 l 882 215 l 901 342 l 1048 987 l 1182 987 l 944 0 l 825 0 l 630 685 l 612 774 l 608 774 l 591 685 l 393 0 l 274 0 l 37 987 l 170 987 l 320 342 m 818 1103 l 818 1086 l 709 1086 l 609 1186 l 510 1086 l 401 1086 l 401 1103 l 568 1264 l 650 1264 l 818 1103 z "},"ŵ":{"ha":1051,"x_min":31,"x_max":1017,"o":"m 285 267 l 300 178 l 304 178 l 323 267 l 470 734 l 577 734 l 724 267 l 745 168 l 749 168 l 769 267 l 884 734 l 1017 734 l 804 0 l 696 0 l 555 447 l 524 572 l 520 571 l 491 447 l 351 0 l 243 0 l 31 734 l 163 734 l 285 267 m 733 870 l 733 853 l 624 853 l 524 954 l 425 853 l 317 853 l 317 871 l 484 1031 l 565 1031 l 733 870 z "},"Ŷ":{"ha":848,"x_min":14,"x_max":834,"o":"m 424 486 l 682 987 l 834 987 l 488 347 l 488 0 l 355 0 l 355 356 l 14 987 l 166 987 l 424 486 m 633 1102 l 633 1085 l 524 1085 l 424 1185 l 325 1085 l 216 1085 l 216 1103 l 383 1263 l 465 1263 l 633 1102 z "},"ŷ":{"ha":699,"x_min":18,"x_max":678,"o":"m 321 272 l 345 180 l 349 180 l 530 734 l 678 734 l 370 -113 q 290 -241 342 -186 q 150 -296 238 -296 q 109 -293 134 -296 q 70 -286 83 -289 l 83 -180 q 107 -182 79 -180 q 143 -184 136 -184 q 213 -146 186 -184 q 258 -62 240 -108 l 290 15 l 18 734 l 167 734 l 321 272 m 557 870 l 557 853 l 448 853 l 349 954 l 250 853 l 141 853 l 141 871 l 308 1031 l 389 1031 l 557 870 z "},"Ÿ":{"ha":848,"x_min":14,"x_max":834,"o":"m 424 486 l 682 987 l 834 987 l 488 347 l 488 0 l 355 0 l 355 356 l 14 987 l 166 987 l 424 486 m 658 1088 l 509 1088 l 509 1223 l 658 1223 l 658 1088 m 339 1088 l 191 1088 l 191 1223 l 339 1223 l 339 1088 z "},"Ź":{"ha":831,"x_min":66,"x_max":768,"o":"m 216 104 l 768 104 l 768 0 l 66 0 l 66 99 l 593 882 l 73 882 l 73 987 l 746 987 l 746 892 l 216 104 m 477 1236 l 633 1236 l 635 1232 l 452 1055 l 352 1055 l 477 1236 z "},"ź":{"ha":699,"x_min":64,"x_max":647,"o":"m 223 104 l 647 104 l 647 0 l 64 0 l 64 94 l 460 628 l 68 628 l 68 734 l 624 734 l 624 643 l 223 104 m 420 1003 l 576 1003 l 577 999 l 394 823 l 294 823 l 420 1003 z "},"Ż":{"ha":831,"x_min":66,"x_max":768,"o":"m 216 104 l 768 104 l 768 0 l 66 0 l 66 99 l 593 882 l 73 882 l 73 987 l 746 987 l 746 892 l 216 104 m 487 1088 l 339 1088 l 339 1224 l 487 1224 l 487 1088 z "},"ż":{"ha":699,"x_min":64,"x_max":647,"o":"m 223 104 l 647 104 l 647 0 l 64 0 l 64 94 l 460 628 l 68 628 l 68 734 l 624 734 l 624 643 l 223 104 m 429 855 l 281 855 l 281 991 l 429 991 l 429 855 z "},"Ž":{"ha":831,"x_min":66,"x_max":768,"o":"m 216 104 l 768 104 l 768 0 l 66 0 l 66 99 l 593 882 l 73 882 l 73 987 l 746 987 l 746 892 l 216 104 m 412 1164 l 512 1265 l 627 1265 l 627 1253 l 453 1086 l 372 1086 l 200 1251 l 200 1265 l 313 1265 l 412 1164 z "},"ž":{"ha":699,"x_min":64,"x_max":647,"o":"m 223 104 l 647 104 l 647 0 l 64 0 l 64 94 l 460 628 l 68 628 l 68 734 l 624 734 l 624 643 l 223 104 m 355 932 l 454 1032 l 570 1032 l 570 1020 l 395 854 l 315 854 l 142 1019 l 142 1032 l 255 1032 l 355 932 z "},"ſ":{"ha":350,"x_min":108,"x_max":439,"o":"m 108 0 l 108 827 q 170 1008 108 944 q 341 1072 231 1072 q 387 1068 363 1072 q 439 1058 410 1065 l 422 960 q 394 965 409 963 q 362 967 379 967 q 272 930 303 967 q 241 827 241 893 l 241 0 l 108 0 z "},"ƒ":{"ha":476,"x_min":-16,"x_max":477,"o":"m 413 635 l 280 635 l 280 -60 q 222 -235 280 -174 q 60 -296 164 -296 q 20 -293 38 -296 q -16 -284 3 -290 l -6 -182 q 25 -189 2 -186 q 60 -191 47 -191 q 123 -156 100 -191 q 146 -60 146 -121 l 146 635 l 32 635 l 32 734 l 146 734 l 146 827 q 208 1008 146 944 q 379 1072 269 1072 q 426 1068 402 1072 q 477 1058 449 1065 l 461 956 q 432 961 449 959 q 396 963 414 963 q 309 928 337 963 q 280 827 280 893 l 280 734 l 413 734 l 413 635 z "},"Ơ":{"ha":951,"x_min":73,"x_max":1041,"o":"m 866 406 q 754 105 866 224 q 463 -14 642 -14 q 181 105 290 -14 q 73 406 73 224 l 73 581 q 181 882 73 762 q 463 1002 290 1002 q 614 975 544 1002 q 737 898 684 947 q 864 963 821 905 q 907 1121 907 1021 l 1041 1121 q 981 908 1041 991 q 812 802 922 826 q 852 697 838 753 q 866 581 866 641 l 866 406 m 732 583 q 659 805 732 718 q 463 892 586 892 q 276 805 346 892 q 207 583 207 718 l 207 406 q 276 182 207 269 q 463 95 346 95 q 660 181 587 95 q 732 406 732 268 l 732 583 z "},"ơ":{"ha":797,"x_min":66,"x_max":852,"o":"m 66 374 q 154 642 66 536 q 393 747 242 747 q 520 724 463 747 q 621 657 578 700 q 704 714 677 669 q 731 829 731 759 l 852 829 q 807 669 852 732 q 674 583 762 605 q 710 485 698 538 q 723 374 723 432 l 723 359 q 635 90 723 195 q 395 -14 547 -14 q 154 91 243 -14 q 66 359 66 195 l 66 374 m 199 359 q 249 166 199 242 q 395 90 298 90 q 540 166 490 90 q 589 359 589 242 l 589 374 q 539 566 589 489 q 393 642 490 642 q 249 566 298 642 q 199 374 199 489 l 199 359 z "},"Ư":{"ha":970,"x_min":100,"x_max":1101,"o":"m 844 987 l 844 867 l 848 865 q 937 939 906 884 q 968 1079 968 994 l 1097 1079 l 1099 1076 q 1034 862 1101 945 q 844 757 968 780 l 844 318 q 739 71 844 157 q 465 -14 634 -14 q 201 72 302 -14 q 100 318 100 157 l 100 987 l 233 987 l 233 318 q 297 148 233 206 q 465 90 361 90 q 643 148 575 90 q 710 318 710 206 l 710 987 l 844 987 z "},"ư":{"ha":817,"x_min":94,"x_max":940,"o":"m 936 832 l 938 828 q 880 643 940 708 q 692 568 820 578 l 692 0 l 572 0 l 563 109 q 474 18 528 50 q 349 -14 420 -14 q 161 62 229 -14 q 94 301 94 139 l 94 734 l 228 734 l 228 300 q 262 138 228 182 q 370 94 297 94 q 488 123 441 94 q 558 205 534 152 l 558 734 l 692 734 l 692 656 l 696 655 q 792 703 764 660 q 821 832 821 747 l 936 832 z "},"ǰ":{"ha":355,"x_min":-46,"x_max":399,"o":"m 250 734 l 250 -60 q 191 -235 250 -174 q 29 -296 133 -296 q -9 -293 8 -296 q -46 -284 -26 -290 l -37 -182 q -5 -189 -27 -186 q 29 -191 17 -191 q 93 -156 69 -191 q 116 -60 116 -121 l 116 734 l 250 734 m 184 920 l 283 1020 l 399 1020 l 399 1008 l 224 842 l 144 842 l -28 1006 l -28 1020 l 84 1020 l 184 920 z "},"Ǻ":{"ha":899,"x_min":14,"x_max":886,"o":"m 657 254 l 243 254 l 150 0 l 14 0 l 395 987 l 510 987 l 886 0 l 749 0 l 657 254 m 285 366 l 617 366 l 454 816 l 450 816 l 285 366 m 515 1414 l 650 1414 l 651 1410 l 505 1289 l 417 1289 l 515 1414 m 330 1142 q 365 1223 330 1191 q 449 1255 399 1255 q 530 1223 496 1255 q 564 1142 564 1191 q 531 1062 564 1093 q 449 1031 497 1031 q 365 1062 399 1031 q 330 1142 330 1093 m 390 1142 q 407 1102 390 1118 q 449 1085 425 1085 q 489 1101 472 1085 q 505 1142 505 1118 q 489 1184 505 1167 q 449 1202 472 1202 q 407 1184 425 1202 q 390 1142 390 1167 z "},"ǻ":{"ha":764,"x_min":72,"x_max":686,"o":"m 548 0 q 537 59 541 33 q 533 110 534 84 q 436 21 496 57 q 307 -14 376 -14 q 132 44 192 -14 q 72 206 72 103 q 157 371 72 311 q 388 430 242 430 l 533 430 l 533 503 q 494 605 533 567 q 382 642 454 642 q 278 609 318 642 q 237 530 237 576 l 110 530 l 109 534 q 184 681 104 614 q 390 747 264 747 q 591 684 515 747 q 667 501 667 621 l 667 148 q 671 72 667 109 q 686 0 675 35 l 548 0 m 326 98 q 457 135 399 98 q 533 220 515 172 l 533 340 l 383 340 q 254 299 302 340 q 205 203 205 258 q 236 126 205 155 q 326 98 267 98 m 444 1196 l 579 1196 l 581 1192 l 434 1070 l 347 1070 l 444 1196 m 260 924 q 294 1005 260 972 q 378 1037 329 1037 q 460 1005 426 1037 q 494 924 494 972 q 460 844 494 875 q 378 812 427 812 q 294 844 329 812 q 260 924 260 875 m 319 924 q 337 883 319 900 q 378 867 354 867 q 418 883 401 867 q 435 924 435 899 q 418 966 435 949 q 378 983 401 983 q 337 966 354 983 q 319 924 319 949 z "},"Ǽ":{"ha":1303,"x_min":-14,"x_max":1281,"o":"m 1281 0 l 674 0 l 664 237 l 286 237 l 149 0 l -14 0 l 583 987 l 1239 987 l 1239 882 l 770 882 l 784 566 l 1184 566 l 1184 461 l 788 461 l 803 104 l 1281 104 l 1281 0 m 356 359 l 659 359 l 638 840 l 635 842 l 356 359 m 699 1236 l 854 1236 l 856 1232 l 673 1055 l 573 1055 l 699 1236 z "},"ǽ":{"ha":1173,"x_min":39,"x_max":1126,"o":"m 856 -14 q 693 19 764 -14 q 578 113 623 52 q 464 22 540 59 q 280 -14 389 -14 q 102 45 165 -14 q 39 206 39 104 q 117 372 39 313 q 345 431 195 431 l 500 431 l 500 488 q 465 601 500 560 q 363 642 430 642 q 252 605 294 642 q 211 515 211 568 l 83 527 l 82 531 q 156 686 79 625 q 363 747 234 747 q 500 720 441 747 q 593 640 559 692 q 696 719 637 691 q 824 747 755 747 q 1047 659 969 747 q 1126 416 1126 571 l 1126 336 l 645 336 l 644 332 q 697 157 644 224 q 856 90 751 90 q 971 109 926 90 q 1069 162 1016 127 l 1114 68 q 1015 12 1078 39 q 856 -14 951 -14 m 307 90 q 414 120 358 90 q 500 188 471 149 l 500 334 l 346 334 q 219 296 264 334 q 173 203 173 258 q 207 122 173 153 q 307 90 241 90 m 824 642 q 701 585 747 642 q 646 437 654 528 l 648 434 l 992 434 l 992 455 q 951 590 992 538 q 824 642 911 642 m 647 1018 l 803 1018 l 804 1014 l 621 838 l 522 838 l 647 1018 z "},"Ǿ":{"ha":947,"x_min":77,"x_max":869,"o":"m 869 406 q 757 105 869 224 q 466 -14 645 -14 q 357 0 408 -14 q 262 41 306 14 l 201 -64 l 100 -64 l 194 95 q 107 232 137 152 q 77 406 77 312 l 77 581 q 185 882 77 762 q 466 1002 293 1002 q 587 984 530 1002 q 693 936 644 967 l 748 1029 l 849 1029 l 760 879 q 841 745 812 822 q 869 581 869 669 l 869 406 m 210 406 q 223 298 210 348 q 260 214 236 249 l 264 213 l 633 834 q 557 877 599 862 q 466 892 515 892 q 280 805 349 892 q 210 583 210 718 l 210 406 m 736 583 q 725 679 736 633 q 693 758 713 724 l 689 759 l 322 141 q 388 106 352 118 q 466 95 424 95 q 663 181 590 95 q 736 406 736 268 l 736 583 m 538 1278 l 694 1278 l 695 1274 l 512 1097 l 412 1097 l 538 1278 z "},"ǿ":{"ha":789,"x_min":66,"x_max":723,"o":"m 66 374 q 154 642 66 536 q 393 747 242 747 q 466 740 431 747 q 532 719 501 732 l 583 820 l 670 820 l 600 677 q 691 548 659 627 q 723 374 723 469 l 723 359 q 635 90 723 195 q 395 -14 547 -14 q 329 -8 360 -14 q 269 8 298 -3 l 220 -92 l 133 -92 l 201 47 q 101 176 136 95 q 66 359 66 258 l 66 374 m 199 359 q 213 246 199 297 q 254 162 227 195 l 258 162 l 484 619 q 441 636 464 630 q 393 642 418 642 q 249 566 298 642 q 199 374 199 489 l 199 359 m 589 374 q 577 476 589 428 q 544 555 566 524 l 540 555 l 318 106 q 353 94 334 98 q 395 90 372 90 q 540 166 490 90 q 589 359 589 242 l 589 374 m 430 1017 l 586 1017 l 587 1013 l 404 836 l 304 836 l 430 1017 z "},"Ș":{"ha":866,"x_min":66,"x_max":793,"o":"m 660 249 q 609 362 660 317 q 429 439 558 408 q 184 549 272 477 q 96 732 96 622 q 191 924 96 847 q 436 1002 286 1002 q 694 913 598 1002 q 787 707 790 824 l 785 703 l 658 703 q 601 843 658 789 q 436 897 543 897 q 283 851 336 897 q 230 734 230 806 q 288 626 230 669 q 475 551 345 583 q 712 437 631 512 q 793 250 793 361 q 696 58 793 131 q 441 -14 598 -14 q 179 66 293 -14 q 69 280 66 146 l 71 284 l 198 284 q 268 140 198 189 q 441 90 338 90 q 601 133 542 90 q 660 249 660 176 m 464 -175 l 381 -336 l 315 -336 l 357 -169 l 357 -80 l 464 -80 l 464 -175 z "},"ș":{"ha":726,"x_min":70,"x_max":657,"o":"m 524 195 q 490 267 524 239 q 363 317 456 296 q 162 396 229 346 q 94 532 94 446 q 170 684 94 621 q 368 747 246 747 q 572 682 496 747 q 644 522 648 616 l 643 517 l 515 517 q 475 604 515 566 q 368 642 435 642 q 262 611 297 642 q 228 536 228 580 q 258 467 228 492 q 382 422 289 442 q 589 341 522 393 q 657 204 657 290 q 578 46 657 106 q 372 -14 499 -14 q 151 57 231 -14 q 74 223 70 128 l 75 227 l 203 227 q 256 123 206 156 q 372 90 305 90 q 483 119 443 90 q 524 195 524 148 m 411 -174 l 328 -335 l 262 -335 l 304 -168 l 304 -79 l 411 -79 l 411 -174 z "},"ȷ":{"ha":355,"x_min":-46,"x_max":250,"o":"m 250 734 l 250 -60 q 191 -235 250 -174 q 29 -296 133 -296 q -9 -293 8 -296 q -46 -284 -26 -290 l -37 -182 q -5 -189 -27 -186 q 29 -191 17 -191 q 93 -156 69 -191 q 116 -60 116 -121 l 116 734 l 250 734 z "},"ʼ":{"ha":283,"x_min":54,"x_max":229,"o":"m 229 927 l 120 692 l 54 692 l 95 925 l 95 1058 l 229 1058 l 229 927 z "},"ˆ":{"ha":664,"x_min":116,"x_max":532,"o":"m 532 866 l 532 849 l 423 849 l 323 949 l 224 849 l 116 849 l 116 867 l 283 1027 l 364 1027 l 532 866 z "},"ˇ":{"ha":625,"x_min":95,"x_max":522,"o":"m 307 927 l 407 1027 l 522 1027 l 522 1015 l 348 849 l 267 849 l 95 1014 l 95 1027 l 208 1027 l 307 927 z "},"˘":{"ha":594,"x_min":87,"x_max":494,"o":"m 490 987 l 491 983 q 439 855 494 905 q 291 806 384 806 q 142 855 197 806 q 91 983 87 905 l 92 987 l 195 987 q 218 915 195 943 q 291 887 241 887 q 363 915 340 887 q 387 987 387 943 l 490 987 z "},"˙":{"ha":377,"x_min":109,"x_max":256,"o":"m 256 851 l 109 851 l 109 987 l 256 987 l 256 851 z "},"˚":{"ha":472,"x_min":90,"x_max":370,"o":"m 90 887 q 131 983 90 944 q 231 1021 172 1021 q 330 983 289 1021 q 370 887 370 945 q 330 792 370 829 q 231 755 290 755 q 131 792 172 755 q 90 887 90 829 m 160 887 q 181 837 160 858 q 231 817 202 817 q 280 837 260 817 q 300 887 300 857 q 280 939 300 918 q 231 960 260 960 q 181 939 202 960 q 160 887 160 918 z "},"˛":{"ha":381,"x_min":46,"x_max":317,"o":"m 263 0 q 189 -67 216 -35 q 162 -136 162 -100 q 177 -181 162 -165 q 227 -197 193 -197 q 261 -192 245 -197 q 294 -180 277 -187 l 317 -263 q 263 -284 292 -276 q 193 -293 233 -293 q 87 -256 128 -293 q 46 -151 46 -218 q 87 -48 46 -97 q 214 39 128 1 l 263 0 z "},"˜":{"ha":664,"x_min":92,"x_max":562,"o":"m 562 1011 q 522 903 562 947 q 420 859 481 859 q 320 891 372 859 q 233 922 268 922 q 184 900 204 922 q 165 847 165 878 l 92 865 q 132 974 92 928 q 233 1021 172 1021 q 328 989 271 1021 q 420 957 385 957 q 469 979 448 957 q 489 1033 489 1001 l 562 1011 z "},"˝":{"ha":517,"x_min":68,"x_max":571,"o":"m 414 1029 l 569 1029 l 571 1025 l 368 849 l 252 849 l 250 852 l 414 1029 m 193 1029 l 336 1029 l 337 1026 l 174 849 l 68 849 l 193 1029 z "},"˳":{"ha":456,"x_min":123,"x_max":334,"o":"m 123 -159 q 154 -86 123 -115 q 230 -57 185 -57 q 303 -86 273 -57 q 334 -159 334 -115 q 303 -229 334 -201 q 230 -257 273 -257 q 154 -229 185 -257 q 123 -159 123 -201 m 184 -159 q 197 -189 184 -176 q 230 -202 211 -202 q 260 -190 248 -202 q 273 -159 273 -177 q 260 -125 273 -138 q 230 -112 248 -112 q 197 -125 211 -112 q 184 -159 184 -139 z "},"̀":{"ha":0,"x_min":-553,"x_max":-345,"o":"m -345 821 l -433 821 l -553 1057 l -427 1057 l -345 821 z "},"́":{"ha":0,"x_min":-446,"x_max":-236,"o":"m -359 1057 l -236 1057 l -363 821 l -446 821 l -359 1057 z "},"̃":{"ha":0,"x_min":-599,"x_max":-128,"o":"m -128 1011 q -169 903 -128 947 q -270 859 -209 859 q -370 891 -318 859 q -457 922 -422 922 q -506 900 -486 922 q -526 847 -526 878 l -599 865 q -559 974 -599 928 q -457 1021 -519 1021 q -362 989 -419 1021 q -270 957 -305 957 q -222 979 -242 957 q -201 1033 -201 1001 l -128 1011 z "},"̉":{"ha":0,"x_min":-459,"x_max":-248,"o":"m -446 842 l -446 947 q -373 960 -395 949 q -351 996 -351 971 q -380 1036 -351 1023 q -459 1048 -410 1048 l -454 1122 q -301 1087 -355 1122 q -248 994 -248 1052 q -277 921 -248 946 q -350 890 -306 897 l -351 842 l -446 842 z "},"̏":{"ha":0,"x_min":-665,"x_max":-161,"o":"m -344 852 l -345 849 l -461 849 l -665 1025 l -663 1029 l -507 1029 l -344 852 m -161 849 l -268 849 l -431 1026 l -430 1029 l -286 1029 l -161 849 z "},"̣":{"ha":0,"x_min":-480,"x_max":-332,"o":"m -332 -229 l -480 -229 l -480 -93 l -332 -93 l -332 -229 z "},"΄":{"ha":357,"x_min":132,"x_max":315,"o":"m 174 1119 l 315 1119 l 196 861 l 132 861 l 174 1119 z "},"΅":{"ha":709,"x_min":109,"x_max":589,"o":"m 589 852 l 454 852 l 454 987 l 589 987 l 589 852 m 243 852 l 109 852 l 109 987 l 243 987 l 243 852 m 337 1173 l 485 1173 l 399 996 l 302 996 l 337 1173 z "},"Ά":{"ha":899,"x_min":14,"x_max":886,"o":"m 657 254 l 243 254 l 150 0 l 14 0 l 395 987 l 510 987 l 886 0 l 749 0 l 657 254 m 285 366 l 617 366 l 454 816 l 450 816 l 285 366 m 205 1119 l 346 1119 l 227 861 l 163 861 l 205 1119 z "},"·":{"ha":367,"x_min":109,"x_max":243,"o":"m 243 423 l 109 423 l 109 567 l 243 567 l 243 423 z "},"Έ":{"ha":880,"x_min":-20,"x_max":845,"o":"m 776 458 l 323 458 l 323 104 l 845 104 l 845 0 l 190 0 l 190 987 l 838 987 l 838 882 l 323 882 l 323 563 l 776 563 l 776 458 m 22 1120 l 163 1120 l 44 863 l -20 863 l 22 1120 z "},"Ή":{"ha":1059,"x_min":14,"x_max":937,"o":"m 937 0 l 803 0 l 803 436 l 323 436 l 323 0 l 190 0 l 190 987 l 323 987 l 323 541 l 803 541 l 803 987 l 937 987 l 937 0 m 55 1120 l 196 1120 l 77 863 l 14 863 l 55 1120 z "},"Ί":{"ha":460,"x_min":16,"x_max":331,"o":"m 331 0 l 197 0 l 197 987 l 331 987 l 331 0 m 58 1120 l 199 1120 l 80 862 l 16 862 l 58 1120 z "},"Ό":{"ha":960,"x_min":46,"x_max":883,"o":"m 883 406 q 771 105 883 224 q 479 -14 659 -14 q 198 105 307 -14 q 90 406 90 224 l 90 581 q 198 882 90 762 q 479 1002 307 1002 q 771 882 659 1002 q 883 581 883 762 l 883 406 m 749 583 q 676 805 749 718 q 479 892 603 892 q 293 805 363 892 q 224 583 224 718 l 224 406 q 293 182 224 269 q 479 95 363 95 q 676 181 604 95 q 749 406 749 268 l 749 583 m 87 1119 l 229 1119 l 110 861 l 46 861 l 87 1119 z "},"Ύ":{"ha":916,"x_min":-86,"x_max":902,"o":"m 492 486 l 749 987 l 902 987 l 555 347 l 555 0 l 422 0 l 422 356 l 81 987 l 234 987 l 492 486 m -45 1119 l 96 1119 l -22 861 l -86 861 l -45 1119 z "},"Ώ":{"ha":940,"x_min":41,"x_max":849,"o":"m 512 108 q 661 222 608 125 q 714 490 714 319 l 714 570 q 649 812 714 728 q 468 897 583 897 q 288 812 353 897 q 223 570 223 728 l 223 490 q 278 222 223 319 q 429 108 332 124 l 429 0 l 94 0 l 94 104 l 252 104 q 133 274 176 170 q 90 490 90 378 l 90 568 q 194 881 90 761 q 468 1002 299 1002 q 742 881 637 1002 q 848 568 848 761 l 848 490 q 804 274 848 378 q 686 104 761 170 l 849 104 l 849 0 l 512 0 l 512 108 m 83 1119 l 224 1119 l 105 861 l 41 861 l 83 1119 z "},"ΐ":{"ha":456,"x_min":-35,"x_max":446,"o":"m 267 733 l 267 182 q 285 113 267 132 q 334 94 303 94 q 367 99 351 94 q 395 112 383 104 l 425 22 q 365 -7 395 1 q 298 -14 334 -14 q 176 34 218 -14 q 134 189 134 82 l 134 733 l 267 733 m 446 803 l 311 803 l 311 939 l 446 939 l 446 803 m 100 803 l -35 803 l -35 939 l 100 939 l 100 803 m 193 1124 l 341 1124 l 255 947 l 159 947 l 193 1124 z "},"Α":{"ha":899,"x_min":14,"x_max":886,"o":"m 657 254 l 243 254 l 150 0 l 14 0 l 395 987 l 510 987 l 886 0 l 749 0 l 657 254 m 285 366 l 617 366 l 454 816 l 450 816 l 285 366 z "},"Β":{"ha":888,"x_min":122,"x_max":813,"o":"m 122 0 l 122 987 l 444 987 q 686 921 599 987 q 774 720 774 854 q 732 603 774 654 q 621 526 690 551 q 762 438 711 507 q 813 279 813 370 q 725 72 813 143 q 487 0 637 0 l 122 0 m 256 463 l 256 104 l 487 104 q 629 150 578 104 q 680 277 680 195 q 637 414 680 364 q 507 463 595 463 l 256 463 m 256 568 l 472 568 q 593 609 547 568 q 640 723 640 650 q 590 843 640 803 q 444 882 539 882 l 256 882 l 256 568 z "},"Γ":{"ha":773,"x_min":122,"x_max":728,"o":"m 728 882 l 256 882 l 256 0 l 122 0 l 122 987 l 728 987 l 728 882 z "},"Δ":{"ha":981,"x_min":20,"x_max":944,"o":"m 439 987 l 553 987 l 944 0 l 20 0 l 439 987 m 199 104 l 768 104 l 496 817 l 492 817 l 199 104 z "},"Ε":{"ha":812,"x_min":122,"x_max":777,"o":"m 708 458 l 256 458 l 256 104 l 777 104 l 777 0 l 122 0 l 122 987 l 770 987 l 770 882 l 256 882 l 256 563 l 708 563 l 708 458 z "},"Ζ":{"ha":831,"x_min":66,"x_max":768,"o":"m 216 104 l 768 104 l 768 0 l 66 0 l 66 99 l 593 882 l 73 882 l 73 987 l 746 987 l 746 892 l 216 104 z "},"Η":{"ha":991,"x_min":122,"x_max":869,"o":"m 869 0 l 735 0 l 735 436 l 256 436 l 256 0 l 122 0 l 122 987 l 256 987 l 256 541 l 735 541 l 735 987 l 869 987 l 869 0 z "},"Θ":{"ha":947,"x_min":77,"x_max":869,"o":"m 650 447 l 305 447 l 305 551 l 650 551 l 650 447 m 869 406 q 757 105 869 224 q 466 -14 645 -14 q 185 105 293 -14 q 77 406 77 224 l 77 581 q 185 882 77 762 q 466 1002 293 1002 q 757 882 645 1002 q 869 581 869 762 l 869 406 m 736 583 q 663 805 736 718 q 466 892 589 892 q 280 805 349 892 q 210 583 210 718 l 210 406 q 280 182 210 269 q 466 95 349 95 q 663 181 590 95 q 736 406 736 268 l 736 583 z "},"Ι":{"ha":393,"x_min":129,"x_max":263,"o":"m 263 0 l 129 0 l 129 987 l 263 987 l 263 0 z "},"Κ":{"ha":893,"x_min":122,"x_max":890,"o":"m 371 446 l 256 446 l 256 0 l 122 0 l 122 987 l 256 987 l 256 551 l 359 551 l 712 987 l 860 987 l 862 984 l 479 510 l 890 3 l 888 0 l 728 0 l 371 446 z "},"Λ":{"ha":912,"x_min":33,"x_max":873,"o":"m 455 794 l 451 794 l 170 0 l 33 0 l 395 987 l 511 987 l 873 0 l 736 0 l 455 794 z "},"Μ":{"ha":1220,"x_min":122,"x_max":1097,"o":"m 293 987 l 608 185 l 612 185 l 926 987 l 1097 987 l 1097 0 l 964 0 l 964 391 l 977 792 l 974 793 l 654 0 l 565 0 l 246 791 l 243 790 l 256 391 l 256 0 l 122 0 l 122 987 l 293 987 z "},"Ν":{"ha":991,"x_min":122,"x_max":869,"o":"m 869 0 l 735 0 l 260 764 l 256 762 l 256 0 l 122 0 l 122 987 l 256 987 l 731 225 l 735 227 l 735 987 l 869 987 l 869 0 z "},"Ξ":{"ha":795,"x_min":83,"x_max":719,"o":"m 83 104 l 719 104 l 719 0 l 83 0 l 83 104 m 140 565 l 656 565 l 656 460 l 140 460 l 140 565 m 84 987 l 711 987 l 711 882 l 84 882 l 84 987 z "},"Ο":{"ha":947,"x_min":77,"x_max":869,"o":"m 869 406 q 757 105 869 224 q 466 -14 645 -14 q 185 105 293 -14 q 77 406 77 224 l 77 581 q 185 882 77 762 q 466 1002 293 1002 q 757 882 645 1002 q 869 581 869 762 l 869 406 m 736 583 q 663 805 736 718 q 466 892 589 892 q 280 805 349 892 q 210 583 210 718 l 210 406 q 280 182 210 269 q 466 95 349 95 q 663 181 590 95 q 736 406 736 268 l 736 583 z "},"Π":{"ha":992,"x_min":122,"x_max":870,"o":"m 870 0 l 736 0 l 736 882 l 256 882 l 256 0 l 122 0 l 122 987 l 870 987 l 870 0 z "},"Ρ":{"ha":890,"x_min":122,"x_max":833,"o":"m 256 396 l 256 0 l 122 0 l 122 987 l 500 987 q 745 906 658 987 q 833 692 833 825 q 745 476 833 557 q 500 396 658 396 l 256 396 m 256 500 l 500 500 q 650 554 600 500 q 699 690 699 608 q 649 827 699 772 q 500 882 600 882 l 256 882 l 256 500 z "},"Σ":{"ha":795,"x_min":47,"x_max":743,"o":"m 514 485 l 212 109 l 214 105 l 743 105 l 743 0 l 47 0 l 47 100 l 373 494 l 47 888 l 47 987 l 709 987 l 709 882 l 214 882 l 212 879 l 514 501 l 514 485 z "},"Τ":{"ha":814,"x_min":23,"x_max":791,"o":"m 791 882 l 473 882 l 473 0 l 340 0 l 340 882 l 23 882 l 23 987 l 791 987 l 791 882 z "},"Υ":{"ha":848,"x_min":14,"x_max":834,"o":"m 424 486 l 682 987 l 834 987 l 488 347 l 488 0 l 355 0 l 355 356 l 14 987 l 166 987 l 424 486 z "},"Φ":{"ha":976,"x_min":57,"x_max":920,"o":"m 556 833 q 816 734 712 830 q 920 490 920 638 q 816 244 920 340 q 556 144 712 147 l 556 0 l 422 0 l 422 144 q 161 243 265 146 q 57 489 57 339 q 161 734 57 637 q 422 834 265 831 l 422 987 l 556 987 l 556 833 m 189 489 q 249 316 189 380 q 418 254 309 253 l 422 255 l 422 724 l 418 725 q 250 662 310 726 q 189 489 189 597 m 787 490 q 727 662 787 598 q 560 725 667 725 l 556 724 l 556 255 l 560 254 q 727 317 667 253 q 787 490 787 381 z "},"Χ":{"ha":878,"x_min":45,"x_max":840,"o":"m 441 602 l 671 987 l 833 987 l 519 498 l 840 0 l 680 0 l 444 392 l 206 0 l 45 0 l 365 498 l 52 987 l 212 987 l 441 602 z "},"Ψ":{"ha":960,"x_min":59,"x_max":886,"o":"m 534 329 l 538 328 q 694 412 635 340 q 753 600 753 484 l 753 987 l 886 987 l 886 600 q 789 333 886 434 q 534 216 692 233 l 534 0 l 399 0 l 399 217 q 152 334 245 233 q 59 600 59 434 l 59 987 l 192 987 l 192 600 q 248 414 192 485 q 395 329 303 342 l 399 330 l 399 987 l 534 987 l 534 329 z "},"Ω":{"ha":926,"x_min":76,"x_max":836,"o":"m 498 108 q 647 222 594 125 q 701 490 701 319 l 701 570 q 635 812 701 728 q 454 897 570 897 q 275 812 340 897 q 210 570 210 728 l 210 490 q 264 222 210 319 q 416 108 319 124 l 416 0 l 80 0 l 80 104 l 239 104 q 119 274 163 170 q 76 490 76 378 l 76 568 q 181 881 76 761 q 454 1002 286 1002 q 729 881 623 1002 q 834 568 834 761 l 834 490 q 791 274 834 378 q 673 104 747 170 l 836 104 l 836 0 l 498 0 l 498 108 z "},"Ϊ":{"ha":393,"x_min":-36,"x_max":431,"o":"m 263 0 l 129 0 l 129 987 l 263 987 l 263 0 m 431 1088 l 283 1088 l 283 1224 l 431 1224 l 431 1088 m 113 1088 l -36 1088 l -36 1224 l 113 1224 l 113 1088 z "},"Ϋ":{"ha":848,"x_min":14,"x_max":834,"o":"m 424 486 l 682 987 l 834 987 l 488 347 l 488 0 l 355 0 l 355 356 l 14 987 l 166 987 l 424 486 m 658 1088 l 509 1088 l 509 1223 l 658 1223 l 658 1088 m 339 1088 l 191 1088 l 191 1223 l 339 1223 l 339 1088 z "},"ά":{"ha":785,"x_min":66,"x_max":781,"o":"m 679 733 l 679 187 q 693 119 679 138 q 730 100 707 100 q 749 101 741 100 q 766 105 758 102 l 781 9 q 741 -9 762 -5 q 696 -14 721 -14 q 611 7 645 -14 q 561 76 577 29 q 472 8 524 31 q 353 -14 420 -14 q 142 83 218 -14 q 66 339 66 180 l 66 353 q 142 639 66 530 q 354 747 218 747 q 475 723 422 747 q 565 652 528 699 l 600 733 l 679 733 m 200 339 q 246 159 200 228 q 387 90 292 90 q 480 114 441 90 q 545 182 519 138 l 545 187 l 545 554 q 480 618 519 595 q 388 642 441 642 q 246 561 292 642 q 200 353 200 480 l 200 339 m 427 1124 l 568 1124 l 449 866 l 385 866 l 427 1124 z "},"έ":{"ha":748,"x_min":66,"x_max":679,"o":"m 365 323 q 242 295 283 323 q 201 207 201 266 q 247 123 201 157 q 374 90 294 90 q 499 127 450 90 q 548 217 548 165 l 674 217 l 675 213 q 589 45 679 103 q 374 -13 498 -13 q 152 46 237 -13 q 66 207 66 104 q 101 312 66 269 q 203 377 136 355 q 112 442 144 401 q 79 533 79 484 q 158 690 79 635 q 374 746 237 746 q 582 687 498 746 q 663 533 667 627 l 662 529 l 536 529 q 489 610 536 576 q 374 643 441 643 q 254 611 295 643 q 213 533 213 578 q 250 454 213 483 q 365 425 287 425 l 507 425 l 507 323 l 365 323 m 376 1123 l 517 1123 l 399 865 l 335 865 l 376 1123 z "},"ή":{"ha":789,"x_min":97,"x_max":687,"o":"m 216 734 l 225 632 q 316 717 262 687 q 439 747 370 747 q 623 681 559 747 q 687 463 687 615 l 687 -281 l 553 -281 l 553 460 q 515 600 553 557 q 397 642 476 642 q 298 620 340 642 q 231 556 256 597 l 231 0 l 97 0 l 97 734 l 216 734 m 395 1124 l 536 1124 l 417 866 l 353 866 l 395 1124 z "},"ί":{"ha":456,"x_min":134,"x_max":425,"o":"m 267 733 l 267 182 q 285 113 267 132 q 334 94 303 94 q 367 99 351 94 q 395 112 383 104 l 425 22 q 365 -7 395 1 q 298 -14 334 -14 q 176 34 218 -14 q 134 189 134 82 l 134 733 l 267 733 m 208 1111 l 349 1111 l 230 853 l 166 853 l 208 1111 z "},"ΰ":{"ha":789,"x_min":96,"x_max":720,"o":"m 229 734 l 229 319 q 276 145 229 200 q 402 90 323 90 q 541 176 495 90 q 587 381 587 262 q 562 554 585 467 q 503 734 540 642 l 642 734 q 699 573 677 661 q 720 381 720 486 q 645 97 720 208 q 409 -14 570 -14 q 177 68 259 -14 q 96 320 96 150 l 96 734 l 229 734 m 646 803 l 511 803 l 511 939 l 646 939 l 646 803 m 300 803 l 166 803 l 166 939 l 300 939 l 300 803 m 394 1124 l 542 1124 l 456 947 l 359 947 l 394 1124 z "},"α":{"ha":785,"x_min":66,"x_max":781,"o":"m 679 733 l 679 187 q 693 119 679 138 q 730 100 707 100 q 749 101 741 100 q 766 105 758 102 l 781 9 q 741 -9 762 -5 q 696 -14 721 -14 q 611 7 645 -14 q 561 76 577 29 q 472 8 524 31 q 353 -14 420 -14 q 142 83 218 -14 q 66 339 66 180 l 66 353 q 142 639 66 530 q 354 747 218 747 q 475 723 422 747 q 565 652 528 699 l 600 733 l 679 733 m 200 339 q 246 159 200 228 q 387 90 292 90 q 480 114 441 90 q 545 182 519 138 l 545 187 l 545 554 q 480 618 519 595 q 388 642 441 642 q 246 561 292 642 q 200 353 200 480 l 200 339 z "},"β":{"ha":823,"x_min":106,"x_max":748,"o":"m 412 1002 q 624 927 544 1002 q 704 734 704 852 q 670 621 704 673 q 577 538 636 569 q 703 442 658 509 q 748 288 748 376 q 662 66 748 146 q 439 -14 576 -14 q 332 1 384 -14 q 240 47 280 16 l 240 -260 l 106 -260 l 106 728 q 197 921 106 840 q 412 1002 287 1002 m 409 583 q 531 624 492 583 q 570 737 570 665 q 528 849 570 802 q 412 897 486 897 q 290 848 339 897 q 240 728 240 800 l 240 165 q 318 110 270 130 q 426 90 366 90 q 564 144 513 90 q 614 286 614 199 q 570 420 614 361 q 450 478 526 478 l 353 478 l 353 583 l 409 583 z "},"γ":{"ha":699,"x_min":31,"x_max":675,"o":"m 539 734 l 675 734 l 421 42 l 421 -283 l 288 -283 l 288 45 l 31 734 l 168 734 l 342 216 l 353 165 l 357 165 l 370 216 l 539 734 z "},"δ":{"ha":789,"x_min":66,"x_max":723,"o":"m 636 987 l 636 885 l 328 885 l 327 881 l 578 693 q 685 559 647 642 q 723 374 723 475 l 723 359 q 635 90 723 195 q 395 -14 547 -14 q 154 91 243 -14 q 66 359 66 195 l 66 374 q 137 621 66 519 q 334 743 209 722 l 339 743 l 340 747 l 139 907 l 139 987 l 636 987 m 393 642 q 249 566 298 642 q 199 374 199 489 l 199 359 q 249 166 199 242 q 395 90 298 90 q 540 166 490 90 q 589 359 589 242 l 589 374 q 539 566 589 489 q 393 642 490 642 z "},"ε":{"ha":748,"x_min":66,"x_max":679,"o":"m 365 323 q 242 295 283 323 q 201 207 201 266 q 247 123 201 157 q 374 90 294 90 q 499 127 450 90 q 548 217 548 165 l 674 217 l 675 213 q 589 45 679 103 q 374 -13 498 -13 q 152 46 237 -13 q 66 207 66 104 q 101 312 66 269 q 203 377 136 355 q 112 442 144 401 q 79 533 79 484 q 158 690 79 635 q 374 746 237 746 q 582 687 498 746 q 663 533 667 627 l 662 529 l 536 529 q 489 610 536 576 q 374 643 441 643 q 254 611 295 643 q 213 533 213 578 q 250 454 213 483 q 365 425 287 425 l 507 425 l 507 323 l 365 323 z "},"ζ":{"ha":726,"x_min":78,"x_max":658,"o":"m 658 987 l 658 911 l 426 618 q 300 438 338 515 q 262 262 262 361 q 297 144 262 184 q 402 104 333 104 l 424 104 q 593 61 532 104 q 654 -68 654 18 q 600 -200 652 -144 q 473 -288 547 -256 l 418 -201 q 495 -151 463 -180 q 527 -75 527 -122 q 499 -20 527 -39 q 410 0 471 0 l 375 0 q 191 73 254 0 q 128 259 128 145 q 175 449 128 340 q 320 673 222 558 l 502 879 l 500 882 l 78 882 l 78 987 l 658 987 z "},"η":{"ha":789,"x_min":97,"x_max":687,"o":"m 216 734 l 225 632 q 316 717 262 687 q 439 747 370 747 q 623 681 559 747 q 687 463 687 615 l 687 -281 l 553 -281 l 553 460 q 515 600 553 557 q 397 642 476 642 q 298 620 340 642 q 231 556 256 597 l 231 0 l 97 0 l 97 734 l 216 734 z "},"θ":{"ha":790,"x_min":81,"x_max":709,"o":"m 709 376 q 626 86 709 187 q 396 -14 542 -14 q 165 87 250 -14 q 81 376 81 188 l 81 610 q 165 900 81 799 q 395 1002 250 1002 q 625 900 541 1002 q 709 610 709 799 l 709 376 m 214 545 l 576 545 l 576 639 q 529 832 576 767 q 395 897 483 897 q 260 832 307 897 q 214 639 214 767 l 214 545 m 576 439 l 214 439 l 214 349 q 261 156 214 221 q 396 90 308 90 q 530 155 484 90 q 576 349 576 220 l 576 439 z "},"ι":{"ha":456,"x_min":134,"x_max":425,"o":"m 267 733 l 267 182 q 285 113 267 132 q 334 94 303 94 q 367 99 351 94 q 395 112 383 104 l 425 22 q 365 -7 395 1 q 298 -14 334 -14 q 176 34 218 -14 q 134 189 134 82 l 134 733 l 267 733 z "},"κ":{"ha":776,"x_min":104,"x_max":738,"o":"m 306 311 l 237 311 l 237 0 l 104 0 l 104 734 l 237 734 l 237 424 l 294 424 l 557 734 l 714 734 l 715 730 l 410 382 l 738 3 l 736 0 l 573 0 l 306 311 z "},"λ":{"ha":789,"x_min":38,"x_max":758,"o":"m 186 0 l 38 0 l 303 697 l 266 795 q 215 888 244 852 q 144 924 185 924 q 119 923 138 924 q 98 921 101 921 l 98 1019 q 133 1026 112 1023 q 171 1029 155 1029 q 310 975 258 1029 q 389 846 362 920 l 633 205 q 672 128 648 157 q 726 100 696 100 q 739 100 736 100 q 758 103 742 100 l 756 -1 q 736 -8 749 -5 q 716 -12 724 -12 q 588 33 636 -12 q 503 172 539 77 l 366 532 l 362 531 l 342 454 l 186 0 z "},"μ":{"ha":789,"x_min":104,"x_max":685,"o":"m 237 734 l 237 298 q 276 134 238 178 q 381 90 313 90 q 489 115 448 90 q 551 186 530 139 l 551 734 l 685 734 l 685 0 l 565 0 l 559 73 q 486 8 529 31 q 387 -14 443 -14 q 301 -3 338 -14 q 237 32 264 8 l 237 -282 l 104 -282 l 104 734 l 237 734 z "},"ν":{"ha":699,"x_min":31,"x_max":675,"o":"m 342 216 l 353 165 l 357 165 l 370 216 l 539 734 l 675 734 l 406 0 l 304 0 l 31 734 l 168 734 l 342 216 z "},"ξ":{"ha":707,"x_min":58,"x_max":675,"o":"m 625 987 l 625 882 l 425 882 q 299 833 341 877 q 256 724 256 789 q 306 624 256 660 q 459 589 355 589 l 556 589 l 556 484 l 459 484 q 266 431 332 484 q 200 274 200 378 q 254 142 200 193 q 404 91 309 91 l 445 91 q 614 48 554 91 q 675 -83 675 5 q 621 -214 673 -158 q 494 -301 568 -269 l 441 -215 q 517 -165 485 -194 q 549 -89 549 -136 q 525 -33 549 -54 q 450 -13 501 -13 l 404 -13 q 160 64 254 -13 q 66 277 66 141 q 120 442 66 375 q 277 538 174 509 q 163 613 204 566 q 123 721 123 661 q 143 814 123 773 q 204 882 164 855 l 58 882 l 58 987 l 625 987 z "},"ο":{"ha":789,"x_min":66,"x_max":723,"o":"m 66 374 q 154 642 66 536 q 393 747 242 747 q 634 642 546 747 q 723 374 723 537 l 723 359 q 635 90 723 195 q 395 -14 547 -14 q 154 91 243 -14 q 66 359 66 195 l 66 374 m 199 359 q 249 166 199 242 q 395 90 298 90 q 540 166 490 90 q 589 359 589 242 l 589 374 q 539 566 589 489 q 393 642 490 642 q 249 566 298 642 q 199 374 199 489 l 199 359 z "},"π":{"ha":828,"x_min":54,"x_max":833,"o":"m 758 628 l 675 628 l 675 182 q 693 113 675 132 q 741 94 711 94 q 774 99 758 94 q 803 112 791 104 l 833 22 q 772 -7 802 1 q 706 -14 742 -14 q 583 34 625 -14 q 541 189 541 82 l 541 628 l 273 628 l 273 0 l 140 0 l 140 628 l 54 628 l 54 734 l 758 734 l 758 628 z "},"ρ":{"ha":789,"x_min":97,"x_max":719,"o":"m 719 339 q 645 83 719 180 q 437 -14 570 -14 q 319 6 371 -14 q 231 66 268 26 l 231 -282 l 97 -282 l 97 391 l 97 391 q 184 653 97 559 q 401 747 271 747 q 637 640 555 747 q 719 353 719 532 l 719 339 m 585 353 q 541 562 585 481 q 401 642 496 642 q 274 564 318 642 q 231 391 231 486 l 231 186 q 296 116 256 141 q 396 90 337 90 q 538 159 490 90 q 585 339 585 229 l 585 353 z "},"ς":{"ha":747,"x_min":66,"x_max":673,"o":"m 389 747 q 594 676 515 747 q 671 485 673 606 l 669 481 l 549 481 q 507 596 549 551 q 389 642 466 642 q 248 564 295 642 q 200 381 200 486 l 200 353 q 256 188 200 256 q 424 103 311 119 q 603 50 546 85 q 660 -70 660 14 q 606 -201 659 -145 q 479 -288 553 -256 l 425 -202 q 501 -152 469 -181 q 533 -76 533 -123 q 503 -26 533 -43 q 409 0 473 -9 q 153 115 239 24 q 66 353 66 207 l 66 381 q 153 641 66 535 q 389 747 239 747 z "},"σ":{"ha":789,"x_min":66,"x_max":779,"o":"m 779 628 l 591 628 q 689 507 654 579 q 723 347 723 435 l 723 332 q 633 88 723 190 q 395 -14 544 -14 q 154 91 243 -14 q 66 359 66 195 l 66 374 q 154 632 66 530 q 393 734 241 733 l 779 734 l 779 628 m 199 359 q 249 166 199 242 q 395 90 298 90 q 540 166 490 90 q 589 359 589 242 l 589 374 q 539 555 589 483 q 393 628 490 628 q 249 555 298 628 q 199 374 199 483 l 199 359 z "},"τ":{"ha":727,"x_min":55,"x_max":670,"o":"m 670 630 l 427 630 l 427 0 l 294 0 l 294 630 l 55 630 l 55 734 l 670 734 l 670 630 z "},"υ":{"ha":789,"x_min":96,"x_max":720,"o":"m 229 734 l 229 319 q 276 145 229 200 q 402 90 323 90 q 541 176 495 90 q 587 381 587 262 q 562 554 585 467 q 503 734 540 642 l 642 734 q 699 573 677 661 q 720 381 720 486 q 645 97 720 208 q 409 -14 570 -14 q 177 68 259 -14 q 96 320 96 150 l 96 734 l 229 734 z "},"φ":{"ha":983,"x_min":56,"x_max":927,"o":"m 552 734 q 817 625 707 734 q 927 355 927 516 q 835 106 927 208 q 552 -11 743 5 l 552 -324 l 418 -324 l 418 -11 q 144 115 233 6 q 56 382 56 224 q 78 573 56 486 q 135 734 100 661 l 275 734 q 214 555 236 643 q 190 382 191 468 q 245 197 190 277 q 414 100 300 116 l 418 102 l 418 734 l 552 734 m 793 355 q 728 546 791 466 q 556 624 665 627 l 552 623 l 552 100 l 556 98 q 735 186 676 113 q 793 355 793 260 z "},"χ":{"ha":775,"x_min":64,"x_max":745,"o":"m 137 744 q 276 690 224 744 q 355 562 327 635 l 418 412 l 422 412 l 580 734 l 714 734 l 483 254 l 621 -79 q 664 -154 643 -129 q 714 -180 685 -180 q 727 -179 724 -180 q 745 -176 730 -178 l 743 -286 q 724 -293 736 -290 q 703 -296 711 -296 q 577 -252 624 -296 q 494 -112 530 -208 l 408 92 l 404 92 l 224 -281 l 83 -281 l 342 249 l 232 511 q 180 601 210 566 q 111 635 151 635 q 85 633 104 635 q 64 631 67 631 l 64 734 q 99 741 78 737 q 137 744 121 744 z "},"ψ":{"ha":977,"x_min":62,"x_max":920,"o":"m 546 733 l 546 101 l 550 100 q 728 197 670 115 q 787 385 787 279 q 762 556 785 469 q 702 734 740 644 l 842 734 q 899 575 877 662 q 920 385 920 488 q 830 113 920 222 q 546 -12 740 3 l 546 -321 l 412 -321 l 412 -10 q 153 109 244 7 q 62 404 62 212 l 62 734 l 195 734 l 195 403 q 253 188 195 262 q 408 101 310 114 l 412 102 l 412 733 l 546 733 z "},"ω":{"ha":1181,"x_min":73,"x_max":1107,"o":"m 318 734 q 239 555 268 643 q 207 381 210 467 q 245 171 207 252 q 364 90 283 90 q 480 145 437 90 q 523 319 523 200 l 523 522 l 657 522 l 657 319 q 700 145 657 200 q 816 90 743 90 q 935 171 897 90 q 973 381 973 251 q 941 555 970 467 q 862 734 911 643 l 1002 734 q 1078 574 1048 662 q 1107 381 1107 486 q 1038 97 1107 208 q 823 -14 970 -14 q 678 27 737 -14 q 590 149 618 68 q 502 27 561 68 q 357 -14 442 -14 q 142 97 210 -14 q 73 381 73 208 q 102 574 73 486 q 178 734 131 663 l 318 734 z "},"ϊ":{"ha":456,"x_min":-27,"x_max":440,"o":"m 267 733 l 267 182 q 285 113 267 132 q 334 94 303 94 q 367 99 351 94 q 395 112 383 104 l 425 22 q 365 -7 395 1 q 298 -14 334 -14 q 176 34 218 -14 q 134 189 134 82 l 134 733 l 267 733 m 440 856 l 292 856 l 292 991 l 440 991 l 440 856 m 121 856 l -27 856 l -27 991 l 121 991 l 121 856 z "},"ϋ":{"ha":789,"x_min":96,"x_max":720,"o":"m 229 734 l 229 319 q 276 145 229 200 q 402 90 323 90 q 541 176 495 90 q 587 381 587 262 q 562 554 585 467 q 503 734 540 642 l 642 734 q 699 573 677 661 q 720 381 720 486 q 645 97 720 208 q 409 -14 570 -14 q 177 68 259 -14 q 96 320 96 150 l 96 734 l 229 734 m 641 856 l 492 856 l 492 991 l 641 991 l 641 856 m 322 856 l 174 856 l 174 991 l 322 991 l 322 856 z "},"ό":{"ha":789,"x_min":66,"x_max":723,"o":"m 66 374 q 154 642 66 536 q 393 747 242 747 q 634 642 546 747 q 723 374 723 537 l 723 359 q 635 90 723 195 q 395 -14 547 -14 q 154 91 243 -14 q 66 359 66 195 l 66 374 m 199 359 q 249 166 199 242 q 395 90 298 90 q 540 166 490 90 q 589 359 589 242 l 589 374 q 539 566 589 489 q 393 642 490 642 q 249 566 298 642 q 199 374 199 489 l 199 359 m 397 1124 l 538 1124 l 420 866 l 356 866 l 397 1124 z "},"ύ":{"ha":789,"x_min":96,"x_max":720,"o":"m 229 734 l 229 319 q 276 145 229 200 q 402 90 323 90 q 541 176 495 90 q 587 381 587 262 q 562 554 585 467 q 503 734 540 642 l 642 734 q 699 573 677 661 q 720 381 720 486 q 645 97 720 208 q 409 -14 570 -14 q 177 68 259 -14 q 96 320 96 150 l 96 734 l 229 734 m 410 1111 l 551 1111 l 432 853 l 368 853 l 410 1111 z "},"ώ":{"ha":1181,"x_min":73,"x_max":1107,"o":"m 318 734 q 239 555 268 643 q 207 381 210 467 q 245 171 207 252 q 364 90 283 90 q 480 145 437 90 q 523 319 523 200 l 523 522 l 657 522 l 657 319 q 700 145 657 200 q 816 90 743 90 q 935 171 897 90 q 973 381 973 251 q 941 555 970 467 q 862 734 911 643 l 1002 734 q 1078 574 1048 662 q 1107 381 1107 486 q 1038 97 1107 208 q 823 -14 970 -14 q 678 27 737 -14 q 590 149 618 68 q 502 27 561 68 q 357 -14 442 -14 q 142 97 210 -14 q 73 381 73 208 q 102 574 73 486 q 178 734 131 663 l 318 734 m 593 1111 l 734 1111 l 615 853 l 551 853 l 593 1111 z "},"ϑ":{"ha":858,"x_min":77,"x_max":814,"o":"m 353 703 l 353 745 q 417 931 353 861 q 584 1002 481 1002 q 752 933 690 1002 q 814 745 814 865 l 814 401 q 710 99 814 213 q 439 -14 607 -14 q 177 104 277 -14 q 77 401 77 222 l 77 849 l 210 850 l 210 401 q 272 180 210 266 q 439 95 334 95 q 615 175 551 95 q 681 397 680 256 q 443 487 533 402 q 353 703 353 572 m 681 745 q 656 855 681 818 q 584 892 631 892 q 513 855 539 892 q 487 745 487 818 l 487 701 q 538 566 487 620 q 677 510 589 513 l 681 511 l 681 745 z "},"ϒ":{"ha":739,"x_min":-15,"x_max":751,"o":"m 503 840 q 579 960 538 924 q 676 995 621 995 q 716 991 699 995 q 751 979 733 988 l 735 876 q 724 879 732 878 q 708 881 717 881 q 667 869 686 881 q 637 831 648 857 l 434 392 l 434 0 l 301 0 l 301 392 l 98 831 q 67 869 86 857 q 27 881 49 881 q 11 879 18 881 q 0 876 3 878 l -15 979 q 18 991 1 988 q 59 995 35 995 q 155 960 113 995 q 232 840 197 924 l 353 565 l 366 517 l 370 517 l 382 565 l 503 840 z "},"ϖ":{"ha":1090,"x_min":53,"x_max":1059,"o":"m 1059 628 l 968 628 q 999 511 988 573 q 1010 381 1010 450 q 951 97 1010 209 q 768 -14 892 -14 q 631 27 687 -14 q 548 146 575 68 q 465 26 520 67 q 329 -14 409 -14 q 145 97 203 -14 q 86 381 86 209 q 97 511 86 450 q 128 628 108 573 l 53 628 l 53 734 l 1059 734 l 1059 628 m 877 381 q 861 503 875 441 q 825 628 848 565 l 272 628 q 235 503 248 564 q 220 381 221 441 q 248 171 220 252 q 336 90 276 90 q 442 145 403 90 q 481 319 481 200 l 481 488 l 616 488 l 616 319 q 655 145 616 200 q 761 90 694 90 q 848 171 820 90 q 877 381 877 252 z "},"Ѐ":{"ha":812,"x_min":122,"x_max":777,"o":"m 708 458 l 256 458 l 256 104 l 777 104 l 777 0 l 122 0 l 122 987 l 770 987 l 770 882 l 256 882 l 256 563 l 708 563 l 708 458 m 482 1058 l 375 1058 l 205 1234 l 208 1238 l 363 1238 l 482 1058 z "},"Ё":{"ha":812,"x_min":122,"x_max":777,"o":"m 708 458 l 256 458 l 256 104 l 777 104 l 777 0 l 122 0 l 122 987 l 770 987 l 770 882 l 256 882 l 256 563 l 708 563 l 708 458 m 660 1088 l 511 1088 l 511 1224 l 660 1224 l 660 1088 m 341 1088 l 193 1088 l 193 1224 l 341 1224 l 341 1088 z "},"Ђ":{"ha":1042,"x_min":28,"x_max":990,"o":"m 795 882 l 444 882 l 444 570 q 549 595 498 585 q 637 605 601 605 q 897 523 804 605 q 990 294 990 441 q 904 71 990 147 q 656 -4 818 -6 l 653 -3 l 652 93 q 809 144 762 93 q 857 294 857 196 q 801 442 855 391 q 637 493 746 493 q 544 485 595 493 q 444 462 492 476 l 444 0 l 311 0 l 311 882 l 28 882 l 28 987 l 795 987 l 795 882 z "},"Ѓ":{"ha":773,"x_min":122,"x_max":728,"o":"m 728 882 l 256 882 l 256 0 l 122 0 l 122 987 l 728 987 l 728 882 m 489 1236 l 645 1236 l 646 1232 l 463 1055 l 363 1055 l 489 1236 z "},"Є":{"ha":940,"x_min":92,"x_max":836,"o":"m 831 317 l 833 313 q 735 80 836 174 q 470 -14 635 -14 q 197 105 302 -14 q 92 406 92 224 l 92 582 q 197 883 92 764 q 470 1002 302 1002 q 736 913 637 1002 q 833 677 836 824 l 831 673 l 703 673 q 642 837 703 777 q 470 897 581 897 q 292 807 358 897 q 225 583 225 717 l 225 551 l 606 551 l 606 447 l 225 447 l 225 406 q 292 181 225 271 q 470 91 358 91 q 642 151 581 91 q 703 317 703 211 l 831 317 z "},"Ѕ":{"ha":866,"x_min":66,"x_max":793,"o":"m 660 249 q 609 362 660 317 q 429 439 558 408 q 184 549 272 477 q 96 732 96 622 q 191 924 96 847 q 436 1002 286 1002 q 694 913 598 1002 q 787 707 790 824 l 785 703 l 658 703 q 601 843 658 789 q 436 897 543 897 q 283 851 336 897 q 230 734 230 806 q 288 626 230 669 q 475 551 345 583 q 712 437 631 512 q 793 250 793 361 q 696 58 793 131 q 441 -14 598 -14 q 179 66 293 -14 q 69 280 66 146 l 71 284 l 198 284 q 268 140 198 189 q 441 90 338 90 q 601 133 542 90 q 660 249 660 176 z "},"І":{"ha":393,"x_min":129,"x_max":263,"o":"m 263 0 l 129 0 l 129 987 l 263 987 l 263 0 z "},"Ї":{"ha":393,"x_min":-36,"x_max":431,"o":"m 263 0 l 129 0 l 129 987 l 263 987 l 263 0 m 431 1088 l 283 1088 l 283 1224 l 431 1224 l 431 1088 m 113 1088 l -36 1088 l -36 1224 l 113 1224 l 113 1088 z "},"Ј":{"ha":766,"x_min":41,"x_max":653,"o":"m 519 987 l 653 987 l 653 273 q 569 63 653 141 q 352 -14 486 -14 q 125 58 210 -14 q 45 268 41 130 l 46 272 l 174 272 q 221 135 174 180 q 352 90 267 90 q 473 140 426 90 q 519 273 519 190 l 519 987 z "},"Љ":{"ha":1493,"x_min":34,"x_max":1438,"o":"m 862 987 l 862 603 l 1105 603 q 1351 519 1263 603 q 1438 301 1438 435 q 1351 83 1438 167 q 1105 0 1263 0 l 728 0 l 728 882 l 387 882 l 386 522 q 312 125 385 250 q 69 0 239 0 l 34 0 l 34 104 l 61 104 q 208 201 163 104 q 253 522 252 298 l 253 987 l 862 987 m 862 498 l 862 104 l 1105 104 q 1255 162 1205 104 q 1305 302 1305 219 q 1255 441 1305 385 q 1105 498 1205 498 l 862 498 z "},"Њ":{"ha":1500,"x_min":122,"x_max":1446,"o":"m 256 561 l 736 561 l 736 987 l 869 987 l 869 570 l 1114 570 q 1359 492 1272 570 q 1446 288 1446 415 q 1358 80 1446 159 q 1114 0 1271 0 l 736 0 l 736 456 l 256 456 l 256 0 l 122 0 l 122 987 l 256 987 l 256 561 m 869 465 l 869 112 l 1114 112 q 1263 162 1213 112 q 1313 289 1313 212 q 1263 415 1313 365 q 1114 465 1213 465 l 869 465 z "},"Ћ":{"ha":1133,"x_min":45,"x_max":1016,"o":"m 812 882 l 454 882 l 454 589 q 559 609 506 602 q 684 616 613 616 q 931 544 847 616 q 1016 312 1016 472 l 1016 0 l 882 0 l 882 312 q 835 467 882 423 q 684 510 788 510 q 567 503 623 510 q 454 481 510 495 l 454 0 l 321 0 l 321 882 l 45 882 l 45 987 l 812 987 l 812 882 z "},"Ќ":{"ha":893,"x_min":122,"x_max":890,"o":"m 371 446 l 256 446 l 256 0 l 122 0 l 122 987 l 256 987 l 256 551 l 359 551 l 712 987 l 860 987 l 862 984 l 479 510 l 890 3 l 888 0 l 728 0 l 371 446 m 481 1236 l 637 1236 l 638 1232 l 455 1055 l 355 1055 l 481 1236 z "},"Ѝ":{"ha":991,"x_min":122,"x_max":869,"o":"m 735 987 l 869 987 l 869 0 l 735 0 l 735 753 l 731 754 l 256 0 l 122 0 l 122 987 l 256 987 l 256 235 l 260 234 l 735 987 m 553 1058 l 446 1058 l 277 1234 l 279 1238 l 435 1238 l 553 1058 z "},"Ў":{"ha":880,"x_min":58,"x_max":830,"o":"m 399 526 l 448 398 l 452 398 l 675 987 l 830 987 l 485 162 q 398 30 445 73 q 248 -14 351 -14 q 208 -12 231 -14 q 179 -8 185 -10 l 182 93 q 212 91 189 92 q 246 90 235 90 q 315 115 294 90 q 361 193 336 139 l 389 250 l 58 987 l 208 987 l 399 526 m 637 1268 l 639 1264 q 587 1136 642 1185 q 439 1086 532 1086 q 290 1136 345 1086 q 239 1264 235 1185 l 240 1268 l 342 1268 q 366 1196 342 1223 q 439 1168 389 1168 q 511 1196 488 1168 q 535 1268 535 1224 l 637 1268 z "},"Џ":{"ha":992,"x_min":122,"x_max":869,"o":"m 122 987 l 256 987 l 256 104 l 736 104 l 736 987 l 869 987 l 869 0 l 568 0 l 568 -243 l 434 -243 l 434 0 l 122 0 l 122 987 z "},"А":{"ha":899,"x_min":14,"x_max":886,"o":"m 657 254 l 243 254 l 150 0 l 14 0 l 395 987 l 510 987 l 886 0 l 749 0 l 657 254 m 285 366 l 617 366 l 454 816 l 450 816 l 285 366 z "},"Б":{"ha":876,"x_min":111,"x_max":821,"o":"m 716 882 l 244 882 l 244 597 l 488 597 q 733 516 646 597 q 821 301 821 435 q 733 83 821 167 q 488 0 645 0 l 111 0 l 111 987 l 716 987 l 716 882 m 244 492 l 244 104 l 488 104 q 637 162 587 104 q 688 302 688 219 q 638 437 688 383 q 488 492 588 492 l 244 492 z "},"В":{"ha":888,"x_min":122,"x_max":813,"o":"m 122 0 l 122 987 l 444 987 q 686 921 599 987 q 774 720 774 854 q 732 603 774 654 q 621 526 690 551 q 762 438 711 507 q 813 279 813 370 q 725 72 813 143 q 487 0 637 0 l 122 0 m 256 463 l 256 104 l 487 104 q 629 150 578 104 q 680 277 680 195 q 637 414 680 364 q 507 463 595 463 l 256 463 m 256 568 l 472 568 q 593 609 547 568 q 640 723 640 650 q 590 843 640 803 q 444 882 539 882 l 256 882 l 256 568 z "},"Г":{"ha":773,"x_min":122,"x_max":728,"o":"m 728 882 l 256 882 l 256 0 l 122 0 l 122 987 l 728 987 l 728 882 z "},"Д":{"ha":1051,"x_min":33,"x_max":1013,"o":"m 877 104 l 1013 104 l 999 -242 l 879 -242 l 879 0 l 166 0 l 166 -243 l 53 -243 l 33 104 l 117 104 q 213 278 170 163 q 260 588 256 392 l 283 987 l 877 987 l 877 104 m 395 588 q 355 304 389 427 q 266 104 320 181 l 743 104 l 743 882 l 411 882 l 395 588 z "},"Е":{"ha":812,"x_min":122,"x_max":777,"o":"m 708 458 l 256 458 l 256 104 l 777 104 l 777 0 l 122 0 l 122 987 l 770 987 l 770 882 l 256 882 l 256 563 l 708 563 l 708 458 z "},"Ж":{"ha":1267,"x_min":19,"x_max":1249,"o":"m 808 453 l 704 453 l 704 0 l 570 0 l 570 453 l 460 453 l 186 0 l 19 0 l 349 522 l 47 987 l 203 987 l 459 558 l 570 558 l 570 987 l 704 987 l 704 558 l 810 558 l 1066 987 l 1222 987 l 919 523 l 1249 0 l 1083 0 l 808 453 z "},"З":{"ha":939,"x_min":81,"x_max":846,"o":"m 831 720 q 785 595 831 652 q 657 507 739 538 q 797 419 749 478 q 846 275 846 360 q 738 62 846 139 q 454 -14 629 -14 q 191 58 301 -14 q 85 270 81 131 l 86 274 l 214 274 q 281 143 214 197 q 454 90 348 90 q 644 141 575 90 q 712 273 712 191 q 650 407 712 363 q 465 450 587 450 l 341 450 l 341 556 l 465 556 q 640 601 583 556 q 697 723 697 646 q 636 848 697 799 q 454 897 574 897 q 293 848 359 897 q 228 729 228 800 l 100 729 l 100 733 q 199 927 96 852 q 454 1002 302 1002 q 730 928 629 1002 q 831 720 831 855 z "},"И":{"ha":991,"x_min":122,"x_max":869,"o":"m 735 987 l 869 987 l 869 0 l 735 0 l 735 753 l 731 754 l 256 0 l 122 0 l 122 987 l 256 987 l 256 235 l 260 234 l 735 987 z "},"Й":{"ha":991,"x_min":122,"x_max":869,"o":"m 735 987 l 869 987 l 869 0 l 735 0 l 735 753 l 731 754 l 256 0 l 122 0 l 122 987 l 256 987 l 256 235 l 260 234 l 735 987 m 696 1268 l 698 1264 q 646 1136 701 1185 q 498 1086 591 1086 q 349 1136 404 1086 q 298 1264 294 1185 l 299 1268 l 401 1268 q 425 1196 401 1223 q 498 1168 448 1168 q 570 1196 547 1168 q 594 1268 594 1224 l 696 1268 z "},"К":{"ha":893,"x_min":122,"x_max":890,"o":"m 371 446 l 256 446 l 256 0 l 122 0 l 122 987 l 256 987 l 256 551 l 359 551 l 712 987 l 860 987 l 862 984 l 479 510 l 890 3 l 888 0 l 728 0 l 371 446 z "},"Л":{"ha":984,"x_min":33,"x_max":862,"o":"m 862 987 l 862 0 l 728 0 l 728 882 l 372 882 l 371 522 q 301 125 371 251 q 69 0 231 0 l 33 0 l 33 104 l 61 104 q 196 201 155 104 q 238 522 237 298 l 239 987 l 862 987 z "},"М":{"ha":1220,"x_min":122,"x_max":1097,"o":"m 293 987 l 608 185 l 612 185 l 926 987 l 1097 987 l 1097 0 l 964 0 l 964 391 l 977 792 l 974 793 l 654 0 l 565 0 l 246 791 l 243 790 l 256 391 l 256 0 l 122 0 l 122 987 l 293 987 z "},"Н":{"ha":991,"x_min":122,"x_max":869,"o":"m 869 0 l 735 0 l 735 436 l 256 436 l 256 0 l 122 0 l 122 987 l 256 987 l 256 541 l 735 541 l 735 987 l 869 987 l 869 0 z "},"О":{"ha":947,"x_min":77,"x_max":869,"o":"m 869 406 q 757 105 869 224 q 466 -14 645 -14 q 185 105 293 -14 q 77 406 77 224 l 77 581 q 185 882 77 762 q 466 1002 293 1002 q 757 882 645 1002 q 869 581 869 762 l 869 406 m 736 583 q 663 805 736 718 q 466 892 589 892 q 280 805 349 892 q 210 583 210 718 l 210 406 q 280 182 210 269 q 466 95 349 95 q 663 181 590 95 q 736 406 736 268 l 736 583 z "},"П":{"ha":992,"x_min":122,"x_max":870,"o":"m 870 0 l 736 0 l 736 882 l 256 882 l 256 0 l 122 0 l 122 987 l 870 987 l 870 0 z "},"Р":{"ha":890,"x_min":122,"x_max":833,"o":"m 256 396 l 256 0 l 122 0 l 122 987 l 500 987 q 745 906 658 987 q 833 692 833 825 q 745 476 833 557 q 500 396 658 396 l 256 396 m 256 500 l 500 500 q 650 554 600 500 q 699 690 699 608 q 649 827 699 772 q 500 882 600 882 l 256 882 l 256 500 z "},"С":{"ha":880,"x_min":80,"x_max":824,"o":"m 820 316 l 821 312 q 724 79 824 173 q 458 -14 623 -14 q 185 104 291 -14 q 80 406 80 223 l 80 581 q 185 883 80 764 q 458 1002 291 1002 q 725 912 626 1002 q 821 676 824 823 l 820 672 l 692 672 q 631 836 692 776 q 458 897 570 897 q 280 806 347 897 q 214 583 214 716 l 214 406 q 280 180 214 271 q 458 90 347 90 q 631 150 570 90 q 692 316 692 210 l 820 316 z "},"Т":{"ha":814,"x_min":23,"x_max":791,"o":"m 791 882 l 473 882 l 473 0 l 340 0 l 340 882 l 23 882 l 23 987 l 791 987 l 791 882 z "},"У":{"ha":873,"x_min":58,"x_max":830,"o":"m 399 526 l 448 398 l 452 398 l 675 987 l 830 987 l 485 162 q 398 30 445 73 q 248 -14 351 -14 q 208 -12 231 -14 q 179 -8 185 -10 l 182 93 q 212 91 189 92 q 246 90 235 90 q 315 115 294 90 q 361 193 336 139 l 389 250 l 58 987 l 208 987 l 399 526 z "},"Ф":{"ha":1079,"x_min":58,"x_max":1029,"o":"m 610 889 l 628 889 q 914 778 799 889 q 1029 492 1029 666 q 914 204 1029 316 q 628 92 799 92 l 610 92 l 610 -41 l 477 -41 l 477 92 l 457 92 q 172 203 286 92 q 58 490 58 315 q 172 777 58 665 q 457 889 286 889 l 477 889 l 477 1028 l 610 1028 l 610 889 m 457 784 q 259 705 329 784 q 190 490 190 625 q 259 275 190 354 q 457 197 329 197 l 477 197 l 477 784 l 457 784 m 610 784 l 610 197 l 629 197 q 826 276 755 197 q 896 492 896 355 q 826 705 896 626 q 629 784 755 784 l 610 784 z "},"Х":{"ha":878,"x_min":45,"x_max":840,"o":"m 441 602 l 671 987 l 833 987 l 519 498 l 840 0 l 680 0 l 444 392 l 206 0 l 45 0 l 365 498 l 52 987 l 212 987 l 441 602 z "},"Ц":{"ha":1069,"x_min":123,"x_max":1015,"o":"m 1015 -243 l 881 -243 l 881 109 l 1015 109 l 1015 -243 m 123 987 l 257 987 l 257 105 l 737 105 l 737 987 l 871 987 l 871 0 l 123 0 l 123 987 z "},"Ч":{"ha":956,"x_min":100,"x_max":833,"o":"m 833 987 l 833 0 l 699 0 l 699 409 q 574 380 635 389 q 431 372 514 372 q 184 443 268 372 q 100 675 100 515 l 100 987 l 234 987 l 234 675 q 281 520 234 564 q 431 477 328 477 q 567 487 502 477 q 699 515 632 496 l 699 987 l 833 987 z "},"Ш":{"ha":1310,"x_min":122,"x_max":1188,"o":"m 256 987 l 256 104 l 589 104 l 589 987 l 722 987 l 722 104 l 1055 104 l 1055 987 l 1188 987 l 1188 0 l 122 0 l 122 987 l 256 987 z "},"Щ":{"ha":1352,"x_min":122,"x_max":1293,"o":"m 256 987 l 256 104 l 589 104 l 589 987 l 722 987 l 722 104 l 1055 104 l 1055 987 l 1188 987 l 1188 105 l 1293 105 l 1280 -238 l 1161 -238 l 1161 0 l 122 0 l 122 987 l 256 987 z "},"Ъ":{"ha":1050,"x_min":15,"x_max":996,"o":"m 15 987 l 418 987 l 418 583 l 662 583 q 908 505 821 583 q 996 294 996 427 q 908 81 996 161 q 662 0 820 0 l 285 0 l 285 882 l 15 882 l 15 987 m 418 478 l 418 104 l 662 104 q 812 159 762 104 q 862 296 862 213 q 812 427 862 376 q 662 478 762 478 l 418 478 z "},"Ы":{"ha":1208,"x_min":122,"x_max":1087,"o":"m 256 597 l 499 597 q 745 516 657 597 q 833 301 833 435 q 745 83 833 167 q 499 0 656 0 l 122 0 l 122 987 l 256 987 l 256 597 m 256 492 l 256 104 l 499 104 q 649 162 599 104 q 699 302 699 219 q 649 437 699 383 q 499 492 600 492 l 256 492 m 1087 0 l 953 0 l 953 987 l 1087 987 l 1087 0 z "},"Ь":{"ha":875,"x_min":111,"x_max":821,"o":"m 244 583 l 488 583 q 734 505 646 583 q 821 294 821 427 q 733 81 821 161 q 488 0 646 0 l 111 0 l 111 987 l 244 987 l 244 583 m 244 478 l 244 104 l 488 104 q 638 159 588 104 q 688 296 688 213 q 638 427 688 376 q 488 478 588 478 l 244 478 z "},"Э":{"ha":939,"x_min":123,"x_max":867,"o":"m 127 671 l 126 675 q 223 908 123 813 q 488 1002 324 1002 q 762 883 656 1002 q 867 582 867 764 l 867 406 q 762 105 867 223 q 488 -14 656 -14 q 222 75 321 -14 q 126 311 123 163 l 127 315 l 256 315 q 316 151 256 211 q 488 91 376 91 q 666 181 600 91 q 733 405 733 271 l 733 460 l 344 460 l 344 565 l 733 565 l 733 582 q 666 807 733 716 q 488 897 600 897 q 316 837 376 897 q 256 671 256 777 l 127 671 z "},"Ю":{"ha":1238,"x_min":129,"x_max":1195,"o":"m 1195 406 q 1083 105 1195 224 q 791 -14 970 -14 q 510 105 618 -14 q 402 406 402 224 l 402 429 l 263 429 l 263 0 l 129 0 l 129 987 l 263 987 l 263 533 l 402 533 l 402 581 q 510 882 402 762 q 791 1002 618 1002 q 1083 882 970 1002 q 1195 581 1195 762 l 1195 406 m 1061 583 q 988 805 1061 718 q 791 892 915 892 q 605 805 675 892 q 536 583 536 718 l 536 406 q 605 182 536 269 q 791 95 675 95 q 988 181 916 95 q 1061 406 1061 268 l 1061 583 z "},"Я":{"ha":890,"x_min":67,"x_max":769,"o":"m 209 0 l 67 0 l 298 422 q 153 526 203 458 q 103 690 103 594 q 196 909 103 831 q 453 987 290 987 l 769 987 l 769 0 l 635 0 l 635 386 l 414 386 l 209 0 m 635 882 l 453 882 q 292 831 347 882 q 237 692 237 781 q 292 547 237 603 q 452 492 348 492 l 635 492 l 635 882 z "},"а":{"ha":764,"x_min":72,"x_max":686,"o":"m 548 0 q 537 59 541 33 q 533 110 534 84 q 436 21 496 57 q 307 -14 376 -14 q 132 44 192 -14 q 72 206 72 103 q 157 371 72 311 q 388 430 242 430 l 533 430 l 533 503 q 494 605 533 567 q 382 642 454 642 q 278 609 318 642 q 237 530 237 576 l 110 530 l 109 534 q 184 681 104 614 q 390 747 264 747 q 591 684 515 747 q 667 501 667 621 l 667 148 q 671 72 667 109 q 686 0 675 35 l 548 0 m 326 98 q 457 135 399 98 q 533 220 515 172 l 533 340 l 383 340 q 254 299 302 340 q 205 203 205 258 q 236 126 205 155 q 326 98 267 98 z "},"б":{"ha":768,"x_min":66,"x_max":723,"o":"m 420 692 q 642 598 560 692 q 723 359 723 505 l 723 345 q 635 86 723 186 q 395 -14 547 -14 q 154 86 243 -14 q 66 345 66 186 l 66 439 q 157 785 66 656 q 401 945 248 914 q 525 982 487 960 q 564 1053 564 1004 l 667 1053 l 668 1049 q 612 892 670 930 q 427 833 553 855 q 269 762 334 818 q 188 599 203 707 l 191 595 q 291 665 231 638 q 420 692 351 692 m 393 587 q 249 522 298 587 q 200 359 200 457 l 200 345 q 249 162 200 234 q 395 90 298 90 q 540 162 490 90 q 589 345 589 234 l 589 359 q 539 522 589 457 q 393 587 490 587 z "},"в":{"ha":789,"x_min":98,"x_max":718,"o":"m 98 0 l 98 734 l 387 734 q 612 683 532 734 q 692 532 692 633 q 661 440 692 480 q 573 378 630 399 q 680 315 642 361 q 718 209 718 269 q 643 53 718 106 q 434 0 568 0 l 98 0 m 231 321 l 231 103 l 434 103 q 546 131 508 103 q 584 212 584 159 q 546 293 584 264 q 434 321 508 321 l 231 321 m 231 424 l 388 424 q 516 449 473 424 q 559 525 559 474 q 515 604 559 577 q 387 630 472 630 l 231 630 l 231 424 z "},"г":{"ha":576,"x_min":97,"x_max":564,"o":"m 564 628 l 231 628 l 231 0 l 97 0 l 97 734 l 564 734 l 564 628 z "},"д":{"ha":846,"x_min":31,"x_max":803,"o":"m 89 104 q 175 240 145 170 q 215 458 205 311 l 226 734 l 705 734 l 705 104 l 803 104 l 790 -216 l 669 -216 l 669 0 l 165 0 l 165 -216 l 44 -216 l 31 104 l 89 104 m 349 458 q 314 250 341 336 q 243 104 286 163 l 572 104 l 572 615 l 355 615 l 349 458 z "},"е":{"ha":734,"x_min":67,"x_max":682,"o":"m 401 -14 q 158 88 248 -14 q 67 353 67 190 l 67 382 q 160 643 67 539 q 381 747 254 747 q 606 658 530 747 q 682 419 682 568 l 682 336 l 205 336 l 203 332 q 257 158 205 227 q 401 90 309 90 q 520 110 469 90 q 609 163 572 129 l 661 76 q 557 12 622 37 q 401 -14 493 -14 m 381 642 q 267 586 314 642 q 208 444 219 529 l 210 440 l 548 440 l 548 458 q 506 589 548 536 q 381 642 464 642 z "},"ж":{"ha":1063,"x_min":14,"x_max":1044,"o":"m 682 318 l 596 318 l 596 0 l 463 0 l 463 318 l 376 318 l 182 0 l 14 0 l 276 389 l 37 734 l 199 734 l 379 431 l 463 431 l 463 734 l 596 734 l 596 431 l 680 431 l 861 734 l 1022 734 l 783 389 l 1044 0 l 876 0 l 682 318 z "},"з":{"ha":705,"x_min":60,"x_max":639,"o":"m 360 429 q 461 455 431 429 q 492 533 492 482 q 457 611 492 579 q 351 643 422 643 q 245 610 288 643 q 203 529 203 576 l 76 529 l 75 533 q 152 687 71 627 q 351 746 233 746 q 553 691 480 746 q 625 533 625 635 q 595 443 625 484 q 512 378 566 401 q 606 312 574 355 q 639 207 639 269 q 560 45 639 104 q 351 -13 481 -13 q 146 45 232 -13 q 63 213 60 103 l 64 217 l 191 217 q 236 127 191 165 q 351 90 281 90 q 464 123 424 90 q 505 207 505 157 q 470 293 505 266 q 360 320 435 320 l 233 320 l 233 429 l 360 429 z "},"и":{"ha":789,"x_min":97,"x_max":692,"o":"m 558 734 l 692 734 l 692 0 l 558 0 l 558 521 l 554 522 l 230 0 l 97 0 l 97 734 l 230 734 l 230 213 l 234 212 l 558 734 z "},"й":{"ha":789,"x_min":97,"x_max":692,"o":"m 558 734 l 692 734 l 692 0 l 558 0 l 558 521 l 554 522 l 230 0 l 97 0 l 97 734 l 230 734 l 230 213 l 234 212 l 558 734 m 593 1036 l 595 1031 q 543 903 597 953 q 395 854 488 854 q 246 903 301 854 q 195 1031 191 953 l 196 1036 l 298 1036 q 321 963 298 991 q 395 935 345 935 q 467 963 444 935 q 491 1036 491 991 l 593 1036 z "},"к":{"ha":736,"x_min":104,"x_max":739,"o":"m 325 311 l 237 311 l 237 0 l 104 0 l 104 734 l 237 734 l 237 424 l 315 424 l 557 734 l 713 734 l 715 730 l 428 382 l 739 3 l 736 0 l 572 0 l 325 311 z "},"л":{"ha":768,"x_min":18,"x_max":692,"o":"m 692 734 l 692 0 l 558 0 l 558 628 l 310 628 l 310 420 q 252 102 310 203 q 56 0 195 0 l 18 0 l 20 114 l 48 115 q 148 184 119 115 q 176 420 176 254 l 176 734 l 692 734 z "},"м":{"ha":1036,"x_min":104,"x_max":926,"o":"m 515 175 l 519 175 l 759 734 l 926 734 l 926 0 l 792 0 l 792 509 l 788 511 l 563 0 l 471 0 l 241 522 l 237 521 l 237 0 l 104 0 l 104 734 l 276 734 l 515 175 z "},"н":{"ha":789,"x_min":97,"x_max":691,"o":"m 691 0 l 557 0 l 557 312 l 231 312 l 231 0 l 97 0 l 97 734 l 231 734 l 231 416 l 557 416 l 557 734 l 691 734 l 691 0 z "},"о":{"ha":789,"x_min":66,"x_max":723,"o":"m 66 374 q 154 642 66 536 q 393 747 242 747 q 634 642 546 747 q 723 374 723 537 l 723 359 q 635 90 723 195 q 395 -14 547 -14 q 154 91 243 -14 q 66 359 66 195 l 66 374 m 199 359 q 249 166 199 242 q 395 90 298 90 q 540 166 490 90 q 589 359 589 242 l 589 374 q 539 566 589 489 q 393 642 490 642 q 249 566 298 642 q 199 374 199 489 l 199 359 z "},"п":{"ha":789,"x_min":97,"x_max":692,"o":"m 692 0 l 558 0 l 558 628 l 231 628 l 231 0 l 97 0 l 97 734 l 692 734 l 692 0 z "},"р":{"ha":789,"x_min":97,"x_max":722,"o":"m 722 339 q 646 83 722 180 q 437 -14 570 -14 q 318 8 369 -14 q 231 77 267 31 l 231 -282 l 97 -282 l 97 734 l 199 734 l 220 639 q 310 720 256 692 q 435 747 363 747 q 647 639 571 747 q 722 353 722 531 l 722 339 m 589 353 q 539 558 589 478 q 395 639 490 639 q 296 613 337 639 q 231 541 256 587 l 231 186 q 296 116 256 141 q 396 90 337 90 q 540 160 491 90 q 589 339 589 229 l 589 353 z "},"с":{"ha":737,"x_min":66,"x_max":688,"o":"m 395 90 q 512 131 462 90 q 563 232 563 172 l 683 232 l 684 228 q 600 59 688 133 q 395 -14 512 -14 q 151 90 235 -14 q 66 353 66 195 l 66 381 q 151 643 66 538 q 395 747 236 747 q 606 671 524 747 q 685 485 688 595 l 684 481 l 563 481 q 515 595 563 548 q 395 642 468 642 q 245 567 290 642 q 200 381 200 491 l 200 353 q 245 165 200 240 q 395 90 290 90 z "},"т":{"ha":711,"x_min":48,"x_max":663,"o":"m 663 630 l 420 630 l 420 0 l 287 0 l 287 630 l 48 630 l 48 734 l 663 734 l 663 630 z "},"у":{"ha":699,"x_min":18,"x_max":678,"o":"m 321 272 l 345 180 l 349 180 l 530 734 l 678 734 l 370 -113 q 290 -241 342 -186 q 150 -296 238 -296 q 109 -293 134 -296 q 70 -286 83 -289 l 83 -180 q 107 -182 79 -180 q 143 -184 136 -184 q 213 -146 186 -184 q 258 -62 240 -108 l 290 15 l 18 734 l 167 734 l 321 272 z "},"ф":{"ha":1007,"x_min":66,"x_max":941,"o":"m 66 353 q 136 640 66 532 q 334 747 205 747 q 385 743 361 747 q 431 730 409 738 l 431 1058 l 564 1058 l 564 726 q 614 742 587 736 q 673 747 642 747 q 871 640 802 747 q 941 353 941 532 l 941 339 q 871 82 941 179 q 675 -14 802 -14 q 615 -9 643 -14 q 564 6 587 -3 l 564 -282 l 431 -282 l 431 3 q 385 -10 409 -5 q 332 -14 360 -14 q 136 82 205 -14 q 66 339 66 179 l 66 353 m 807 353 q 764 562 807 481 q 633 642 721 642 q 595 639 612 642 q 564 631 578 636 l 564 100 q 595 93 578 95 q 634 90 612 90 q 765 159 722 90 q 807 339 807 227 l 807 353 m 200 339 q 239 158 200 226 q 366 90 278 90 q 401 93 385 90 q 431 100 417 95 l 431 633 q 401 640 417 637 q 368 642 386 642 q 240 562 279 642 q 200 353 200 482 l 200 339 z "},"х":{"ha":699,"x_min":31,"x_max":665,"o":"m 346 463 l 502 734 l 658 734 l 420 371 l 665 0 l 511 0 l 349 277 l 186 0 l 31 0 l 276 371 l 38 734 l 192 734 l 346 463 z "},"ц":{"ha":826,"x_min":97,"x_max":781,"o":"m 97 734 l 231 734 l 231 104 l 558 104 l 558 734 l 692 734 l 692 104 l 781 104 l 781 -240 l 648 -240 l 648 0 l 97 0 l 97 734 z "},"ч":{"ha":767,"x_min":86,"x_max":670,"o":"m 670 0 l 536 0 l 536 262 q 457 247 498 252 q 370 242 416 242 q 162 312 237 242 q 86 519 86 382 l 86 734 l 220 734 l 220 519 q 258 389 220 431 q 370 348 296 348 q 456 353 415 348 q 536 368 496 358 l 536 734 l 670 734 l 670 0 z "},"ш":{"ha":1116,"x_min":97,"x_max":1015,"o":"m 231 734 l 231 104 l 489 104 l 489 734 l 623 734 l 623 104 l 881 104 l 881 734 l 1015 734 l 1015 0 l 97 0 l 97 734 l 231 734 z "},"щ":{"ha":1175,"x_min":97,"x_max":1134,"o":"m 231 734 l 231 104 l 489 104 l 489 734 l 623 734 l 623 104 l 881 104 l 881 734 l 1015 734 l 1015 98 l 1134 98 l 1134 -229 l 1002 -229 l 1002 0 l 97 0 l 97 734 l 231 734 z "},"ъ":{"ha":860,"x_min":20,"x_max":825,"o":"m 368 481 l 551 481 q 753 415 681 481 q 825 243 825 349 q 752 68 825 137 q 551 0 680 0 l 235 0 l 235 629 l 20 629 l 20 734 l 368 734 l 368 481 m 368 377 l 368 104 l 551 104 q 657 143 623 104 q 691 239 691 181 q 656 336 691 294 q 551 377 622 377 l 368 377 z "},"ы":{"ha":1097,"x_min":117,"x_max":971,"o":"m 251 454 l 433 454 q 636 392 564 454 q 708 230 708 330 q 635 65 708 130 q 433 0 562 0 l 117 0 l 117 734 l 251 734 l 251 454 m 971 0 l 838 0 l 838 734 l 971 734 l 971 0 m 251 350 l 251 104 l 433 104 q 539 139 505 104 q 574 225 574 174 q 539 313 574 275 q 433 350 505 350 l 251 350 z "},"ь":{"ha":755,"x_min":104,"x_max":694,"o":"m 237 454 l 420 454 q 622 392 550 454 q 694 230 694 330 q 622 65 694 130 q 420 0 549 0 l 104 0 l 104 734 l 237 734 l 237 454 m 237 350 l 237 104 l 420 104 q 526 139 492 104 q 560 225 560 174 q 526 313 560 275 q 420 350 491 350 l 237 350 z "},"э":{"ha":747,"x_min":67,"x_max":675,"o":"m 353 642 q 242 601 290 642 q 193 500 193 559 l 73 500 l 71 505 q 154 673 67 599 q 353 747 240 747 q 588 641 502 747 q 675 381 675 535 l 675 353 q 588 92 675 198 q 353 -14 501 -14 q 148 61 229 -14 q 71 248 67 137 l 72 252 l 193 252 q 239 137 193 184 q 353 90 285 90 q 485 157 438 90 q 537 318 532 223 l 535 321 l 274 321 l 274 426 l 534 426 l 535 429 q 482 580 528 518 q 353 642 435 642 z "},"ю":{"ha":1133,"x_min":104,"x_max":1066,"o":"m 237 424 l 411 424 q 511 657 425 568 q 736 747 597 747 q 978 642 889 747 q 1066 374 1066 537 l 1066 359 q 978 90 1066 195 q 738 -14 890 -14 q 508 78 595 -14 q 410 319 421 171 l 237 319 l 237 0 l 104 0 l 104 734 l 237 734 l 237 424 m 543 359 q 592 166 543 242 q 738 90 641 90 q 883 166 833 90 q 932 359 932 242 l 932 374 q 883 566 932 489 q 736 642 833 642 q 592 566 641 642 q 543 374 543 489 l 543 359 z "},"я":{"ha":789,"x_min":53,"x_max":685,"o":"m 685 734 l 685 0 l 551 0 l 551 285 l 370 285 l 197 0 l 53 0 l 239 304 q 131 384 169 330 q 94 509 94 438 q 169 671 94 608 q 375 734 243 734 l 685 734 m 228 508 q 261 425 228 459 q 361 390 294 390 l 551 390 l 551 630 l 375 630 q 265 594 302 630 q 228 508 228 557 z "},"ѐ":{"ha":734,"x_min":67,"x_max":682,"o":"m 401 -14 q 158 88 248 -14 q 67 353 67 190 l 67 382 q 160 643 67 539 q 381 747 254 747 q 606 658 530 747 q 682 419 682 568 l 682 336 l 205 336 l 203 332 q 257 158 205 227 q 401 90 309 90 q 520 110 469 90 q 609 163 572 129 l 661 76 q 557 12 622 37 q 401 -14 493 -14 m 381 642 q 267 586 314 642 q 208 444 219 529 l 210 440 l 548 440 l 548 458 q 506 589 548 536 q 381 642 464 642 m 435 840 l 328 840 l 158 1017 l 160 1021 l 316 1021 l 435 840 z "},"ё":{"ha":734,"x_min":67,"x_max":682,"o":"m 401 -14 q 158 88 248 -14 q 67 353 67 190 l 67 382 q 160 643 67 539 q 381 747 254 747 q 606 658 530 747 q 682 419 682 568 l 682 336 l 205 336 l 203 332 q 257 158 205 227 q 401 90 309 90 q 520 110 469 90 q 609 163 572 129 l 661 76 q 557 12 622 37 q 401 -14 493 -14 m 381 642 q 267 586 314 642 q 208 444 219 529 l 210 440 l 548 440 l 548 458 q 506 589 548 536 q 381 642 464 642 m 612 871 l 464 871 l 464 1006 l 612 1006 l 612 871 m 294 871 l 145 871 l 145 1006 l 294 1006 l 294 871 z "},"ђ":{"ha":789,"x_min":-17,"x_max":695,"o":"m 418 819 l 231 819 l 231 635 q 324 718 269 688 q 446 747 379 747 q 629 677 564 747 q 694 460 694 606 l 694 309 l 695 309 l 695 -60 q 637 -235 695 -174 q 474 -296 578 -296 q 434 -294 452 -296 q 397 -285 416 -291 l 408 -182 q 439 -189 416 -186 q 474 -191 463 -191 q 538 -156 515 -191 q 561 -60 561 -121 l 561 461 q 522 595 561 552 q 406 639 483 639 q 305 613 350 639 q 231 542 260 587 l 231 0 l 97 0 l 97 819 l -17 819 l -17 924 l 97 924 l 97 1058 l 231 1058 l 231 924 l 418 924 l 418 819 z "},"ѓ":{"ha":576,"x_min":97,"x_max":564,"o":"m 564 628 l 231 628 l 231 0 l 97 0 l 97 734 l 564 734 l 564 628 m 351 1003 l 507 1003 l 508 999 l 325 823 l 225 823 l 351 1003 z "},"є":{"ha":748,"x_min":73,"x_max":694,"o":"m 402 90 q 519 131 469 90 q 570 232 570 172 l 690 232 l 691 228 q 607 59 694 133 q 402 -14 519 -14 q 157 90 242 -14 q 73 353 73 195 l 73 381 q 158 643 73 538 q 402 747 243 747 q 613 671 531 747 q 692 485 694 595 l 690 481 l 570 481 q 522 595 570 548 q 402 642 475 642 q 261 579 307 642 q 212 422 215 515 l 213 418 l 468 418 l 468 314 l 213 314 l 212 311 q 260 153 215 215 q 402 90 306 90 z "},"ѕ":{"ha":726,"x_min":70,"x_max":657,"o":"m 524 195 q 490 267 524 239 q 363 317 456 296 q 162 396 229 346 q 94 532 94 446 q 170 684 94 621 q 368 747 246 747 q 572 682 496 747 q 644 522 648 616 l 643 517 l 515 517 q 475 604 515 566 q 368 642 435 642 q 262 611 297 642 q 228 536 228 580 q 258 467 228 492 q 382 422 289 442 q 589 341 522 393 q 657 204 657 290 q 578 46 657 106 q 372 -14 499 -14 q 151 57 231 -14 q 74 223 70 128 l 75 227 l 203 227 q 256 123 206 156 q 372 90 305 90 q 483 119 443 90 q 524 195 524 148 z "},"і":{"ha":350,"x_min":108,"x_max":241,"o":"m 241 0 l 108 0 l 108 734 l 241 734 l 241 0 m 241 922 l 108 922 l 108 1058 l 241 1058 l 241 922 z "},"ї":{"ha":349,"x_min":-61,"x_max":406,"o":"m 237 0 l 104 0 l 104 734 l 237 734 l 237 0 m 406 856 l 258 856 l 258 991 l 406 991 l 406 856 m 87 856 l -61 856 l -61 991 l 87 991 l 87 856 z "},"ј":{"ha":359,"x_min":-45,"x_max":251,"o":"m 251 734 l 251 -60 q 193 -235 251 -174 q 31 -296 134 -296 q -8 -293 9 -296 q -45 -284 -25 -290 l -35 -179 q -8 -185 -26 -182 q 21 -187 9 -187 q 91 -157 65 -187 q 117 -60 117 -127 l 117 734 l 251 734 m 247 924 l 113 924 l 113 1058 l 247 1058 l 247 924 z "},"љ":{"ha":1208,"x_min":44,"x_max":1149,"o":"m 692 734 l 692 455 l 874 455 q 1076 392 1004 455 q 1149 230 1149 330 q 1076 65 1149 130 q 874 0 1003 0 l 558 0 l 558 628 l 342 628 l 342 420 q 282 102 342 205 q 82 0 222 0 l 44 0 l 47 107 l 75 108 q 178 182 146 108 q 209 420 209 256 l 209 734 l 692 734 m 692 351 l 692 103 l 874 103 q 980 141 945 103 q 1015 231 1015 179 q 980 316 1015 281 q 874 351 946 351 l 692 351 z "},"њ":{"ha":1208,"x_min":97,"x_max":1148,"o":"m 231 457 l 557 457 l 557 734 l 691 734 l 691 454 l 873 454 q 1076 392 1004 454 q 1148 230 1148 330 q 1075 65 1148 130 q 873 0 1002 0 l 557 0 l 557 353 l 231 353 l 231 0 l 97 0 l 97 734 l 231 734 l 231 457 m 691 351 l 691 103 l 873 103 q 979 141 945 103 q 1014 231 1014 179 q 980 316 1014 281 q 873 351 945 351 l 691 351 z "},"ћ":{"ha":789,"x_min":13,"x_max":694,"o":"m 448 821 l 231 821 l 231 635 q 324 718 269 688 q 446 747 379 747 q 629 677 564 747 q 694 460 694 606 l 694 0 l 561 0 l 561 461 q 522 595 561 552 q 406 639 483 639 q 305 613 350 639 q 231 542 260 587 l 231 0 l 97 0 l 97 821 l 13 821 l 13 926 l 97 926 l 97 1058 l 231 1058 l 231 926 l 448 926 l 448 821 z "},"ќ":{"ha":736,"x_min":104,"x_max":739,"o":"m 325 311 l 237 311 l 237 0 l 104 0 l 104 734 l 237 734 l 237 424 l 315 424 l 557 734 l 713 734 l 715 730 l 428 382 l 739 3 l 736 0 l 572 0 l 325 311 m 430 1002 l 586 1002 l 587 998 l 404 822 l 304 822 l 430 1002 z "},"ѝ":{"ha":789,"x_min":97,"x_max":692,"o":"m 558 734 l 692 734 l 692 0 l 558 0 l 558 521 l 554 522 l 230 0 l 97 0 l 97 734 l 230 734 l 230 213 l 234 212 l 558 734 m 450 825 l 343 825 l 174 1002 l 176 1006 l 332 1006 l 450 825 z "},"ў":{"ha":699,"x_min":18,"x_max":678,"o":"m 321 272 l 345 180 l 349 180 l 530 734 l 678 734 l 370 -113 q 290 -241 342 -186 q 150 -296 238 -296 q 109 -293 134 -296 q 70 -286 83 -289 l 83 -180 q 107 -182 79 -180 q 143 -184 136 -184 q 213 -146 186 -184 q 258 -62 240 -108 l 290 15 l 18 734 l 167 734 l 321 272 m 548 1036 l 549 1031 q 497 903 552 953 q 349 854 442 854 q 201 903 256 854 q 149 1031 146 953 l 151 1036 l 253 1036 q 276 963 253 991 q 349 935 299 935 q 422 963 398 935 q 446 1036 446 991 l 548 1036 z "},"џ":{"ha":789,"x_min":97,"x_max":692,"o":"m 231 734 l 231 104 l 558 104 l 558 734 l 692 734 l 692 0 l 463 0 l 463 -241 l 330 -241 l 330 0 l 97 0 l 97 734 l 231 734 z "},"Ѡ":{"ha":1219,"x_min":106,"x_max":1113,"o":"m 1113 987 l 1113 265 q 1035 57 1113 129 q 829 -14 956 -14 q 698 15 755 -14 q 608 103 640 45 q 514 15 574 45 q 378 -14 454 -14 q 181 57 256 -14 q 106 265 106 129 l 106 987 l 240 987 l 240 265 q 278 135 240 179 q 378 90 315 90 q 496 135 451 90 q 541 265 541 179 l 541 987 l 679 987 l 679 265 q 720 135 679 180 q 829 90 762 90 q 938 135 897 90 q 979 265 979 180 l 979 987 l 1113 987 z "},"ѡ":{"ha":1058,"x_min":84,"x_max":979,"o":"m 979 734 l 979 239 q 908 51 979 115 q 722 -14 837 -14 q 610 10 659 -14 q 530 82 560 34 q 446 10 498 34 q 328 -14 394 -14 q 151 50 218 -14 q 84 239 84 115 l 84 734 l 218 734 l 218 239 q 248 128 218 165 q 328 90 277 90 q 427 128 389 90 q 465 239 465 166 l 465 734 l 599 734 l 599 239 q 632 128 599 165 q 722 90 666 90 q 811 128 777 90 q 846 239 846 166 l 846 734 l 979 734 z "},"Ѣ":{"ha":875,"x_min":-35,"x_max":821,"o":"m 400 747 l 244 747 l 244 597 l 488 597 q 733 516 646 597 q 821 301 821 435 q 733 83 821 167 q 488 0 645 0 l 111 0 l 111 747 l -35 747 l -35 852 l 111 852 l 111 987 l 244 987 l 244 852 l 400 852 l 400 747 m 244 492 l 244 104 l 488 104 q 637 162 587 104 q 688 302 688 219 q 638 437 688 383 q 488 492 588 492 l 244 492 z "},"ѣ":{"ha":755,"x_min":-25,"x_max":694,"o":"m 455 734 l 237 734 l 237 507 l 420 507 q 622 438 550 507 q 694 256 694 368 q 622 72 694 144 q 420 0 549 0 l 104 0 l 104 734 l -25 734 l -25 838 l 104 838 l 104 1058 l 237 1058 l 237 838 l 455 838 l 455 734 m 237 403 l 237 104 l 420 104 q 526 147 492 104 q 560 252 560 189 q 526 358 560 313 q 420 403 491 403 l 237 403 z "},"Ѥ":{"ha":1246,"x_min":130,"x_max":1138,"o":"m 264 566 l 397 566 l 397 582 q 502 883 397 764 q 775 1002 608 1002 q 1032 915 939 1002 q 1138 677 1125 828 l 1137 673 l 1008 673 q 937 839 992 781 q 775 897 882 897 q 597 807 663 897 q 530 583 530 717 l 530 566 l 896 566 l 896 460 l 530 460 l 530 406 q 597 181 530 271 q 775 91 663 91 q 938 149 883 91 q 1008 317 992 206 l 1137 317 l 1138 313 q 1031 78 1125 170 q 775 -14 937 -14 q 502 105 608 -14 q 397 406 397 224 l 397 460 l 264 460 l 264 0 l 130 0 l 130 987 l 264 987 l 264 566 z "},"ѥ":{"ha":1038,"x_min":102,"x_max":983,"o":"m 236 418 l 363 418 q 457 654 372 561 q 691 747 541 747 q 902 671 820 747 q 981 485 983 595 l 979 481 l 859 481 q 811 595 859 548 q 691 642 764 642 q 550 579 595 642 q 500 421 504 515 l 502 418 l 786 418 l 786 313 l 502 313 l 500 310 q 549 153 504 215 q 691 90 595 90 q 808 131 758 90 q 859 232 859 172 l 979 232 l 980 228 q 896 59 983 133 q 691 -14 808 -14 q 457 78 541 -14 q 363 313 373 170 l 236 313 l 236 0 l 102 0 l 102 734 l 236 734 l 236 418 z "},"Ѧ":{"ha":838,"x_min":29,"x_max":848,"o":"m 611 297 l 502 297 l 502 0 l 369 0 l 369 297 l 269 297 l 165 0 l 29 0 l 385 987 l 500 987 l 848 0 l 712 0 l 611 297 m 307 408 l 573 408 l 444 790 l 439 790 l 307 408 z "},"ѧ":{"ha":744,"x_min":9,"x_max":722,"o":"m 505 199 l 433 199 l 433 0 l 300 0 l 300 199 l 224 199 l 145 0 l 9 0 l 307 734 l 422 734 l 722 0 l 586 0 l 505 199 m 265 304 l 463 304 l 378 516 l 366 562 l 361 562 l 349 516 l 265 304 z "},"Ѩ":{"ha":1224,"x_min":142,"x_max":1207,"o":"m 276 409 l 535 409 l 744 987 l 859 987 l 1207 0 l 1071 0 l 970 297 l 861 297 l 861 0 l 728 0 l 728 297 l 627 297 l 524 0 l 388 0 l 495 298 l 276 298 l 276 0 l 142 0 l 142 987 l 276 987 l 276 409 m 666 408 l 932 408 l 802 790 l 798 790 l 666 408 z "},"ѩ":{"ha":1050,"x_min":126,"x_max":1025,"o":"m 260 304 l 435 304 l 610 734 l 725 734 l 1025 0 l 889 0 l 808 199 l 736 199 l 736 0 l 604 0 l 604 199 l 527 199 l 448 0 l 312 0 l 393 199 l 260 199 l 260 0 l 126 0 l 126 734 l 260 734 l 260 304 m 568 304 l 766 304 l 681 516 l 669 562 l 665 562 l 652 516 l 568 304 z "},"Ѫ":{"ha":1193,"x_min":101,"x_max":1093,"o":"m 746 552 l 761 552 q 1008 481 923 552 q 1093 252 1093 410 l 1093 0 l 959 0 l 959 252 q 912 404 959 361 q 761 447 865 447 l 682 447 l 665 418 l 665 0 l 532 0 l 532 429 l 520 447 l 431 447 q 281 404 328 447 q 235 252 235 361 l 235 0 l 101 0 l 101 252 q 185 481 101 410 q 431 552 269 552 l 456 552 l 191 987 l 1011 987 l 746 552 m 598 552 l 605 552 l 798 882 l 406 882 l 598 552 z "},"ѫ":{"ha":1028,"x_min":101,"x_max":927,"o":"m 762 734 l 845 734 l 652 409 q 857 331 786 402 q 927 110 927 260 l 927 0 l 793 0 l 793 110 q 752 263 793 220 q 623 305 712 305 l 591 305 l 583 292 l 583 0 l 450 0 l 450 298 l 446 305 l 405 305 q 275 263 315 305 q 235 110 235 220 l 235 0 l 101 0 l 101 110 q 173 334 101 263 q 384 409 245 404 l 191 734 l 298 734 l 298 734 l 762 734 l 762 734 m 518 412 l 637 629 l 399 629 l 518 412 z "},"Ѭ":{"ha":1577,"x_min":129,"x_max":1477,"o":"m 1131 552 q 1392 481 1308 552 q 1477 252 1477 410 l 1477 0 l 1343 0 l 1343 252 q 1296 404 1343 361 q 1145 447 1249 447 l 1067 447 l 1050 418 l 1050 0 l 916 0 l 916 429 l 905 447 l 816 447 q 666 404 712 447 q 619 252 619 361 l 619 0 l 486 0 l 486 252 q 538 448 486 377 l 263 448 l 263 0 l 129 0 l 129 987 l 263 987 l 263 552 l 841 552 l 576 987 l 1396 987 l 1131 552 m 983 552 l 989 552 l 1182 882 l 790 882 l 983 552 z "},"ѭ":{"ha":1369,"x_min":104,"x_max":1270,"o":"m 1188 734 l 995 409 q 1200 331 1129 402 q 1270 110 1270 260 l 1270 0 l 1136 0 l 1136 110 q 1096 263 1136 220 q 966 305 1055 305 l 934 305 l 926 292 l 926 0 l 793 0 l 793 298 l 789 305 l 748 305 q 618 263 658 305 q 578 110 578 220 l 578 0 l 444 0 l 444 110 q 492 305 444 235 l 237 305 l 237 0 l 104 0 l 104 734 l 237 734 l 237 410 l 726 410 l 534 734 l 1188 734 m 861 412 l 981 629 l 742 629 l 861 412 z "},"Ѯ":{"ha":720,"x_min":50,"x_max":632,"o":"m 279 559 q 433 603 384 559 q 483 723 483 646 q 434 837 483 792 q 293 882 386 882 l 87 882 l 87 987 l 293 987 q 527 915 436 987 q 617 720 617 843 q 573 595 617 650 q 451 509 529 539 q 585 422 538 481 q 632 276 632 362 q 542 63 632 140 q 309 -14 452 -14 l 275 -14 q 200 -34 224 -14 q 177 -90 177 -54 q 209 -166 177 -137 q 285 -215 240 -195 l 231 -301 q 103 -214 156 -269 q 50 -83 51 -158 q 111 48 50 5 q 281 92 172 92 l 309 92 q 447 142 397 92 q 498 273 498 193 q 442 409 498 363 q 279 454 387 454 l 182 454 l 182 559 l 279 559 m 363 1192 l 463 1293 l 578 1293 l 578 1280 l 404 1114 l 323 1114 l 151 1279 l 151 1293 l 263 1293 l 363 1192 z "},"ѯ":{"ha":669,"x_min":50,"x_max":603,"o":"m 278 419 q 411 447 368 419 q 454 526 454 475 q 412 599 454 570 q 292 628 370 628 l 86 628 l 86 734 l 292 734 q 505 677 422 734 q 588 524 588 620 q 553 434 588 474 q 456 370 518 393 q 565 306 528 347 q 603 206 603 264 q 520 45 603 104 q 308 -14 438 -14 l 275 -14 q 200 -34 223 -14 q 176 -90 176 -54 q 208 -166 176 -137 q 285 -215 240 -195 l 231 -301 q 103 -214 155 -269 q 50 -83 50 -158 q 110 48 50 5 q 280 92 171 92 l 308 92 q 426 122 382 92 q 469 203 469 153 q 420 287 469 259 q 278 314 372 314 l 181 314 l 181 419 l 278 419 m 314 959 l 414 1059 l 529 1059 l 529 1047 l 355 881 l 274 881 l 102 1046 l 102 1059 l 214 1059 l 314 959 z "},"Ѱ":{"ha":960,"x_min":59,"x_max":886,"o":"m 534 329 l 538 328 q 694 412 635 340 q 753 600 753 484 l 753 987 l 886 987 l 886 600 q 789 333 886 434 q 534 216 692 233 l 534 0 l 399 0 l 399 217 q 152 334 245 233 q 59 600 59 434 l 59 987 l 192 987 l 192 600 q 248 414 192 485 q 395 329 303 342 l 399 330 l 399 987 l 534 987 l 534 329 z "},"ѱ":{"ha":977,"x_min":62,"x_max":920,"o":"m 546 733 l 546 101 l 550 100 q 728 197 670 115 q 787 385 787 279 q 762 556 785 469 q 702 734 740 644 l 842 734 q 899 575 877 662 q 920 385 920 488 q 830 113 920 222 q 546 -12 740 3 l 546 -321 l 412 -321 l 412 -10 q 153 109 244 7 q 62 404 62 212 l 62 734 l 195 734 l 195 403 q 253 188 195 262 q 408 101 310 114 l 412 102 l 412 733 l 546 733 z "},"Ѳ":{"ha":947,"x_min":77,"x_max":869,"o":"m 869 406 q 757 105 869 224 q 466 -14 645 -14 q 185 105 293 -14 q 77 406 77 224 l 77 581 q 185 882 77 762 q 466 1002 293 1002 q 757 882 645 1002 q 869 581 869 762 l 869 406 m 210 540 l 736 540 l 736 583 q 663 805 736 718 q 466 892 589 892 q 280 805 349 892 q 210 583 210 718 l 210 540 m 736 435 l 210 435 l 210 406 q 280 182 210 269 q 466 95 349 95 q 663 181 590 95 q 736 406 736 268 l 736 435 z "},"ѳ":{"ha":790,"x_min":66,"x_max":723,"o":"m 66 374 q 154 642 66 536 q 393 747 242 747 q 634 642 546 747 q 723 374 723 537 l 723 359 q 635 90 723 195 q 395 -14 547 -14 q 154 91 243 -14 q 66 359 66 195 l 66 374 m 395 90 q 530 153 481 90 q 584 315 578 216 l 583 318 l 205 318 l 204 315 q 258 153 210 216 q 395 90 307 90 m 393 642 q 260 582 309 642 q 205 427 212 521 l 206 423 l 582 423 l 583 427 q 527 581 576 520 q 393 642 478 642 z "},"Ѵ":{"ha":878,"x_min":15,"x_max":844,"o":"m 394 259 l 416 177 l 420 177 l 443 259 l 614 805 q 692 956 648 911 q 810 1001 736 1001 l 844 1000 l 843 886 l 835 886 q 780 864 801 886 q 741 789 760 843 l 475 0 l 361 0 l 15 987 l 160 987 l 394 259 z "},"ѵ":{"ha":699,"x_min":31,"x_max":704,"o":"m 328 216 l 339 165 l 343 165 l 356 216 l 457 579 q 530 706 485 665 q 630 747 574 747 q 670 743 653 747 q 704 730 688 740 l 689 627 q 678 631 686 629 q 662 633 671 633 q 620 615 640 633 q 591 569 600 597 l 391 0 l 290 0 l 31 734 l 168 734 l 328 216 z "},"Ѷ":{"ha":878,"x_min":15,"x_max":844,"o":"m 394 259 l 416 177 l 420 177 l 443 259 l 614 805 q 692 956 648 911 q 810 1001 736 1001 l 844 1000 l 843 886 l 835 886 q 780 864 801 886 q 741 789 760 843 l 475 0 l 361 0 l 15 987 l 160 987 l 394 259 m 389 1087 l 387 1084 l 271 1084 l 68 1260 l 70 1264 l 225 1264 l 389 1087 m 571 1084 l 465 1084 l 301 1261 l 302 1264 l 446 1264 l 571 1084 z "},"ѷ":{"ha":699,"x_min":-1,"x_max":704,"o":"m 328 216 l 339 165 l 343 165 l 356 216 l 457 579 q 530 706 485 665 q 630 747 574 747 q 670 743 653 747 q 704 730 688 740 l 689 627 q 678 631 686 629 q 662 633 671 633 q 620 615 640 633 q 591 569 600 597 l 391 0 l 290 0 l 31 734 l 168 734 l 328 216 m 319 886 l 318 883 l 202 883 l -1 1059 l 1 1063 l 156 1063 l 319 886 m 502 883 l 395 883 l 232 1060 l 233 1063 l 377 1063 l 502 883 z "},"Ѹ":{"ha":1645,"x_min":77,"x_max":1625,"o":"m 869 406 q 757 105 869 224 q 466 -14 645 -14 q 185 105 293 -14 q 77 406 77 224 l 77 581 q 185 882 77 762 q 466 1002 293 1002 q 757 882 645 1002 q 869 581 869 762 l 869 406 m 736 583 q 663 805 736 718 q 466 892 589 892 q 280 805 349 892 q 210 583 210 718 l 210 406 q 280 182 210 269 q 466 95 349 95 q 663 181 590 95 q 736 406 736 268 l 736 583 m 1268 272 l 1292 180 l 1296 180 l 1476 734 l 1625 734 l 1316 -113 q 1237 -241 1289 -186 q 1097 -296 1185 -296 q 1055 -293 1080 -296 q 1017 -286 1030 -289 l 1030 -180 q 1054 -182 1026 -180 q 1090 -184 1082 -184 q 1160 -146 1133 -184 q 1205 -62 1187 -108 l 1237 15 l 964 734 l 1114 734 l 1268 272 z "},"ѹ":{"ha":1488,"x_min":66,"x_max":1468,"o":"m 66 374 q 154 642 66 536 q 393 747 242 747 q 634 642 546 747 q 723 374 723 537 l 723 359 q 635 90 723 195 q 395 -14 547 -14 q 154 91 243 -14 q 66 359 66 195 l 66 374 m 199 359 q 249 166 199 242 q 395 90 298 90 q 540 166 490 90 q 589 359 589 242 l 589 374 q 539 566 589 489 q 393 642 490 642 q 249 566 298 642 q 199 374 199 489 l 199 359 m 1111 272 l 1135 180 l 1139 180 l 1319 734 l 1468 734 l 1159 -113 q 1079 -241 1131 -186 q 939 -296 1027 -296 q 898 -293 923 -296 q 859 -286 873 -289 l 873 -180 q 897 -182 869 -180 q 932 -184 925 -184 q 1002 -146 975 -184 q 1048 -62 1029 -108 l 1080 15 l 807 734 l 956 734 l 1111 272 z "},"Ѻ":{"ha":947,"x_min":77,"x_max":869,"o":"m 869 406 q 757 105 869 224 q 541 -8 669 12 l 541 -96 l 407 -96 l 407 -10 q 184 105 274 7 q 77 406 77 224 l 77 581 q 184 882 77 762 q 407 998 274 981 l 407 1078 l 541 1078 l 541 996 q 757 882 669 975 q 869 581 869 762 l 869 406 m 736 583 q 663 805 736 718 q 541 882 613 863 l 541 814 l 407 814 l 407 886 q 279 805 330 869 q 210 583 210 718 l 210 406 q 279 182 210 269 q 407 101 330 118 l 407 174 l 541 174 l 541 104 q 663 181 613 123 q 736 406 736 268 l 736 583 z "},"ѻ":{"ha":789,"x_min":66,"x_max":723,"o":"m 462 -80 l 328 -80 l 328 -9 q 154 90 222 9 q 66 359 66 195 l 66 374 q 154 642 66 536 q 328 742 222 724 l 328 818 l 462 818 l 462 741 q 634 642 567 722 q 723 374 723 537 l 723 359 q 635 90 723 195 q 462 -8 567 10 l 462 -80 m 199 359 q 248 166 199 242 q 328 100 279 119 l 328 170 l 462 170 l 462 101 q 540 166 509 119 q 589 359 589 242 l 589 374 q 539 566 589 489 q 462 630 509 612 l 462 567 l 328 567 l 328 631 q 248 566 279 613 q 199 374 199 489 l 199 359 z "},"Ѽ":{"ha":1214,"x_min":106,"x_max":1109,"o":"m 838 981 l 842 983 q 1035 907 960 985 q 1109 682 1109 829 l 1109 291 q 1035 64 1109 142 q 838 -14 960 -14 q 701 15 761 -14 q 608 101 642 43 q 513 15 573 43 q 378 -14 454 -14 q 181 64 256 -14 q 106 291 106 142 l 106 682 q 181 907 106 829 q 374 983 255 985 l 378 981 l 378 882 q 278 831 315 882 q 240 682 240 779 l 240 291 q 278 141 240 193 q 378 90 315 90 q 496 135 451 90 q 541 265 541 179 l 541 558 l 675 558 l 675 265 q 720 135 675 179 q 838 90 764 90 q 938 141 899 90 q 976 291 976 193 l 976 682 q 938 831 976 779 q 838 882 899 882 l 838 981 m 907 1191 l 907 1103 l 876 1103 q 686 1145 787 1103 q 556 1187 585 1187 q 503 1168 522 1187 q 483 1115 483 1150 l 483 1103 l 392 1103 l 392 1127 q 434 1238 392 1200 q 553 1275 476 1275 q 701 1233 602 1275 q 878 1191 800 1191 l 907 1191 m 578 894 l 524 939 l 564 1017 l 563 1112 l 690 1112 l 690 1028 l 578 894 z "},"ѽ":{"ha":1058,"x_min":83,"x_max":978,"o":"m 734 734 l 738 736 q 911 668 844 739 q 978 462 978 597 l 978 264 q 911 57 978 128 q 734 -14 844 -14 q 614 10 667 -14 q 530 83 562 35 q 446 10 498 35 q 328 -14 394 -14 q 150 57 217 -14 q 83 264 83 128 l 83 462 q 150 668 83 597 q 323 736 216 739 l 328 734 l 328 635 q 247 591 277 635 q 217 462 217 547 l 217 264 q 247 134 217 178 q 328 90 277 90 q 426 128 388 90 q 464 239 464 166 l 464 397 l 597 397 l 597 239 q 635 128 597 166 q 734 90 673 90 q 814 134 784 90 q 844 264 844 178 l 844 462 q 814 591 844 547 q 734 635 784 635 l 734 734 m 852 947 l 852 860 l 821 860 q 630 902 732 860 q 500 943 529 943 q 447 925 467 943 q 427 871 427 907 l 427 859 l 336 859 l 336 884 q 378 994 336 957 q 498 1031 420 1031 q 646 989 547 1031 q 822 947 745 947 l 852 947 m 524 655 l 471 704 l 508 778 l 507 863 l 633 859 l 633 780 l 524 655 z "},"Ѿ":{"ha":1219,"x_min":106,"x_max":1113,"o":"m 318 1145 l 318 1219 l 875 1219 l 876 1145 l 651 1145 l 651 1059 l 530 1059 l 530 1145 l 318 1145 m 1113 987 l 1113 265 q 1035 57 1113 129 q 829 -14 956 -14 q 698 15 755 -14 q 608 103 640 45 q 514 15 574 45 q 378 -14 454 -14 q 181 57 256 -14 q 106 265 106 129 l 106 987 l 240 987 l 240 265 q 278 135 240 179 q 378 90 315 90 q 496 135 451 90 q 541 265 541 179 l 541 987 l 679 987 l 679 265 q 720 135 679 180 q 829 90 762 90 q 938 135 897 90 q 979 265 979 180 l 979 987 l 1113 987 z "},"ѿ":{"ha":1059,"x_min":84,"x_max":979,"o":"m 258 914 l 258 988 l 814 988 l 817 914 l 591 914 l 591 827 l 470 827 l 470 914 l 258 914 m 979 734 l 979 239 q 908 51 979 115 q 722 -14 837 -14 q 610 10 659 -14 q 530 82 560 34 q 446 10 498 34 q 328 -14 394 -14 q 151 50 218 -14 q 84 239 84 115 l 84 734 l 218 734 l 218 239 q 248 128 218 165 q 328 90 277 90 q 427 128 389 90 q 465 239 465 166 l 465 734 l 599 734 l 599 239 q 632 128 599 165 q 722 90 666 90 q 811 128 777 90 q 846 239 846 166 l 846 734 l 979 734 z "},"Ҁ":{"ha":906,"x_min":80,"x_max":824,"o":"m 536 -260 l 404 -260 l 404 -10 q 169 124 258 9 q 80 406 80 239 l 80 581 q 185 883 80 764 q 458 1002 291 1002 q 725 912 626 1002 q 821 676 824 823 l 820 672 l 692 672 q 631 836 692 776 q 458 897 570 897 q 280 806 347 897 q 214 583 214 716 l 214 406 q 280 180 214 271 q 458 90 347 90 l 536 90 l 536 -260 z "},"ҁ":{"ha":745,"x_min":66,"x_max":673,"o":"m 460 -260 l 327 -260 l 327 -9 q 135 114 204 13 q 66 353 66 215 l 66 381 q 153 641 66 535 q 389 747 239 747 q 593 671 512 747 q 671 485 673 595 l 669 481 l 549 481 q 502 595 549 547 q 389 642 456 642 q 248 564 295 642 q 200 381 200 486 l 200 353 q 247 168 200 245 q 389 90 294 90 l 460 90 l 460 -260 z "},"҂":{"ha":869,"x_min":76,"x_max":795,"o":"m 410 303 l 606 186 l 557 102 l 360 217 l 237 0 l 119 0 l 272 270 l 76 386 l 124 470 l 323 354 l 460 601 l 263 717 l 313 802 l 510 686 l 635 910 l 751 910 l 596 634 l 795 518 l 744 434 l 549 549 l 410 303 z "},"҃":{"ha":790,"x_min":144,"x_max":631,"o":"m 262 891 l 262 806 l 144 806 l 144 966 l 513 966 l 513 1039 l 631 1038 l 631 891 l 262 891 z "},"҄":{"ha":820,"x_min":170,"x_max":686,"o":"m 200 972 q 376 1014 277 972 q 524 1056 475 1056 q 643 1019 601 1056 q 686 908 686 981 l 686 884 l 595 884 l 595 896 q 575 949 595 931 q 522 968 555 968 q 391 926 492 968 q 201 884 290 884 l 170 884 l 170 972 l 200 972 z "},"҅":{"ha":534,"x_min":174,"x_max":340,"o":"m 174 1017 l 174 1101 l 300 1101 l 300 1006 l 340 927 l 285 882 l 174 1017 z "},"҆":{"ha":574,"x_min":203,"x_max":370,"o":"m 258 882 l 203 927 l 243 1006 l 242 1101 l 370 1101 l 370 1017 l 258 882 z "}}}
